G04 (created by PCBNEW (2012-nov-02)-testing) date Wed 06 Feb 2013 10:53:48 PM EST*
%MOIN*%
G04 Gerber Fmt 3.4, Leading zero omitted, Abs format*
%FSLAX34Y34*%
G01*
G70*
G90*
G04 APERTURE LIST*
%ADD10C,2.3622e-06*%
%ADD11C,0.012*%
%ADD12C,0.0001*%
G04 APERTURE END LIST*
G54D10*
G54D11*
X81307Y-50385D02*
X81221Y-50423D01*
X81078Y-50423D01*
X81021Y-50385D01*
X80992Y-50347D01*
X80964Y-50271D01*
X80964Y-50195D01*
X80992Y-50119D01*
X81021Y-50080D01*
X81078Y-50042D01*
X81192Y-50004D01*
X81250Y-49966D01*
X81278Y-49928D01*
X81307Y-49852D01*
X81307Y-49776D01*
X81278Y-49700D01*
X81250Y-49661D01*
X81192Y-49623D01*
X81050Y-49623D01*
X80964Y-49661D01*
X80792Y-49890D02*
X80564Y-49890D01*
X80707Y-49623D02*
X80707Y-50309D01*
X80678Y-50385D01*
X80621Y-50423D01*
X80564Y-50423D01*
X80135Y-50385D02*
X80192Y-50423D01*
X80307Y-50423D01*
X80364Y-50385D01*
X80392Y-50309D01*
X80392Y-50004D01*
X80364Y-49928D01*
X80307Y-49890D01*
X80192Y-49890D01*
X80135Y-49928D01*
X80107Y-50004D01*
X80107Y-50080D01*
X80392Y-50157D01*
X79907Y-49890D02*
X79764Y-50423D01*
X79621Y-49890D01*
X79164Y-50385D02*
X79221Y-50423D01*
X79335Y-50423D01*
X79392Y-50385D01*
X79421Y-50309D01*
X79421Y-50004D01*
X79392Y-49928D01*
X79335Y-49890D01*
X79221Y-49890D01*
X79164Y-49928D01*
X79135Y-50004D01*
X79135Y-50080D01*
X79421Y-50157D01*
X78878Y-49890D02*
X78878Y-50423D01*
X78878Y-49966D02*
X78849Y-49928D01*
X78792Y-49890D01*
X78707Y-49890D01*
X78649Y-49928D01*
X78621Y-50004D01*
X78621Y-50423D01*
X82078Y-51587D02*
X82107Y-51625D01*
X82192Y-51663D01*
X82249Y-51663D01*
X82335Y-51625D01*
X82392Y-51549D01*
X82421Y-51473D01*
X82449Y-51320D01*
X82449Y-51206D01*
X82421Y-51054D01*
X82392Y-50978D01*
X82335Y-50901D01*
X82249Y-50863D01*
X82192Y-50863D01*
X82107Y-50901D01*
X82078Y-50940D01*
X81564Y-51663D02*
X81564Y-51244D01*
X81592Y-51168D01*
X81649Y-51130D01*
X81764Y-51130D01*
X81821Y-51168D01*
X81564Y-51625D02*
X81621Y-51663D01*
X81764Y-51663D01*
X81821Y-51625D01*
X81849Y-51549D01*
X81849Y-51473D01*
X81821Y-51397D01*
X81764Y-51359D01*
X81621Y-51359D01*
X81564Y-51320D01*
X81307Y-51625D02*
X81249Y-51663D01*
X81135Y-51663D01*
X81078Y-51625D01*
X81049Y-51549D01*
X81049Y-51511D01*
X81078Y-51435D01*
X81135Y-51397D01*
X81221Y-51397D01*
X81278Y-51359D01*
X81307Y-51282D01*
X81307Y-51244D01*
X81278Y-51168D01*
X81221Y-51130D01*
X81135Y-51130D01*
X81078Y-51168D01*
X80535Y-51663D02*
X80535Y-51244D01*
X80564Y-51168D01*
X80621Y-51130D01*
X80735Y-51130D01*
X80792Y-51168D01*
X80535Y-51625D02*
X80592Y-51663D01*
X80735Y-51663D01*
X80792Y-51625D01*
X80821Y-51549D01*
X80821Y-51473D01*
X80792Y-51397D01*
X80735Y-51359D01*
X80592Y-51359D01*
X80535Y-51320D01*
X79992Y-51130D02*
X79992Y-51778D01*
X80021Y-51854D01*
X80050Y-51892D01*
X80107Y-51930D01*
X80192Y-51930D01*
X80250Y-51892D01*
X79992Y-51625D02*
X80050Y-51663D01*
X80164Y-51663D01*
X80221Y-51625D01*
X80250Y-51587D01*
X80278Y-51511D01*
X80278Y-51282D01*
X80250Y-51206D01*
X80221Y-51168D01*
X80164Y-51130D01*
X80050Y-51130D01*
X79992Y-51168D01*
X79707Y-51663D02*
X79707Y-51130D01*
X79707Y-51282D02*
X79678Y-51206D01*
X79650Y-51168D01*
X79592Y-51130D01*
X79535Y-51130D01*
X79078Y-51663D02*
X79078Y-51244D01*
X79107Y-51168D01*
X79164Y-51130D01*
X79278Y-51130D01*
X79335Y-51168D01*
X79078Y-51625D02*
X79135Y-51663D01*
X79278Y-51663D01*
X79335Y-51625D01*
X79364Y-51549D01*
X79364Y-51473D01*
X79335Y-51397D01*
X79278Y-51359D01*
X79135Y-51359D01*
X79078Y-51320D01*
X78792Y-51130D02*
X78792Y-51663D01*
X78792Y-51206D02*
X78764Y-51168D01*
X78707Y-51130D01*
X78621Y-51130D01*
X78564Y-51168D01*
X78535Y-51244D01*
X78535Y-51663D01*
X77992Y-51663D02*
X77992Y-50863D01*
X77992Y-51625D02*
X78050Y-51663D01*
X78164Y-51663D01*
X78221Y-51625D01*
X78250Y-51587D01*
X78278Y-51511D01*
X78278Y-51282D01*
X78250Y-51206D01*
X78221Y-51168D01*
X78164Y-51130D01*
X78050Y-51130D01*
X77992Y-51168D01*
X77478Y-51625D02*
X77535Y-51663D01*
X77650Y-51663D01*
X77707Y-51625D01*
X77735Y-51549D01*
X77735Y-51244D01*
X77707Y-51168D01*
X77650Y-51130D01*
X77535Y-51130D01*
X77478Y-51168D01*
X77450Y-51244D01*
X77450Y-51320D01*
X77735Y-51397D01*
X78385Y-46550D02*
X78357Y-46511D01*
X78300Y-46473D01*
X78157Y-46473D01*
X78100Y-46511D01*
X78071Y-46550D01*
X78042Y-46626D01*
X78042Y-46702D01*
X78071Y-46816D01*
X78414Y-47273D01*
X78042Y-47273D01*
X77671Y-46473D02*
X77614Y-46473D01*
X77557Y-46511D01*
X77528Y-46550D01*
X77500Y-46626D01*
X77471Y-46778D01*
X77471Y-46969D01*
X77500Y-47121D01*
X77528Y-47197D01*
X77557Y-47235D01*
X77614Y-47273D01*
X77671Y-47273D01*
X77728Y-47235D01*
X77757Y-47197D01*
X77785Y-47121D01*
X77814Y-46969D01*
X77814Y-46778D01*
X77785Y-46626D01*
X77757Y-46550D01*
X77728Y-46511D01*
X77671Y-46473D01*
X76900Y-47273D02*
X77242Y-47273D01*
X77071Y-47273D02*
X77071Y-46473D01*
X77128Y-46588D01*
X77185Y-46664D01*
X77242Y-46702D01*
X76700Y-46473D02*
X76328Y-46473D01*
X76528Y-46778D01*
X76442Y-46778D01*
X76385Y-46816D01*
X76357Y-46854D01*
X76328Y-46930D01*
X76328Y-47121D01*
X76357Y-47197D01*
X76385Y-47235D01*
X76442Y-47273D01*
X76614Y-47273D01*
X76671Y-47235D01*
X76700Y-47197D01*
X75614Y-47273D02*
X75614Y-46740D01*
X75614Y-46892D02*
X75585Y-46816D01*
X75557Y-46778D01*
X75499Y-46740D01*
X75442Y-46740D01*
X75014Y-47235D02*
X75071Y-47273D01*
X75185Y-47273D01*
X75242Y-47235D01*
X75271Y-47159D01*
X75271Y-46854D01*
X75242Y-46778D01*
X75185Y-46740D01*
X75071Y-46740D01*
X75014Y-46778D01*
X74985Y-46854D01*
X74985Y-46930D01*
X75271Y-47007D01*
X74785Y-46740D02*
X74642Y-47273D01*
X74499Y-46740D01*
X74299Y-47045D02*
X74014Y-47045D01*
X74357Y-47273D02*
X74157Y-46473D01*
X73957Y-47273D01*
X80192Y-44751D02*
X80249Y-44713D01*
X80335Y-44713D01*
X80421Y-44751D01*
X80478Y-44828D01*
X80507Y-44904D01*
X80535Y-45056D01*
X80535Y-45170D01*
X80507Y-45323D01*
X80478Y-45399D01*
X80421Y-45475D01*
X80335Y-45513D01*
X80278Y-45513D01*
X80192Y-45475D01*
X80164Y-45437D01*
X80164Y-45170D01*
X80278Y-45170D01*
X79649Y-45513D02*
X79649Y-45094D01*
X79678Y-45018D01*
X79735Y-44980D01*
X79849Y-44980D01*
X79907Y-45018D01*
X79649Y-45475D02*
X79707Y-45513D01*
X79849Y-45513D01*
X79907Y-45475D01*
X79935Y-45399D01*
X79935Y-45323D01*
X79907Y-45247D01*
X79849Y-45209D01*
X79707Y-45209D01*
X79649Y-45170D01*
X79278Y-45513D02*
X79335Y-45475D01*
X79364Y-45399D01*
X79364Y-44713D01*
X79107Y-44980D02*
X78964Y-45513D01*
X78821Y-44980D01*
X78335Y-45513D02*
X78335Y-45094D01*
X78364Y-45018D01*
X78421Y-44980D01*
X78535Y-44980D01*
X78592Y-45018D01*
X78335Y-45475D02*
X78392Y-45513D01*
X78535Y-45513D01*
X78592Y-45475D01*
X78621Y-45399D01*
X78621Y-45323D01*
X78592Y-45247D01*
X78535Y-45209D01*
X78392Y-45209D01*
X78335Y-45170D01*
X78049Y-44980D02*
X78049Y-45513D01*
X78049Y-45056D02*
X78021Y-45018D01*
X77964Y-44980D01*
X77878Y-44980D01*
X77821Y-45018D01*
X77792Y-45094D01*
X77792Y-45513D01*
X77592Y-44980D02*
X77364Y-44980D01*
X77507Y-44713D02*
X77507Y-45399D01*
X77478Y-45475D01*
X77421Y-45513D01*
X77364Y-45513D01*
X76707Y-45513D02*
X76707Y-44713D01*
X76421Y-44980D02*
X76421Y-45513D01*
X76421Y-45056D02*
X76392Y-45018D01*
X76335Y-44980D01*
X76249Y-44980D01*
X76192Y-45018D01*
X76164Y-45094D01*
X76164Y-45513D01*
X75621Y-45513D02*
X75621Y-44713D01*
X75621Y-45475D02*
X75678Y-45513D01*
X75792Y-45513D01*
X75849Y-45475D01*
X75878Y-45437D01*
X75907Y-45361D01*
X75907Y-45132D01*
X75878Y-45056D01*
X75849Y-45018D01*
X75792Y-44980D01*
X75678Y-44980D01*
X75621Y-45018D01*
X75078Y-44980D02*
X75078Y-45513D01*
X75335Y-44980D02*
X75335Y-45399D01*
X75307Y-45475D01*
X75250Y-45513D01*
X75164Y-45513D01*
X75107Y-45475D01*
X75078Y-45437D01*
X74821Y-45475D02*
X74764Y-45513D01*
X74650Y-45513D01*
X74592Y-45475D01*
X74564Y-45399D01*
X74564Y-45361D01*
X74592Y-45285D01*
X74650Y-45247D01*
X74735Y-45247D01*
X74792Y-45209D01*
X74821Y-45132D01*
X74821Y-45094D01*
X74792Y-45018D01*
X74735Y-44980D01*
X74650Y-44980D01*
X74592Y-45018D01*
X74392Y-44980D02*
X74164Y-44980D01*
X74307Y-44713D02*
X74307Y-45399D01*
X74278Y-45475D01*
X74221Y-45513D01*
X74164Y-45513D01*
X73964Y-45513D02*
X73964Y-44980D01*
X73964Y-45132D02*
X73935Y-45056D01*
X73907Y-45018D01*
X73850Y-44980D01*
X73792Y-44980D01*
X73592Y-45513D02*
X73592Y-44980D01*
X73592Y-44713D02*
X73621Y-44751D01*
X73592Y-44790D01*
X73564Y-44751D01*
X73592Y-44713D01*
X73592Y-44790D01*
X73078Y-45475D02*
X73135Y-45513D01*
X73250Y-45513D01*
X73307Y-45475D01*
X73335Y-45399D01*
X73335Y-45094D01*
X73307Y-45018D01*
X73250Y-44980D01*
X73135Y-44980D01*
X73078Y-45018D01*
X73050Y-45094D01*
X73050Y-45170D01*
X73335Y-45247D01*
X72821Y-45475D02*
X72764Y-45513D01*
X72650Y-45513D01*
X72592Y-45475D01*
X72564Y-45399D01*
X72564Y-45361D01*
X72592Y-45285D01*
X72650Y-45247D01*
X72735Y-45247D01*
X72792Y-45209D01*
X72821Y-45132D01*
X72821Y-45094D01*
X72792Y-45018D01*
X72735Y-44980D01*
X72650Y-44980D01*
X72592Y-45018D01*
X79501Y-43633D02*
X79501Y-44281D01*
X79472Y-44357D01*
X79444Y-44395D01*
X79387Y-44433D01*
X79272Y-44433D01*
X79215Y-44395D01*
X79187Y-44357D01*
X79158Y-44281D01*
X79158Y-43633D01*
X78901Y-44395D02*
X78815Y-44433D01*
X78672Y-44433D01*
X78615Y-44395D01*
X78587Y-44357D01*
X78558Y-44281D01*
X78558Y-44205D01*
X78587Y-44129D01*
X78615Y-44090D01*
X78672Y-44052D01*
X78787Y-44014D01*
X78844Y-43976D01*
X78872Y-43938D01*
X78901Y-43862D01*
X78901Y-43786D01*
X78872Y-43710D01*
X78844Y-43671D01*
X78787Y-43633D01*
X78644Y-43633D01*
X78558Y-43671D01*
X78101Y-44014D02*
X78015Y-44052D01*
X77987Y-44090D01*
X77958Y-44167D01*
X77958Y-44281D01*
X77987Y-44357D01*
X78015Y-44395D01*
X78072Y-44433D01*
X78301Y-44433D01*
X78301Y-43633D01*
X78101Y-43633D01*
X78044Y-43671D01*
X78015Y-43710D01*
X77987Y-43786D01*
X77987Y-43862D01*
X78015Y-43938D01*
X78044Y-43976D01*
X78101Y-44014D01*
X78301Y-44014D01*
X77244Y-44433D02*
X77244Y-43633D01*
X76987Y-44395D02*
X76901Y-44433D01*
X76758Y-44433D01*
X76701Y-44395D01*
X76672Y-44357D01*
X76644Y-44281D01*
X76644Y-44205D01*
X76672Y-44129D01*
X76701Y-44090D01*
X76758Y-44052D01*
X76872Y-44014D01*
X76929Y-43976D01*
X76958Y-43938D01*
X76987Y-43862D01*
X76987Y-43786D01*
X76958Y-43710D01*
X76929Y-43671D01*
X76872Y-43633D01*
X76729Y-43633D01*
X76644Y-43671D01*
X76272Y-43633D02*
X76158Y-43633D01*
X76101Y-43671D01*
X76044Y-43748D01*
X76015Y-43900D01*
X76015Y-44167D01*
X76044Y-44319D01*
X76101Y-44395D01*
X76158Y-44433D01*
X76272Y-44433D01*
X76329Y-44395D01*
X76387Y-44319D01*
X76415Y-44167D01*
X76415Y-43900D01*
X76387Y-43748D01*
X76329Y-43671D01*
X76272Y-43633D01*
X75472Y-44433D02*
X75758Y-44433D01*
X75758Y-43633D01*
X75301Y-44205D02*
X75015Y-44205D01*
X75358Y-44433D02*
X75158Y-43633D01*
X74958Y-44433D01*
X74844Y-43633D02*
X74501Y-43633D01*
X74672Y-44433D02*
X74672Y-43633D01*
X74187Y-43633D02*
X74072Y-43633D01*
X74015Y-43671D01*
X73958Y-43748D01*
X73929Y-43900D01*
X73929Y-44167D01*
X73958Y-44319D01*
X74015Y-44395D01*
X74072Y-44433D01*
X74187Y-44433D01*
X74244Y-44395D01*
X74301Y-44319D01*
X74329Y-44167D01*
X74329Y-43900D01*
X74301Y-43748D01*
X74244Y-43671D01*
X74187Y-43633D01*
X73330Y-44433D02*
X73530Y-44052D01*
X73672Y-44433D02*
X73672Y-43633D01*
X73444Y-43633D01*
X73387Y-43671D01*
X73358Y-43710D01*
X73330Y-43786D01*
X73330Y-43900D01*
X73358Y-43976D01*
X73387Y-44014D01*
X73444Y-44052D01*
X73672Y-44052D01*
G54D12*
G36*
X69986Y-51684D02*
X69998Y-51678D01*
X70023Y-51662D01*
X70060Y-51638D01*
X70103Y-51609D01*
X70147Y-51579D01*
X70182Y-51555D01*
X70207Y-51539D01*
X70218Y-51534D01*
X70223Y-51536D01*
X70244Y-51546D01*
X70274Y-51561D01*
X70291Y-51570D01*
X70319Y-51582D01*
X70332Y-51584D01*
X70335Y-51581D01*
X70345Y-51560D01*
X70360Y-51524D01*
X70381Y-51476D01*
X70405Y-51421D01*
X70430Y-51361D01*
X70456Y-51300D01*
X70480Y-51241D01*
X70501Y-51189D01*
X70518Y-51146D01*
X70530Y-51117D01*
X70534Y-51104D01*
X70533Y-51101D01*
X70519Y-51088D01*
X70495Y-51070D01*
X70443Y-51028D01*
X70392Y-50964D01*
X70361Y-50891D01*
X70350Y-50811D01*
X70359Y-50736D01*
X70389Y-50664D01*
X70439Y-50600D01*
X70499Y-50552D01*
X70570Y-50521D01*
X70650Y-50512D01*
X70726Y-50520D01*
X70799Y-50549D01*
X70864Y-50598D01*
X70891Y-50630D01*
X70929Y-50695D01*
X70950Y-50765D01*
X70953Y-50783D01*
X70949Y-50860D01*
X70927Y-50933D01*
X70886Y-50999D01*
X70830Y-51053D01*
X70823Y-51059D01*
X70796Y-51078D01*
X70779Y-51092D01*
X70765Y-51103D01*
X70863Y-51339D01*
X70879Y-51376D01*
X70906Y-51441D01*
X70929Y-51496D01*
X70948Y-51540D01*
X70961Y-51570D01*
X70967Y-51582D01*
X70968Y-51582D01*
X70976Y-51584D01*
X70994Y-51577D01*
X71027Y-51561D01*
X71049Y-51550D01*
X71074Y-51538D01*
X71085Y-51534D01*
X71095Y-51539D01*
X71119Y-51554D01*
X71154Y-51578D01*
X71196Y-51607D01*
X71236Y-51634D01*
X71273Y-51658D01*
X71300Y-51675D01*
X71313Y-51682D01*
X71315Y-51682D01*
X71327Y-51676D01*
X71348Y-51658D01*
X71380Y-51628D01*
X71426Y-51583D01*
X71433Y-51576D01*
X71470Y-51538D01*
X71500Y-51506D01*
X71521Y-51484D01*
X71528Y-51473D01*
X71528Y-51473D01*
X71521Y-51460D01*
X71504Y-51434D01*
X71480Y-51396D01*
X71450Y-51352D01*
X71372Y-51239D01*
X71415Y-51132D01*
X71428Y-51099D01*
X71445Y-51059D01*
X71457Y-51031D01*
X71463Y-51018D01*
X71475Y-51014D01*
X71504Y-51007D01*
X71547Y-50998D01*
X71598Y-50989D01*
X71646Y-50980D01*
X71689Y-50972D01*
X71721Y-50966D01*
X71735Y-50963D01*
X71739Y-50961D01*
X71741Y-50954D01*
X71743Y-50939D01*
X71744Y-50913D01*
X71745Y-50871D01*
X71745Y-50811D01*
X71745Y-50804D01*
X71744Y-50746D01*
X71743Y-50701D01*
X71742Y-50671D01*
X71740Y-50659D01*
X71740Y-50659D01*
X71726Y-50656D01*
X71695Y-50649D01*
X71652Y-50641D01*
X71600Y-50631D01*
X71596Y-50630D01*
X71545Y-50620D01*
X71501Y-50611D01*
X71471Y-50604D01*
X71458Y-50600D01*
X71455Y-50596D01*
X71445Y-50576D01*
X71430Y-50544D01*
X71413Y-50505D01*
X71396Y-50464D01*
X71381Y-50428D01*
X71371Y-50400D01*
X71368Y-50388D01*
X71369Y-50388D01*
X71376Y-50375D01*
X71394Y-50348D01*
X71419Y-50311D01*
X71450Y-50267D01*
X71452Y-50264D01*
X71482Y-50220D01*
X71506Y-50183D01*
X71522Y-50156D01*
X71528Y-50144D01*
X71528Y-50144D01*
X71518Y-50131D01*
X71496Y-50106D01*
X71464Y-50072D01*
X71425Y-50034D01*
X71413Y-50022D01*
X71371Y-49980D01*
X71341Y-49953D01*
X71323Y-49938D01*
X71314Y-49935D01*
X71313Y-49935D01*
X71300Y-49943D01*
X71273Y-49961D01*
X71235Y-49987D01*
X71191Y-50017D01*
X71188Y-50019D01*
X71144Y-50049D01*
X71107Y-50074D01*
X71081Y-50091D01*
X71070Y-50098D01*
X71068Y-50098D01*
X71050Y-50092D01*
X71019Y-50081D01*
X70981Y-50067D01*
X70940Y-50050D01*
X70904Y-50035D01*
X70876Y-50022D01*
X70863Y-50015D01*
X70863Y-50014D01*
X70858Y-49999D01*
X70850Y-49966D01*
X70841Y-49921D01*
X70831Y-49867D01*
X70829Y-49858D01*
X70819Y-49806D01*
X70811Y-49763D01*
X70805Y-49733D01*
X70802Y-49721D01*
X70794Y-49719D01*
X70769Y-49717D01*
X70730Y-49716D01*
X70683Y-49716D01*
X70634Y-49716D01*
X70585Y-49717D01*
X70544Y-49719D01*
X70514Y-49721D01*
X70502Y-49723D01*
X70502Y-49724D01*
X70497Y-49740D01*
X70490Y-49773D01*
X70481Y-49818D01*
X70470Y-49872D01*
X70468Y-49882D01*
X70459Y-49934D01*
X70450Y-49976D01*
X70444Y-50006D01*
X70440Y-50017D01*
X70436Y-50020D01*
X70414Y-50029D01*
X70379Y-50044D01*
X70336Y-50061D01*
X70236Y-50102D01*
X70113Y-50017D01*
X70101Y-50010D01*
X70057Y-49980D01*
X70021Y-49955D01*
X69996Y-49939D01*
X69985Y-49933D01*
X69984Y-49934D01*
X69972Y-49944D01*
X69948Y-49967D01*
X69914Y-50000D01*
X69876Y-50038D01*
X69847Y-50067D01*
X69813Y-50101D01*
X69792Y-50124D01*
X69780Y-50139D01*
X69776Y-50148D01*
X69777Y-50154D01*
X69785Y-50167D01*
X69803Y-50194D01*
X69828Y-50231D01*
X69858Y-50275D01*
X69883Y-50311D01*
X69909Y-50352D01*
X69927Y-50382D01*
X69933Y-50396D01*
X69931Y-50402D01*
X69923Y-50426D01*
X69908Y-50463D01*
X69890Y-50506D01*
X69847Y-50603D01*
X69783Y-50616D01*
X69744Y-50623D01*
X69690Y-50633D01*
X69639Y-50643D01*
X69558Y-50659D01*
X69555Y-50955D01*
X69567Y-50961D01*
X69579Y-50964D01*
X69609Y-50971D01*
X69652Y-50979D01*
X69702Y-50989D01*
X69745Y-50997D01*
X69789Y-51005D01*
X69820Y-51011D01*
X69834Y-51014D01*
X69837Y-51018D01*
X69848Y-51039D01*
X69863Y-51073D01*
X69880Y-51113D01*
X69898Y-51154D01*
X69913Y-51193D01*
X69924Y-51222D01*
X69928Y-51237D01*
X69922Y-51248D01*
X69905Y-51274D01*
X69881Y-51310D01*
X69852Y-51353D01*
X69823Y-51396D01*
X69798Y-51433D01*
X69781Y-51459D01*
X69773Y-51471D01*
X69777Y-51480D01*
X69794Y-51500D01*
X69827Y-51534D01*
X69875Y-51582D01*
X69883Y-51589D01*
X69921Y-51626D01*
X69954Y-51656D01*
X69976Y-51676D01*
X69986Y-51684D01*
X69986Y-51684D01*
G37*
M02*
