G04 (created by PCBNEW (2012-nov-02)-testing) date Wed 06 Feb 2013 10:53:48 PM EST*
%MOIN*%
G04 Gerber Fmt 3.4, Leading zero omitted, Abs format*
%FSLAX34Y34*%
G01*
G70*
G90*
G04 APERTURE LIST*
%ADD10C,2.3622e-06*%
%ADD11C,0.012*%
%ADD12C,0.008*%
%ADD13C,0.005*%
G04 APERTURE END LIST*
G54D10*
G54D11*
X79221Y-41719D02*
X79678Y-41719D01*
X79450Y-42023D02*
X79450Y-41414D01*
X72121Y-40369D02*
X72578Y-40369D01*
X72350Y-40673D02*
X72350Y-40064D01*
G54D12*
X74700Y-45500D02*
X77850Y-45500D01*
X77850Y-49800D02*
X74700Y-49800D01*
X77850Y-45500D02*
X77850Y-49800D01*
X74700Y-49800D02*
X74700Y-45500D01*
X76450Y-45500D02*
X76450Y-45800D01*
X76450Y-45800D02*
X76050Y-45800D01*
X76050Y-45800D02*
X76050Y-45500D01*
G54D13*
X71450Y-47975D02*
X72350Y-47975D01*
X72350Y-47975D02*
X72350Y-47325D01*
X71450Y-46625D02*
X71450Y-45975D01*
X71450Y-45975D02*
X72350Y-45975D01*
X72350Y-45975D02*
X72350Y-46625D01*
X71450Y-47325D02*
X71450Y-47975D01*
X76425Y-36700D02*
X76425Y-37600D01*
X76425Y-37600D02*
X77075Y-37600D01*
X77775Y-36700D02*
X78425Y-36700D01*
X78425Y-36700D02*
X78425Y-37600D01*
X78425Y-37600D02*
X77775Y-37600D01*
X77075Y-36700D02*
X76425Y-36700D01*
X75075Y-38525D02*
X75975Y-38525D01*
X75975Y-38525D02*
X75975Y-37875D01*
X75075Y-37175D02*
X75075Y-36525D01*
X75075Y-36525D02*
X75975Y-36525D01*
X75975Y-36525D02*
X75975Y-37175D01*
X75075Y-37875D02*
X75075Y-38525D01*
X80150Y-36700D02*
X79250Y-36700D01*
X79250Y-36700D02*
X79250Y-37350D01*
X80150Y-38050D02*
X80150Y-38700D01*
X80150Y-38700D02*
X79250Y-38700D01*
X79250Y-38700D02*
X79250Y-38050D01*
X80150Y-37350D02*
X80150Y-36700D01*
X79910Y-51460D02*
X80810Y-51460D01*
X80810Y-51460D02*
X80810Y-50810D01*
X79910Y-50110D02*
X79910Y-49460D01*
X79910Y-49460D02*
X80810Y-49460D01*
X80810Y-49460D02*
X80810Y-50110D01*
X79910Y-50810D02*
X79910Y-51460D01*
X82160Y-40870D02*
X82160Y-41770D01*
X82160Y-41770D02*
X82810Y-41770D01*
X83510Y-40870D02*
X84160Y-40870D01*
X84160Y-40870D02*
X84160Y-41770D01*
X84160Y-41770D02*
X83510Y-41770D01*
X82810Y-40870D02*
X82160Y-40870D01*
X71250Y-38700D02*
X72150Y-38700D01*
X72150Y-38700D02*
X72150Y-38050D01*
X71250Y-37350D02*
X71250Y-36700D01*
X71250Y-36700D02*
X72150Y-36700D01*
X72150Y-36700D02*
X72150Y-37350D01*
X71250Y-38050D02*
X71250Y-38700D01*
X78570Y-52140D02*
X79470Y-52140D01*
X79470Y-52140D02*
X79470Y-51490D01*
X78570Y-50790D02*
X78570Y-50140D01*
X78570Y-50140D02*
X79470Y-50140D01*
X79470Y-50140D02*
X79470Y-50790D01*
X78570Y-51490D02*
X78570Y-52140D01*
X79900Y-41950D02*
X79900Y-42850D01*
X79900Y-42850D02*
X80550Y-42850D01*
X81250Y-41950D02*
X81900Y-41950D01*
X81900Y-41950D02*
X81900Y-42850D01*
X81900Y-42850D02*
X81250Y-42850D01*
X80550Y-41950D02*
X79900Y-41950D01*
X72625Y-43725D02*
X71725Y-43725D01*
X71725Y-43725D02*
X71725Y-44375D01*
X72625Y-45075D02*
X72625Y-45725D01*
X72625Y-45725D02*
X71725Y-45725D01*
X71725Y-45725D02*
X71725Y-45075D01*
X72625Y-44375D02*
X72625Y-43725D01*
X79900Y-43125D02*
X79900Y-44025D01*
X79900Y-44025D02*
X80550Y-44025D01*
X81250Y-43125D02*
X81900Y-43125D01*
X81900Y-43125D02*
X81900Y-44025D01*
X81900Y-44025D02*
X81250Y-44025D01*
X80550Y-43125D02*
X79900Y-43125D01*
X81925Y-47125D02*
X81025Y-47125D01*
X81025Y-47125D02*
X81025Y-47775D01*
X81925Y-48475D02*
X81925Y-49125D01*
X81925Y-49125D02*
X81025Y-49125D01*
X81025Y-49125D02*
X81025Y-48475D01*
X81925Y-47775D02*
X81925Y-47125D01*
X82975Y-50625D02*
X82075Y-50625D01*
X82075Y-50625D02*
X82075Y-51275D01*
X82975Y-51975D02*
X82975Y-52625D01*
X82975Y-52625D02*
X82075Y-52625D01*
X82075Y-52625D02*
X82075Y-51975D01*
X82975Y-51275D02*
X82975Y-50625D01*
X84400Y-50225D02*
X84400Y-49325D01*
X84400Y-49325D02*
X83750Y-49325D01*
X83050Y-50225D02*
X82400Y-50225D01*
X82400Y-50225D02*
X82400Y-49325D01*
X82400Y-49325D02*
X83050Y-49325D01*
X83750Y-50225D02*
X84400Y-50225D01*
X72650Y-43400D02*
X72650Y-42500D01*
X72650Y-42500D02*
X72000Y-42500D01*
X71300Y-43400D02*
X70650Y-43400D01*
X70650Y-43400D02*
X70650Y-42500D01*
X70650Y-42500D02*
X71300Y-42500D01*
X72000Y-43400D02*
X72650Y-43400D01*
X70050Y-41100D02*
X70050Y-42000D01*
X70050Y-42000D02*
X70700Y-42000D01*
X71400Y-41100D02*
X72050Y-41100D01*
X72050Y-41100D02*
X72050Y-42000D01*
X72050Y-42000D02*
X71400Y-42000D01*
X70700Y-41100D02*
X70050Y-41100D01*
X68650Y-39650D02*
X68650Y-40550D01*
X68650Y-40550D02*
X69300Y-40550D01*
X70000Y-39650D02*
X70650Y-39650D01*
X70650Y-39650D02*
X70650Y-40550D01*
X70650Y-40550D02*
X70000Y-40550D01*
X69300Y-39650D02*
X68650Y-39650D01*
X68650Y-38150D02*
X68650Y-39050D01*
X68650Y-39050D02*
X69300Y-39050D01*
X70000Y-38150D02*
X70650Y-38150D01*
X70650Y-38150D02*
X70650Y-39050D01*
X70650Y-39050D02*
X70000Y-39050D01*
X69300Y-38150D02*
X68650Y-38150D01*
X79925Y-45700D02*
X79925Y-46600D01*
X79925Y-46600D02*
X80575Y-46600D01*
X81275Y-45700D02*
X81925Y-45700D01*
X81925Y-45700D02*
X81925Y-46600D01*
X81925Y-46600D02*
X81275Y-46600D01*
X80575Y-45700D02*
X79925Y-45700D01*
X79900Y-44450D02*
X79900Y-45350D01*
X79900Y-45350D02*
X80550Y-45350D01*
X81250Y-44450D02*
X81900Y-44450D01*
X81900Y-44450D02*
X81900Y-45350D01*
X81900Y-45350D02*
X81250Y-45350D01*
X80550Y-44450D02*
X79900Y-44450D01*
X68650Y-49550D02*
X68650Y-50450D01*
X68650Y-50450D02*
X69300Y-50450D01*
X70000Y-49550D02*
X70650Y-49550D01*
X70650Y-49550D02*
X70650Y-50450D01*
X70650Y-50450D02*
X70000Y-50450D01*
X69300Y-49550D02*
X68650Y-49550D01*
X69700Y-48250D02*
X69700Y-49150D01*
X69700Y-49150D02*
X70350Y-49150D01*
X71050Y-48250D02*
X71700Y-48250D01*
X71700Y-48250D02*
X71700Y-49150D01*
X71700Y-49150D02*
X71050Y-49150D01*
X70350Y-48250D02*
X69700Y-48250D01*
X76875Y-39375D02*
X76875Y-38125D01*
X76875Y-38125D02*
X76175Y-38125D01*
X76175Y-38125D02*
X76175Y-39375D01*
X78675Y-39375D02*
X78675Y-38125D01*
X78675Y-38125D02*
X77975Y-38125D01*
X77975Y-38125D02*
X77975Y-39375D01*
X76075Y-41775D02*
X76075Y-39375D01*
X76075Y-39375D02*
X78775Y-39375D01*
X78775Y-39375D02*
X78775Y-42475D01*
X78775Y-42525D02*
X76075Y-42525D01*
X76075Y-42475D02*
X76075Y-41775D01*
X73450Y-46000D02*
X72550Y-46000D01*
X72550Y-46000D02*
X72550Y-46650D01*
X73450Y-47350D02*
X73450Y-48000D01*
X73450Y-48000D02*
X72550Y-48000D01*
X72550Y-48000D02*
X72550Y-47350D01*
X73450Y-46650D02*
X73450Y-46000D01*
X79600Y-43250D02*
X78700Y-43250D01*
X78700Y-43250D02*
X78700Y-43900D01*
X79600Y-44600D02*
X79600Y-45250D01*
X79600Y-45250D02*
X78700Y-45250D01*
X78700Y-45250D02*
X78700Y-44600D01*
X79600Y-43900D02*
X79600Y-43250D01*
X76302Y-48130D02*
X76707Y-48130D01*
X76754Y-48107D01*
X76778Y-48083D01*
X76802Y-48035D01*
X76802Y-47940D01*
X76778Y-47892D01*
X76754Y-47869D01*
X76707Y-47845D01*
X76302Y-47845D01*
X76802Y-47345D02*
X76802Y-47630D01*
X76802Y-47488D02*
X76302Y-47488D01*
X76373Y-47535D01*
X76421Y-47583D01*
X76445Y-47630D01*
X75409Y-49569D02*
X75409Y-49330D01*
X75552Y-49616D02*
X75052Y-49450D01*
X75552Y-49283D01*
X75552Y-49116D02*
X75052Y-49116D01*
X75052Y-48997D01*
X75076Y-48926D01*
X75123Y-48878D01*
X75171Y-48854D01*
X75266Y-48830D01*
X75338Y-48830D01*
X75433Y-48854D01*
X75480Y-48878D01*
X75528Y-48926D01*
X75552Y-48997D01*
X75552Y-49116D01*
X75052Y-48616D02*
X75457Y-48616D01*
X75504Y-48592D01*
X75528Y-48569D01*
X75552Y-48521D01*
X75552Y-48426D01*
X75528Y-48378D01*
X75504Y-48354D01*
X75457Y-48330D01*
X75052Y-48330D01*
X75552Y-48092D02*
X75052Y-48092D01*
X75409Y-47926D01*
X75052Y-47759D01*
X75552Y-47759D01*
X75219Y-47307D02*
X75552Y-47307D01*
X75028Y-47426D02*
X75385Y-47545D01*
X75385Y-47235D01*
X75552Y-46783D02*
X75552Y-47069D01*
X75552Y-46926D02*
X75052Y-46926D01*
X75123Y-46973D01*
X75171Y-47021D01*
X75195Y-47069D01*
X75052Y-46354D02*
X75052Y-46450D01*
X75076Y-46497D01*
X75100Y-46521D01*
X75171Y-46569D01*
X75266Y-46592D01*
X75457Y-46592D01*
X75504Y-46569D01*
X75528Y-46545D01*
X75552Y-46497D01*
X75552Y-46402D01*
X75528Y-46354D01*
X75504Y-46330D01*
X75457Y-46307D01*
X75338Y-46307D01*
X75290Y-46330D01*
X75266Y-46354D01*
X75242Y-46402D01*
X75242Y-46497D01*
X75266Y-46545D01*
X75290Y-46569D01*
X75338Y-46592D01*
X75052Y-45997D02*
X75052Y-45950D01*
X75076Y-45902D01*
X75100Y-45878D01*
X75147Y-45854D01*
X75242Y-45830D01*
X75361Y-45830D01*
X75457Y-45854D01*
X75504Y-45878D01*
X75528Y-45902D01*
X75552Y-45950D01*
X75552Y-45997D01*
X75528Y-46045D01*
X75504Y-46069D01*
X75457Y-46092D01*
X75361Y-46116D01*
X75242Y-46116D01*
X75147Y-46092D01*
X75100Y-46069D01*
X75076Y-46045D01*
X75052Y-45997D01*
X71217Y-47550D02*
X71232Y-47564D01*
X71246Y-47607D01*
X71246Y-47635D01*
X71232Y-47678D01*
X71203Y-47707D01*
X71175Y-47721D01*
X71117Y-47735D01*
X71075Y-47735D01*
X71017Y-47721D01*
X70989Y-47707D01*
X70960Y-47678D01*
X70946Y-47635D01*
X70946Y-47607D01*
X70960Y-47564D01*
X70975Y-47550D01*
X70975Y-47435D02*
X70960Y-47421D01*
X70946Y-47392D01*
X70946Y-47321D01*
X70960Y-47292D01*
X70975Y-47278D01*
X71003Y-47264D01*
X71032Y-47264D01*
X71075Y-47278D01*
X71246Y-47450D01*
X71246Y-47264D01*
X77178Y-36446D02*
X77178Y-36146D01*
X77250Y-36146D01*
X77292Y-36160D01*
X77321Y-36189D01*
X77335Y-36217D01*
X77350Y-36275D01*
X77350Y-36317D01*
X77335Y-36375D01*
X77321Y-36403D01*
X77292Y-36432D01*
X77250Y-36446D01*
X77178Y-36446D01*
X77635Y-36446D02*
X77464Y-36446D01*
X77550Y-36446D02*
X77550Y-36146D01*
X77521Y-36189D01*
X77492Y-36217D01*
X77464Y-36232D01*
X76417Y-37575D02*
X76432Y-37589D01*
X76446Y-37632D01*
X76446Y-37660D01*
X76432Y-37703D01*
X76403Y-37732D01*
X76375Y-37746D01*
X76317Y-37760D01*
X76275Y-37760D01*
X76217Y-37746D01*
X76189Y-37732D01*
X76160Y-37703D01*
X76146Y-37660D01*
X76146Y-37632D01*
X76160Y-37589D01*
X76175Y-37575D01*
X76146Y-37303D02*
X76146Y-37446D01*
X76289Y-37460D01*
X76275Y-37446D01*
X76260Y-37417D01*
X76260Y-37346D01*
X76275Y-37317D01*
X76289Y-37303D01*
X76317Y-37289D01*
X76389Y-37289D01*
X76417Y-37303D01*
X76432Y-37317D01*
X76446Y-37346D01*
X76446Y-37417D01*
X76432Y-37446D01*
X76417Y-37460D01*
X79600Y-36392D02*
X79585Y-36407D01*
X79542Y-36421D01*
X79514Y-36421D01*
X79471Y-36407D01*
X79442Y-36378D01*
X79428Y-36350D01*
X79414Y-36292D01*
X79414Y-36250D01*
X79428Y-36192D01*
X79442Y-36164D01*
X79471Y-36135D01*
X79514Y-36121D01*
X79542Y-36121D01*
X79585Y-36135D01*
X79600Y-36150D01*
X79857Y-36221D02*
X79857Y-36421D01*
X79785Y-36107D02*
X79714Y-36321D01*
X79900Y-36321D01*
X80350Y-51921D02*
X80250Y-51778D01*
X80178Y-51921D02*
X80178Y-51621D01*
X80292Y-51621D01*
X80321Y-51635D01*
X80335Y-51650D01*
X80350Y-51678D01*
X80350Y-51721D01*
X80335Y-51750D01*
X80321Y-51764D01*
X80292Y-51778D01*
X80178Y-51778D01*
X80521Y-51750D02*
X80492Y-51735D01*
X80478Y-51721D01*
X80464Y-51692D01*
X80464Y-51678D01*
X80478Y-51650D01*
X80492Y-51635D01*
X80521Y-51621D01*
X80578Y-51621D01*
X80607Y-51635D01*
X80621Y-51650D01*
X80635Y-51678D01*
X80635Y-51692D01*
X80621Y-51721D01*
X80607Y-51735D01*
X80578Y-51750D01*
X80521Y-51750D01*
X80492Y-51764D01*
X80478Y-51778D01*
X80464Y-51807D01*
X80464Y-51864D01*
X80478Y-51892D01*
X80492Y-51907D01*
X80521Y-51921D01*
X80578Y-51921D01*
X80607Y-51907D01*
X80621Y-51892D01*
X80635Y-51864D01*
X80635Y-51807D01*
X80621Y-51778D01*
X80607Y-51764D01*
X80578Y-51750D01*
X84746Y-41350D02*
X84603Y-41450D01*
X84746Y-41521D02*
X84446Y-41521D01*
X84446Y-41407D01*
X84460Y-41378D01*
X84475Y-41364D01*
X84503Y-41350D01*
X84546Y-41350D01*
X84575Y-41364D01*
X84589Y-41378D01*
X84603Y-41407D01*
X84603Y-41521D01*
X84446Y-41250D02*
X84446Y-41064D01*
X84560Y-41164D01*
X84560Y-41121D01*
X84575Y-41092D01*
X84589Y-41078D01*
X84617Y-41064D01*
X84689Y-41064D01*
X84717Y-41078D01*
X84732Y-41092D01*
X84746Y-41121D01*
X84746Y-41207D01*
X84732Y-41235D01*
X84717Y-41250D01*
X71650Y-36396D02*
X71550Y-36253D01*
X71478Y-36396D02*
X71478Y-36096D01*
X71592Y-36096D01*
X71621Y-36110D01*
X71635Y-36125D01*
X71650Y-36153D01*
X71650Y-36196D01*
X71635Y-36225D01*
X71621Y-36239D01*
X71592Y-36253D01*
X71478Y-36253D01*
X71764Y-36125D02*
X71778Y-36110D01*
X71807Y-36096D01*
X71878Y-36096D01*
X71907Y-36110D01*
X71921Y-36125D01*
X71935Y-36153D01*
X71935Y-36182D01*
X71921Y-36225D01*
X71750Y-36396D01*
X71935Y-36396D01*
X78950Y-52617D02*
X78935Y-52632D01*
X78892Y-52646D01*
X78864Y-52646D01*
X78821Y-52632D01*
X78792Y-52603D01*
X78778Y-52575D01*
X78764Y-52517D01*
X78764Y-52475D01*
X78778Y-52417D01*
X78792Y-52389D01*
X78821Y-52360D01*
X78864Y-52346D01*
X78892Y-52346D01*
X78935Y-52360D01*
X78950Y-52375D01*
X79050Y-52346D02*
X79250Y-52346D01*
X79121Y-52646D01*
X79667Y-42400D02*
X79682Y-42414D01*
X79696Y-42457D01*
X79696Y-42485D01*
X79682Y-42528D01*
X79653Y-42557D01*
X79625Y-42571D01*
X79567Y-42585D01*
X79525Y-42585D01*
X79467Y-42571D01*
X79439Y-42557D01*
X79410Y-42528D01*
X79396Y-42485D01*
X79396Y-42457D01*
X79410Y-42414D01*
X79425Y-42400D01*
X79396Y-42142D02*
X79396Y-42200D01*
X79410Y-42228D01*
X79425Y-42242D01*
X79467Y-42271D01*
X79525Y-42285D01*
X79639Y-42285D01*
X79667Y-42271D01*
X79682Y-42257D01*
X79696Y-42228D01*
X79696Y-42171D01*
X79682Y-42142D01*
X79667Y-42128D01*
X79639Y-42114D01*
X79567Y-42114D01*
X79539Y-42128D01*
X79525Y-42142D01*
X79510Y-42171D01*
X79510Y-42228D01*
X79525Y-42257D01*
X79539Y-42271D01*
X79567Y-42285D01*
X73142Y-44775D02*
X73157Y-44789D01*
X73171Y-44832D01*
X73171Y-44860D01*
X73157Y-44903D01*
X73128Y-44932D01*
X73100Y-44946D01*
X73042Y-44960D01*
X73000Y-44960D01*
X72942Y-44946D01*
X72914Y-44932D01*
X72885Y-44903D01*
X72871Y-44860D01*
X72871Y-44832D01*
X72885Y-44789D01*
X72900Y-44775D01*
X72871Y-44675D02*
X72871Y-44489D01*
X72985Y-44589D01*
X72985Y-44546D01*
X73000Y-44517D01*
X73014Y-44503D01*
X73042Y-44489D01*
X73114Y-44489D01*
X73142Y-44503D01*
X73157Y-44517D01*
X73171Y-44546D01*
X73171Y-44632D01*
X73157Y-44660D01*
X73142Y-44675D01*
X81046Y-43624D02*
X81046Y-43767D01*
X80746Y-43767D01*
X80746Y-43553D02*
X80746Y-43367D01*
X80860Y-43467D01*
X80860Y-43424D01*
X80875Y-43396D01*
X80889Y-43382D01*
X80917Y-43367D01*
X80989Y-43367D01*
X81017Y-43382D01*
X81032Y-43396D01*
X81046Y-43424D01*
X81046Y-43510D01*
X81032Y-43539D01*
X81017Y-43553D01*
X80721Y-48149D02*
X80721Y-48292D01*
X80421Y-48292D01*
X80521Y-47921D02*
X80721Y-47921D01*
X80407Y-47992D02*
X80621Y-48064D01*
X80621Y-47878D01*
X82475Y-51717D02*
X82460Y-51732D01*
X82417Y-51746D01*
X82389Y-51746D01*
X82346Y-51732D01*
X82317Y-51703D01*
X82303Y-51675D01*
X82289Y-51617D01*
X82289Y-51575D01*
X82303Y-51517D01*
X82317Y-51489D01*
X82346Y-51460D01*
X82389Y-51446D01*
X82417Y-51446D01*
X82460Y-51460D01*
X82475Y-51475D01*
X82646Y-51575D02*
X82617Y-51560D01*
X82603Y-51546D01*
X82589Y-51517D01*
X82589Y-51503D01*
X82603Y-51475D01*
X82617Y-51460D01*
X82646Y-51446D01*
X82703Y-51446D01*
X82732Y-51460D01*
X82746Y-51475D01*
X82760Y-51503D01*
X82760Y-51517D01*
X82746Y-51546D01*
X82732Y-51560D01*
X82703Y-51575D01*
X82646Y-51575D01*
X82617Y-51589D01*
X82603Y-51603D01*
X82589Y-51632D01*
X82589Y-51689D01*
X82603Y-51717D01*
X82617Y-51732D01*
X82646Y-51746D01*
X82703Y-51746D01*
X82732Y-51732D01*
X82746Y-51717D01*
X82760Y-51689D01*
X82760Y-51632D01*
X82746Y-51603D01*
X82732Y-51589D01*
X82703Y-51575D01*
X83521Y-49825D02*
X83378Y-49925D01*
X83521Y-49996D02*
X83221Y-49996D01*
X83221Y-49882D01*
X83235Y-49853D01*
X83250Y-49839D01*
X83278Y-49825D01*
X83321Y-49825D01*
X83350Y-49839D01*
X83364Y-49853D01*
X83378Y-49882D01*
X83378Y-49996D01*
X83521Y-49682D02*
X83521Y-49625D01*
X83507Y-49596D01*
X83492Y-49582D01*
X83450Y-49553D01*
X83392Y-49539D01*
X83278Y-49539D01*
X83250Y-49553D01*
X83235Y-49567D01*
X83221Y-49596D01*
X83221Y-49653D01*
X83235Y-49682D01*
X83250Y-49696D01*
X83278Y-49710D01*
X83350Y-49710D01*
X83378Y-49696D01*
X83392Y-49682D01*
X83407Y-49653D01*
X83407Y-49596D01*
X83392Y-49567D01*
X83378Y-49553D01*
X83350Y-49539D01*
X71600Y-43071D02*
X71457Y-43071D01*
X71457Y-42771D01*
X71857Y-43071D02*
X71685Y-43071D01*
X71771Y-43071D02*
X71771Y-42771D01*
X71742Y-42814D01*
X71714Y-42842D01*
X71685Y-42857D01*
X72525Y-41696D02*
X72382Y-41696D01*
X72382Y-41396D01*
X72610Y-41425D02*
X72625Y-41410D01*
X72653Y-41396D01*
X72725Y-41396D01*
X72753Y-41410D01*
X72767Y-41425D01*
X72782Y-41453D01*
X72782Y-41482D01*
X72767Y-41525D01*
X72596Y-41696D01*
X72782Y-41696D01*
X68950Y-41067D02*
X68935Y-41082D01*
X68892Y-41096D01*
X68864Y-41096D01*
X68821Y-41082D01*
X68792Y-41053D01*
X68778Y-41025D01*
X68764Y-40967D01*
X68764Y-40925D01*
X68778Y-40867D01*
X68792Y-40839D01*
X68821Y-40810D01*
X68864Y-40796D01*
X68892Y-40796D01*
X68935Y-40810D01*
X68950Y-40825D01*
X69235Y-41096D02*
X69064Y-41096D01*
X69150Y-41096D02*
X69150Y-40796D01*
X69121Y-40839D01*
X69092Y-40867D01*
X69064Y-40882D01*
X69600Y-37846D02*
X69500Y-37703D01*
X69428Y-37846D02*
X69428Y-37546D01*
X69542Y-37546D01*
X69571Y-37560D01*
X69585Y-37575D01*
X69600Y-37603D01*
X69600Y-37646D01*
X69585Y-37675D01*
X69571Y-37689D01*
X69542Y-37703D01*
X69428Y-37703D01*
X69885Y-37846D02*
X69714Y-37846D01*
X69800Y-37846D02*
X69800Y-37546D01*
X69771Y-37589D01*
X69742Y-37617D01*
X69714Y-37632D01*
X80125Y-47096D02*
X80025Y-46953D01*
X79953Y-47096D02*
X79953Y-46796D01*
X80067Y-46796D01*
X80096Y-46810D01*
X80110Y-46825D01*
X80125Y-46853D01*
X80125Y-46896D01*
X80110Y-46925D01*
X80096Y-46939D01*
X80067Y-46953D01*
X79953Y-46953D01*
X80225Y-46796D02*
X80425Y-46796D01*
X80296Y-47096D01*
X81021Y-44950D02*
X80878Y-45050D01*
X81021Y-45121D02*
X80721Y-45121D01*
X80721Y-45007D01*
X80735Y-44978D01*
X80750Y-44964D01*
X80778Y-44950D01*
X80821Y-44950D01*
X80850Y-44964D01*
X80864Y-44978D01*
X80878Y-45007D01*
X80878Y-45121D01*
X80721Y-44692D02*
X80721Y-44750D01*
X80735Y-44778D01*
X80750Y-44792D01*
X80792Y-44821D01*
X80850Y-44835D01*
X80964Y-44835D01*
X80992Y-44821D01*
X81007Y-44807D01*
X81021Y-44778D01*
X81021Y-44721D01*
X81007Y-44692D01*
X80992Y-44678D01*
X80964Y-44664D01*
X80892Y-44664D01*
X80864Y-44678D01*
X80850Y-44692D01*
X80835Y-44721D01*
X80835Y-44778D01*
X80850Y-44807D01*
X80864Y-44821D01*
X80892Y-44835D01*
X69600Y-51021D02*
X69500Y-50878D01*
X69428Y-51021D02*
X69428Y-50721D01*
X69542Y-50721D01*
X69571Y-50735D01*
X69585Y-50750D01*
X69600Y-50778D01*
X69600Y-50821D01*
X69585Y-50850D01*
X69571Y-50864D01*
X69542Y-50878D01*
X69428Y-50878D01*
X69871Y-50721D02*
X69728Y-50721D01*
X69714Y-50864D01*
X69728Y-50850D01*
X69757Y-50835D01*
X69828Y-50835D01*
X69857Y-50850D01*
X69871Y-50864D01*
X69885Y-50892D01*
X69885Y-50964D01*
X69871Y-50992D01*
X69857Y-51007D01*
X69828Y-51021D01*
X69757Y-51021D01*
X69728Y-51007D01*
X69714Y-50992D01*
X72025Y-49146D02*
X71925Y-49003D01*
X71853Y-49146D02*
X71853Y-48846D01*
X71967Y-48846D01*
X71996Y-48860D01*
X72010Y-48875D01*
X72025Y-48903D01*
X72025Y-48946D01*
X72010Y-48975D01*
X71996Y-48989D01*
X71967Y-49003D01*
X71853Y-49003D01*
X72282Y-48946D02*
X72282Y-49146D01*
X72210Y-48832D02*
X72139Y-49046D01*
X72325Y-49046D01*
G54D12*
X77120Y-42577D02*
X77120Y-42982D01*
X77139Y-43029D01*
X77158Y-43053D01*
X77196Y-43077D01*
X77272Y-43077D01*
X77310Y-43053D01*
X77329Y-43029D01*
X77348Y-42982D01*
X77348Y-42577D01*
X77520Y-42625D02*
X77539Y-42601D01*
X77577Y-42577D01*
X77672Y-42577D01*
X77710Y-42601D01*
X77729Y-42625D01*
X77748Y-42672D01*
X77748Y-42720D01*
X77729Y-42791D01*
X77501Y-43077D01*
X77748Y-43077D01*
X76720Y-39486D02*
X76986Y-39486D01*
X76815Y-39886D01*
X77196Y-39658D02*
X77158Y-39639D01*
X77139Y-39620D01*
X77120Y-39582D01*
X77120Y-39563D01*
X77139Y-39525D01*
X77158Y-39505D01*
X77196Y-39486D01*
X77272Y-39486D01*
X77310Y-39505D01*
X77329Y-39525D01*
X77348Y-39563D01*
X77348Y-39582D01*
X77329Y-39620D01*
X77310Y-39639D01*
X77272Y-39658D01*
X77196Y-39658D01*
X77158Y-39677D01*
X77139Y-39696D01*
X77120Y-39734D01*
X77120Y-39810D01*
X77139Y-39848D01*
X77158Y-39867D01*
X77196Y-39886D01*
X77272Y-39886D01*
X77310Y-39867D01*
X77329Y-39848D01*
X77348Y-39810D01*
X77348Y-39734D01*
X77329Y-39696D01*
X77310Y-39677D01*
X77272Y-39658D01*
X77596Y-39486D02*
X77634Y-39486D01*
X77672Y-39505D01*
X77691Y-39525D01*
X77710Y-39563D01*
X77729Y-39639D01*
X77729Y-39734D01*
X77710Y-39810D01*
X77691Y-39848D01*
X77672Y-39867D01*
X77634Y-39886D01*
X77596Y-39886D01*
X77558Y-39867D01*
X77539Y-39848D01*
X77520Y-39810D01*
X77501Y-39734D01*
X77501Y-39639D01*
X77520Y-39563D01*
X77539Y-39525D01*
X77558Y-39505D01*
X77596Y-39486D01*
X78091Y-39486D02*
X77901Y-39486D01*
X77882Y-39677D01*
X77901Y-39658D01*
X77939Y-39639D01*
X78034Y-39639D01*
X78072Y-39658D01*
X78091Y-39677D01*
X78110Y-39715D01*
X78110Y-39810D01*
X78091Y-39848D01*
X78072Y-39867D01*
X78034Y-39886D01*
X77939Y-39886D01*
X77901Y-39867D01*
X77882Y-39848D01*
G54D13*
X72782Y-48471D02*
X72682Y-48328D01*
X72610Y-48471D02*
X72610Y-48171D01*
X72725Y-48171D01*
X72753Y-48185D01*
X72767Y-48200D01*
X72782Y-48228D01*
X72782Y-48271D01*
X72767Y-48300D01*
X72753Y-48314D01*
X72725Y-48328D01*
X72610Y-48328D01*
X73067Y-48471D02*
X72896Y-48471D01*
X72982Y-48471D02*
X72982Y-48171D01*
X72953Y-48214D01*
X72925Y-48242D01*
X72896Y-48257D01*
X73253Y-48171D02*
X73282Y-48171D01*
X73310Y-48185D01*
X73325Y-48200D01*
X73339Y-48228D01*
X73353Y-48285D01*
X73353Y-48357D01*
X73339Y-48414D01*
X73325Y-48442D01*
X73310Y-48457D01*
X73282Y-48471D01*
X73253Y-48471D01*
X73225Y-48457D01*
X73210Y-48442D01*
X73196Y-48414D01*
X73182Y-48357D01*
X73182Y-48285D01*
X73196Y-48228D01*
X73210Y-48200D01*
X73225Y-48185D01*
X73253Y-48171D01*
X78496Y-44367D02*
X78353Y-44467D01*
X78496Y-44539D02*
X78196Y-44539D01*
X78196Y-44425D01*
X78210Y-44396D01*
X78225Y-44382D01*
X78253Y-44367D01*
X78296Y-44367D01*
X78325Y-44382D01*
X78339Y-44396D01*
X78353Y-44425D01*
X78353Y-44539D01*
X78496Y-44082D02*
X78496Y-44253D01*
X78496Y-44167D02*
X78196Y-44167D01*
X78239Y-44196D01*
X78267Y-44225D01*
X78282Y-44253D01*
X78496Y-43796D02*
X78496Y-43967D01*
X78496Y-43882D02*
X78196Y-43882D01*
X78239Y-43910D01*
X78267Y-43939D01*
X78282Y-43967D01*
M02*
