M48
;DRILL file {Pcbnew (2011-nov-30)-testing} date Tue 05 Feb 2013 12:10:48 AM EST
;FORMAT={-:-/ absolute / inch / decimal}
FMAT,2
INCH,TZ
T1C0.035
T2C0.042
T3C0.086
%
G90
G05
M72
T1
X7.0163Y-4.42
X7.0163Y-4.52
X7.095Y-4.42
X7.095Y-4.52
X7.155Y-3.935
X7.155Y-4.035
X7.944Y-4.076
X8.044Y-4.076
T2
X7.377Y-5.0464
X7.377Y-5.2236
X7.633Y-5.0464
X7.633Y-5.2236
X8.285Y-4.415
X8.285Y-4.515
X8.285Y-4.595
X8.285Y-4.695
T3
X6.91Y-4.2338
X6.91Y-4.7062
X8.39Y-4.275
X8.39Y-4.815
T2
X8.146Y-3.791G85X8.146Y-3.733
G05
X8.325Y-3.962G85X8.267Y-3.962
G05
X8.386Y-3.791G85X8.386Y-3.733
G05
T0
M30
