G04 (created by PCBNEW (2012-nov-02)-testing) date Wed 06 Feb 2013 10:53:48 PM EST*
%MOIN*%
G04 Gerber Fmt 3.4, Leading zero omitted, Abs format*
%FSLAX34Y34*%
G01*
G70*
G90*
G04 APERTURE LIST*
%ADD10C,2.3622e-06*%
%ADD11C,0.066*%
%ADD12C,0.0591*%
%ADD13C,0.1181*%
%ADD14C,0.06*%
%ADD15C,0.1063*%
%ADD16C,0.189*%
%ADD17R,0.189X0.189*%
%ADD18C,0.0787*%
%ADD19R,0.045X0.02*%
%ADD20R,0.08X0.06*%
%ADD21R,0.06X0.08*%
%ADD22R,0.065X0.12*%
%ADD23R,0.24X0.24*%
%ADD24C,0.015*%
%ADD25C,0.025*%
%ADD26C,0.01*%
%ADD27C,0.02*%
%ADD28C,0.03*%
G04 APERTURE END LIST*
G54D10*
G54D11*
X79440Y-40760D03*
X80440Y-40760D03*
X71550Y-40350D03*
X71550Y-39350D03*
G54D12*
X82850Y-46950D03*
X82850Y-45950D03*
X82850Y-45150D03*
X82850Y-44150D03*
G54D13*
X83900Y-48150D03*
X83900Y-42750D03*
G54D14*
X70950Y-44200D03*
X70950Y-45200D03*
X70163Y-45200D03*
X70163Y-44200D03*
G54D15*
X69100Y-42338D03*
X69100Y-47062D03*
G54D16*
X83860Y-37620D03*
G54D17*
X81460Y-37620D03*
G54D16*
X82960Y-39620D03*
G54D18*
X73770Y-52236D03*
X76330Y-50464D03*
X76330Y-52236D03*
X73770Y-50464D03*
G54D19*
X74250Y-45900D03*
X74250Y-46400D03*
X74250Y-46900D03*
X74250Y-47400D03*
X74250Y-47900D03*
X74250Y-48400D03*
X74250Y-48900D03*
X74250Y-49400D03*
X78250Y-49400D03*
X78250Y-48900D03*
X78250Y-48400D03*
X78250Y-47900D03*
X78250Y-47400D03*
X78250Y-46900D03*
X78250Y-46400D03*
X78250Y-45900D03*
G54D20*
X71900Y-47625D03*
X71900Y-46325D03*
G54D21*
X76775Y-37150D03*
X78075Y-37150D03*
G54D20*
X75525Y-38175D03*
X75525Y-36875D03*
X79700Y-37050D03*
X79700Y-38350D03*
X80360Y-51110D03*
X80360Y-49810D03*
G54D21*
X82510Y-41320D03*
X83810Y-41320D03*
G54D20*
X71700Y-38350D03*
X71700Y-37050D03*
X79020Y-51790D03*
X79020Y-50490D03*
G54D21*
X80250Y-42400D03*
X81550Y-42400D03*
G54D20*
X72175Y-44075D03*
X72175Y-45375D03*
G54D21*
X80250Y-43575D03*
X81550Y-43575D03*
G54D20*
X81475Y-47475D03*
X81475Y-48775D03*
X82525Y-50975D03*
X82525Y-52275D03*
G54D21*
X84050Y-49775D03*
X82750Y-49775D03*
X72300Y-42950D03*
X71000Y-42950D03*
X70400Y-41550D03*
X71700Y-41550D03*
X69000Y-40100D03*
X70300Y-40100D03*
X69000Y-38600D03*
X70300Y-38600D03*
X80275Y-46150D03*
X81575Y-46150D03*
X80250Y-44900D03*
X81550Y-44900D03*
X69000Y-50000D03*
X70300Y-50000D03*
X70050Y-48700D03*
X71350Y-48700D03*
G54D22*
X78325Y-38775D03*
G54D23*
X77425Y-41275D03*
G54D22*
X76525Y-38775D03*
G54D20*
X73000Y-46350D03*
X73000Y-47650D03*
X79150Y-43600D03*
X79150Y-44900D03*
G54D24*
X74800Y-37600D02*
X74800Y-36300D01*
X74900Y-36200D02*
X75100Y-36200D01*
X74800Y-36300D02*
X74900Y-36200D01*
G54D25*
X75125Y-37500D02*
X74900Y-37500D01*
X74800Y-38775D02*
X75100Y-39075D01*
X74800Y-37600D02*
X74800Y-38775D01*
X74900Y-37500D02*
X74800Y-37600D01*
G54D24*
X72400Y-39700D02*
X73200Y-40500D01*
X73100Y-42600D02*
X73200Y-42500D01*
X73200Y-42500D02*
X73200Y-40500D01*
X73100Y-42600D02*
X73100Y-42800D01*
G54D26*
X82000Y-46150D02*
X81575Y-46150D01*
X82200Y-45950D02*
X82000Y-46150D01*
X82850Y-45950D02*
X82200Y-45950D01*
X82850Y-45150D02*
X82500Y-45150D01*
X82500Y-45150D02*
X82250Y-44900D01*
X82250Y-44900D02*
X81550Y-44900D01*
G54D27*
X74250Y-49400D02*
X73800Y-49400D01*
X72600Y-49200D02*
X71350Y-50450D01*
X73600Y-49200D02*
X72600Y-49200D01*
X73800Y-49400D02*
X73600Y-49200D01*
X74250Y-49400D02*
X74750Y-49400D01*
X74800Y-46460D02*
X74740Y-46400D01*
X74800Y-49350D02*
X74800Y-46460D01*
X74750Y-49400D02*
X74800Y-49350D01*
G54D25*
X70300Y-38600D02*
X70880Y-38600D01*
X72175Y-45375D02*
X72175Y-44835D01*
X71700Y-37050D02*
X72350Y-37050D01*
X71700Y-37050D02*
X71700Y-36350D01*
X71700Y-37050D02*
X70850Y-37050D01*
X72270Y-41550D02*
X72280Y-41560D01*
G54D24*
X73325Y-45375D02*
X72175Y-45375D01*
G54D25*
X71585Y-45375D02*
X71580Y-45380D01*
G54D24*
X74250Y-46400D02*
X74000Y-46400D01*
X74250Y-46400D02*
X74740Y-46400D01*
X74740Y-46400D02*
X74760Y-46420D01*
G54D25*
X70300Y-38600D02*
X70300Y-37940D01*
X70300Y-40100D02*
X70300Y-40740D01*
X70300Y-37940D02*
X70280Y-37920D01*
X70300Y-38600D02*
X70300Y-40100D01*
X71900Y-46325D02*
X71345Y-46325D01*
X71900Y-46860D02*
X71880Y-46880D01*
X72175Y-45375D02*
X71585Y-45375D01*
G54D24*
X74000Y-46400D02*
X73725Y-46125D01*
X73725Y-46125D02*
X73725Y-45775D01*
G54D25*
X71700Y-41550D02*
X71700Y-42220D01*
X71700Y-36350D02*
X71750Y-36300D01*
X71900Y-46325D02*
X71900Y-46860D01*
G54D26*
X70900Y-40100D02*
X70920Y-40120D01*
G54D25*
X71345Y-46325D02*
X71340Y-46320D01*
X72175Y-44835D02*
X72160Y-44820D01*
X70300Y-40100D02*
X70900Y-40100D01*
X71700Y-41550D02*
X72270Y-41550D01*
G54D24*
X73725Y-45775D02*
X73325Y-45375D01*
G54D25*
X79700Y-37050D02*
X80890Y-37050D01*
X80890Y-37050D02*
X81460Y-37620D01*
X81460Y-37620D02*
X83860Y-37620D01*
G54D28*
X78175Y-37050D02*
X78325Y-37200D01*
X79700Y-37050D02*
X78175Y-37050D01*
X78325Y-37200D02*
X78325Y-38775D01*
G54D26*
X82850Y-46950D02*
X82850Y-47075D01*
X82450Y-47475D02*
X81475Y-47475D01*
X82850Y-47075D02*
X82450Y-47475D01*
G54D24*
X83900Y-48350D02*
X83900Y-49625D01*
X84050Y-50200D02*
X83275Y-50975D01*
G54D25*
X83900Y-42950D02*
X83900Y-48350D01*
G54D24*
X84050Y-49775D02*
X84050Y-50200D01*
X83275Y-50975D02*
X82525Y-50975D01*
X83900Y-49625D02*
X84050Y-49775D01*
G54D25*
X70163Y-44200D02*
X70163Y-41787D01*
X70163Y-41787D02*
X70400Y-41550D01*
X69000Y-42238D02*
X69100Y-42338D01*
X69000Y-38600D02*
X69000Y-40100D01*
X69100Y-47062D02*
X69100Y-42338D01*
X69000Y-40100D02*
X69000Y-42238D01*
G54D26*
X79275Y-48900D02*
X78250Y-48900D01*
X80275Y-46150D02*
X80275Y-47900D01*
X80275Y-47900D02*
X79275Y-48900D01*
X79700Y-47940D02*
X79240Y-48400D01*
X79700Y-45580D02*
X79700Y-47940D01*
X80250Y-44900D02*
X80250Y-45030D01*
X80250Y-45030D02*
X79700Y-45580D01*
X79240Y-48400D02*
X78250Y-48400D01*
G54D25*
X70950Y-44200D02*
X70950Y-43000D01*
X70950Y-43000D02*
X71000Y-42950D01*
G54D26*
X72100Y-48700D02*
X72400Y-48400D01*
X72400Y-48400D02*
X74250Y-48400D01*
X71350Y-48700D02*
X72100Y-48700D01*
X70300Y-50000D02*
X71400Y-50000D01*
X71400Y-50000D02*
X72500Y-48900D01*
X72500Y-48900D02*
X74250Y-48900D01*
G54D28*
X82700Y-43575D02*
X82850Y-43725D01*
G54D26*
X82850Y-43725D02*
X82700Y-43575D01*
G54D28*
X81550Y-43575D02*
X82700Y-43575D01*
G54D26*
X82850Y-44150D02*
X82850Y-43725D01*
G54D28*
X82850Y-43725D02*
X82850Y-44150D01*
G54D25*
X71700Y-39200D02*
X71550Y-39350D01*
X71700Y-38350D02*
X71700Y-39200D01*
G54D26*
X82510Y-41320D02*
X81000Y-41320D01*
X81000Y-41320D02*
X80440Y-40760D01*
X79660Y-51650D02*
X79660Y-51275D01*
X80180Y-51725D02*
X79735Y-51725D01*
X81040Y-51600D02*
X80915Y-51725D01*
X80325Y-49775D02*
X80360Y-49810D01*
X79760Y-49775D02*
X80800Y-49775D01*
X79760Y-49775D02*
X80325Y-49775D01*
X80800Y-49775D02*
X81040Y-49775D01*
X77600Y-49775D02*
X79760Y-49775D01*
X77575Y-47900D02*
X77575Y-49750D01*
X77575Y-49750D02*
X77600Y-49775D01*
X78250Y-47900D02*
X77575Y-47900D01*
X81040Y-49775D02*
X81040Y-51600D01*
X80915Y-51725D02*
X80180Y-51725D01*
X79735Y-51725D02*
X79660Y-51650D01*
X78425Y-51275D02*
X77550Y-51275D01*
X76739Y-50464D02*
X76330Y-50464D01*
X79660Y-51275D02*
X78425Y-51275D01*
X77550Y-51275D02*
X76739Y-50464D01*
X78940Y-47400D02*
X78250Y-47400D01*
X79120Y-47220D02*
X78940Y-47400D01*
X79120Y-44930D02*
X79120Y-47220D01*
X73475Y-47900D02*
X74250Y-47900D01*
X73200Y-47625D02*
X73475Y-47900D01*
X73050Y-47625D02*
X73200Y-47625D01*
X69000Y-48400D02*
X69000Y-50000D01*
X70163Y-45200D02*
X70163Y-47237D01*
X70163Y-47237D02*
X69000Y-48400D01*
X70950Y-47200D02*
X70050Y-48100D01*
X70050Y-48100D02*
X70050Y-48700D01*
X70950Y-45200D02*
X70950Y-47200D01*
G54D27*
X73100Y-44750D02*
X73575Y-44750D01*
X74250Y-45425D02*
X74250Y-45900D01*
X72300Y-42950D02*
X72300Y-43950D01*
X73575Y-44750D02*
X74250Y-45425D01*
G54D25*
X72400Y-40350D02*
X72800Y-40750D01*
X72800Y-42450D02*
X72300Y-42950D01*
X71550Y-40350D02*
X72400Y-40350D01*
G54D27*
X72300Y-43950D02*
X73100Y-44750D01*
G54D25*
X72800Y-40750D02*
X72800Y-42450D01*
X75525Y-38175D02*
X75925Y-38175D01*
X75925Y-38175D02*
X76525Y-38775D01*
G54D26*
X79440Y-40760D02*
X79440Y-41590D01*
X79440Y-41590D02*
X80250Y-42400D01*
G54D28*
X75950Y-42975D02*
X78040Y-42975D01*
X80250Y-42400D02*
X80250Y-42975D01*
G54D27*
X78025Y-44575D02*
X78025Y-45675D01*
G54D28*
X76525Y-38775D02*
X76525Y-37400D01*
G54D27*
X78025Y-45675D02*
X78250Y-45900D01*
G54D28*
X76525Y-37400D02*
X76775Y-37150D01*
X80250Y-42975D02*
X80250Y-43575D01*
G54D26*
X78040Y-44560D02*
X78025Y-44575D01*
G54D28*
X75725Y-42750D02*
X75950Y-42975D01*
G54D27*
X78040Y-42975D02*
X78040Y-44560D01*
G54D28*
X76100Y-38775D02*
X75725Y-39150D01*
X75725Y-39150D02*
X75725Y-42750D01*
X78040Y-42975D02*
X80250Y-42975D01*
X76525Y-38775D02*
X76100Y-38775D01*
G54D24*
X72625Y-46900D02*
X71900Y-47625D01*
X73725Y-46900D02*
X72625Y-46900D01*
G54D26*
X74250Y-46900D02*
X74250Y-47400D01*
X73150Y-46325D02*
X73725Y-46900D01*
X73725Y-46900D02*
X74250Y-46900D01*
X73050Y-46325D02*
X73150Y-46325D01*
G54D24*
X79020Y-50490D02*
X80190Y-50490D01*
X80360Y-50660D02*
X80360Y-51110D01*
X80190Y-50490D02*
X80360Y-50660D01*
X78250Y-46900D02*
X77700Y-46900D01*
X77640Y-50490D02*
X79020Y-50490D01*
X77300Y-50150D02*
X77640Y-50490D01*
X77300Y-47300D02*
X77300Y-50150D01*
X77700Y-46900D02*
X77300Y-47300D01*
G54D26*
X78720Y-46900D02*
X78250Y-46900D01*
X78670Y-43630D02*
X78420Y-43880D01*
X78740Y-45640D02*
X78740Y-46880D01*
X79120Y-43630D02*
X78670Y-43630D01*
X78740Y-46880D02*
X78720Y-46900D01*
X78420Y-45320D02*
X78740Y-45640D01*
X78420Y-43880D02*
X78420Y-45320D01*
G54D10*
G36*
X78300Y-46450D02*
X78200Y-46450D01*
X78150Y-46450D01*
X77837Y-46450D01*
X77775Y-46512D01*
X77776Y-46549D01*
X77786Y-46575D01*
X77615Y-46575D01*
X77651Y-43601D01*
X75110Y-43551D01*
X75100Y-39375D01*
X75090Y-38724D01*
X75174Y-38724D01*
X75585Y-38724D01*
X75442Y-38867D01*
X75355Y-38997D01*
X75325Y-39150D01*
X75325Y-42750D01*
X75355Y-42903D01*
X75442Y-43033D01*
X75667Y-43258D01*
X75796Y-43345D01*
X75797Y-43345D01*
X75950Y-43375D01*
X77690Y-43375D01*
X77690Y-44500D01*
X77675Y-44575D01*
X77675Y-45675D01*
X77702Y-45809D01*
X77776Y-45919D01*
X77776Y-46049D01*
X77814Y-46141D01*
X77823Y-46150D01*
X77814Y-46159D01*
X77776Y-46251D01*
X77775Y-46288D01*
X77837Y-46350D01*
X78150Y-46350D01*
X78200Y-46350D01*
X78300Y-46350D01*
X78300Y-46450D01*
X78300Y-46450D01*
G37*
G54D26*
X78300Y-46450D02*
X78200Y-46450D01*
X78150Y-46450D01*
X77837Y-46450D01*
X77775Y-46512D01*
X77776Y-46549D01*
X77786Y-46575D01*
X77615Y-46575D01*
X77651Y-43601D01*
X75110Y-43551D01*
X75100Y-39375D01*
X75090Y-38724D01*
X75174Y-38724D01*
X75585Y-38724D01*
X75442Y-38867D01*
X75355Y-38997D01*
X75325Y-39150D01*
X75325Y-42750D01*
X75355Y-42903D01*
X75442Y-43033D01*
X75667Y-43258D01*
X75796Y-43345D01*
X75797Y-43345D01*
X75950Y-43375D01*
X77690Y-43375D01*
X77690Y-44500D01*
X77675Y-44575D01*
X77675Y-45675D01*
X77702Y-45809D01*
X77776Y-45919D01*
X77776Y-46049D01*
X77814Y-46141D01*
X77823Y-46150D01*
X77814Y-46159D01*
X77776Y-46251D01*
X77775Y-46288D01*
X77837Y-46350D01*
X78150Y-46350D01*
X78200Y-46350D01*
X78300Y-46350D01*
X78300Y-46450D01*
G54D10*
G36*
X84800Y-51486D02*
X84756Y-51380D01*
X84517Y-51140D01*
X84205Y-51010D01*
X83867Y-51010D01*
X83582Y-51127D01*
X84280Y-50430D01*
X84283Y-50424D01*
X84399Y-50424D01*
X84491Y-50386D01*
X84561Y-50316D01*
X84599Y-50225D01*
X84599Y-50126D01*
X84599Y-49326D01*
X84561Y-49234D01*
X84491Y-49164D01*
X84400Y-49126D01*
X84301Y-49126D01*
X84225Y-49126D01*
X84225Y-48924D01*
X84375Y-48863D01*
X84611Y-48627D01*
X84740Y-48318D01*
X84740Y-47984D01*
X84613Y-47675D01*
X84377Y-47439D01*
X84275Y-47396D01*
X84275Y-43504D01*
X84375Y-43463D01*
X84611Y-43227D01*
X84740Y-42918D01*
X84740Y-42584D01*
X84613Y-42275D01*
X84377Y-42039D01*
X84184Y-41958D01*
X84251Y-41931D01*
X84321Y-41861D01*
X84359Y-41770D01*
X84359Y-41671D01*
X84360Y-41432D01*
X84360Y-41208D01*
X84359Y-40969D01*
X84359Y-40870D01*
X84321Y-40779D01*
X84251Y-40709D01*
X84159Y-40671D01*
X84154Y-40670D01*
X83922Y-40670D01*
X83860Y-40732D01*
X83860Y-41270D01*
X84298Y-41270D01*
X84360Y-41208D01*
X84360Y-41432D01*
X84298Y-41370D01*
X83910Y-41370D01*
X83860Y-41370D01*
X83760Y-41370D01*
X83710Y-41370D01*
X83322Y-41370D01*
X83260Y-41432D01*
X83261Y-41671D01*
X83261Y-41770D01*
X83299Y-41861D01*
X83369Y-41931D01*
X83461Y-41969D01*
X83589Y-41969D01*
X83425Y-42037D01*
X83189Y-42273D01*
X83060Y-42582D01*
X83060Y-42916D01*
X83187Y-43225D01*
X83423Y-43461D01*
X83525Y-43503D01*
X83525Y-47395D01*
X83425Y-47437D01*
X83394Y-47468D01*
X83394Y-47058D01*
X83394Y-46842D01*
X83311Y-46642D01*
X83158Y-46489D01*
X83064Y-46450D01*
X83158Y-46411D01*
X83311Y-46258D01*
X83394Y-46058D01*
X83394Y-45842D01*
X83311Y-45642D01*
X83219Y-45550D01*
X83311Y-45458D01*
X83394Y-45258D01*
X83394Y-45042D01*
X83311Y-44842D01*
X83158Y-44689D01*
X83064Y-44650D01*
X83158Y-44611D01*
X83311Y-44458D01*
X83394Y-44258D01*
X83394Y-44042D01*
X83311Y-43842D01*
X83250Y-43781D01*
X83250Y-43725D01*
X83220Y-43572D01*
X83220Y-43571D01*
X83133Y-43442D01*
X82983Y-43292D01*
X82853Y-43205D01*
X82700Y-43175D01*
X82099Y-43175D01*
X82099Y-43126D01*
X82061Y-43034D01*
X82014Y-42987D01*
X82061Y-42941D01*
X82099Y-42850D01*
X82099Y-42751D01*
X82100Y-42512D01*
X82038Y-42450D01*
X81650Y-42450D01*
X81600Y-42450D01*
X81500Y-42450D01*
X81500Y-42350D01*
X81500Y-41812D01*
X81438Y-41750D01*
X81201Y-41751D01*
X81109Y-41789D01*
X81039Y-41859D01*
X81001Y-41950D01*
X81001Y-42049D01*
X81000Y-42288D01*
X81062Y-42350D01*
X81500Y-42350D01*
X81500Y-42450D01*
X81450Y-42450D01*
X81062Y-42450D01*
X81000Y-42512D01*
X81001Y-42751D01*
X81001Y-42850D01*
X81039Y-42941D01*
X81085Y-42987D01*
X81039Y-43034D01*
X81001Y-43125D01*
X81001Y-43224D01*
X81001Y-44024D01*
X81039Y-44116D01*
X81109Y-44186D01*
X81200Y-44224D01*
X81299Y-44224D01*
X81899Y-44224D01*
X81991Y-44186D01*
X82061Y-44116D01*
X82099Y-44025D01*
X82099Y-43975D01*
X82333Y-43975D01*
X82306Y-44042D01*
X82306Y-44258D01*
X82389Y-44458D01*
X82542Y-44611D01*
X82635Y-44650D01*
X82542Y-44689D01*
X82502Y-44728D01*
X82462Y-44688D01*
X82365Y-44623D01*
X82250Y-44600D01*
X82099Y-44600D01*
X82099Y-44451D01*
X82061Y-44359D01*
X81991Y-44289D01*
X81900Y-44251D01*
X81801Y-44251D01*
X81201Y-44251D01*
X81109Y-44289D01*
X81039Y-44359D01*
X81001Y-44450D01*
X81001Y-44549D01*
X81001Y-45349D01*
X81039Y-45441D01*
X81109Y-45511D01*
X81155Y-45530D01*
X81134Y-45539D01*
X81064Y-45609D01*
X81026Y-45700D01*
X81026Y-45799D01*
X81026Y-46599D01*
X81064Y-46691D01*
X81134Y-46761D01*
X81225Y-46799D01*
X81324Y-46799D01*
X81924Y-46799D01*
X82016Y-46761D01*
X82086Y-46691D01*
X82124Y-46600D01*
X82124Y-46501D01*
X82124Y-46420D01*
X82212Y-46362D01*
X82324Y-46250D01*
X82385Y-46250D01*
X82389Y-46258D01*
X82542Y-46411D01*
X82635Y-46450D01*
X82542Y-46489D01*
X82389Y-46642D01*
X82306Y-46842D01*
X82306Y-47058D01*
X82346Y-47154D01*
X82325Y-47175D01*
X82124Y-47175D01*
X82124Y-47126D01*
X82086Y-47034D01*
X82016Y-46964D01*
X81925Y-46926D01*
X81826Y-46926D01*
X81026Y-46926D01*
X80934Y-46964D01*
X80864Y-47034D01*
X80826Y-47125D01*
X80826Y-47224D01*
X80826Y-47824D01*
X80864Y-47916D01*
X80934Y-47986D01*
X81025Y-48024D01*
X81124Y-48024D01*
X81924Y-48024D01*
X82016Y-47986D01*
X82086Y-47916D01*
X82124Y-47825D01*
X82124Y-47775D01*
X82450Y-47775D01*
X82565Y-47752D01*
X82662Y-47687D01*
X82855Y-47494D01*
X82958Y-47494D01*
X83158Y-47411D01*
X83311Y-47258D01*
X83394Y-47058D01*
X83394Y-47468D01*
X83189Y-47673D01*
X83060Y-47982D01*
X83060Y-48316D01*
X83187Y-48625D01*
X83423Y-48861D01*
X83575Y-48924D01*
X83575Y-49198D01*
X83539Y-49234D01*
X83501Y-49325D01*
X83501Y-49424D01*
X83501Y-50224D01*
X83520Y-50270D01*
X83300Y-50489D01*
X83300Y-49887D01*
X83300Y-49663D01*
X83299Y-49424D01*
X83299Y-49325D01*
X83261Y-49234D01*
X83191Y-49164D01*
X83099Y-49126D01*
X82862Y-49125D01*
X82800Y-49187D01*
X82800Y-49725D01*
X83238Y-49725D01*
X83300Y-49663D01*
X83300Y-49887D01*
X83238Y-49825D01*
X82800Y-49825D01*
X82800Y-50363D01*
X82862Y-50425D01*
X83099Y-50424D01*
X83191Y-50386D01*
X83261Y-50316D01*
X83299Y-50225D01*
X83299Y-50126D01*
X83300Y-49887D01*
X83300Y-50489D01*
X83171Y-50618D01*
X83136Y-50534D01*
X83066Y-50464D01*
X82975Y-50426D01*
X82876Y-50426D01*
X82700Y-50426D01*
X82700Y-50363D01*
X82700Y-49825D01*
X82700Y-49725D01*
X82700Y-49187D01*
X82638Y-49125D01*
X82401Y-49126D01*
X82309Y-49164D01*
X82239Y-49234D01*
X82201Y-49325D01*
X82201Y-49424D01*
X82200Y-49663D01*
X82262Y-49725D01*
X82700Y-49725D01*
X82700Y-49825D01*
X82262Y-49825D01*
X82200Y-49887D01*
X82201Y-50126D01*
X82201Y-50225D01*
X82239Y-50316D01*
X82309Y-50386D01*
X82401Y-50424D01*
X82638Y-50425D01*
X82700Y-50363D01*
X82700Y-50426D01*
X82125Y-50426D01*
X82125Y-48887D01*
X82125Y-48663D01*
X82124Y-48426D01*
X82086Y-48334D01*
X82016Y-48264D01*
X81925Y-48226D01*
X81826Y-48226D01*
X81587Y-48225D01*
X81525Y-48287D01*
X81525Y-48725D01*
X82063Y-48725D01*
X82125Y-48663D01*
X82125Y-48887D01*
X82063Y-48825D01*
X81525Y-48825D01*
X81525Y-49263D01*
X81587Y-49325D01*
X81826Y-49324D01*
X81925Y-49324D01*
X82016Y-49286D01*
X82086Y-49216D01*
X82124Y-49124D01*
X82125Y-48887D01*
X82125Y-50426D01*
X82076Y-50426D01*
X81984Y-50464D01*
X81914Y-50534D01*
X81876Y-50625D01*
X81876Y-50724D01*
X81876Y-51324D01*
X81914Y-51416D01*
X81984Y-51486D01*
X82075Y-51524D01*
X82174Y-51524D01*
X82974Y-51524D01*
X83066Y-51486D01*
X83136Y-51416D01*
X83174Y-51325D01*
X83174Y-51300D01*
X83275Y-51300D01*
X83399Y-51275D01*
X83456Y-51236D01*
X83315Y-51378D01*
X83185Y-51690D01*
X83185Y-52028D01*
X83314Y-52340D01*
X83553Y-52580D01*
X83781Y-52675D01*
X83152Y-52675D01*
X83174Y-52624D01*
X83175Y-52387D01*
X83175Y-52163D01*
X83174Y-51926D01*
X83136Y-51834D01*
X83066Y-51764D01*
X82975Y-51726D01*
X82876Y-51726D01*
X82637Y-51725D01*
X82575Y-51787D01*
X82575Y-52225D01*
X83113Y-52225D01*
X83175Y-52163D01*
X83175Y-52387D01*
X83113Y-52325D01*
X82625Y-52325D01*
X82575Y-52325D01*
X82475Y-52325D01*
X82475Y-52225D01*
X82475Y-51787D01*
X82413Y-51725D01*
X82174Y-51726D01*
X82075Y-51726D01*
X81984Y-51764D01*
X81914Y-51834D01*
X81876Y-51926D01*
X81875Y-52163D01*
X81937Y-52225D01*
X82475Y-52225D01*
X82475Y-52325D01*
X82425Y-52325D01*
X81937Y-52325D01*
X81875Y-52387D01*
X81876Y-52624D01*
X81897Y-52675D01*
X81425Y-52675D01*
X81425Y-49263D01*
X81425Y-48825D01*
X81425Y-48725D01*
X81425Y-48287D01*
X81363Y-48225D01*
X81124Y-48226D01*
X81025Y-48226D01*
X80934Y-48264D01*
X80864Y-48334D01*
X80826Y-48426D01*
X80825Y-48663D01*
X80887Y-48725D01*
X81425Y-48725D01*
X81425Y-48825D01*
X80887Y-48825D01*
X80825Y-48887D01*
X80826Y-49124D01*
X80864Y-49216D01*
X80934Y-49286D01*
X81025Y-49324D01*
X81124Y-49324D01*
X81363Y-49325D01*
X81425Y-49263D01*
X81425Y-52675D01*
X78970Y-52675D01*
X78970Y-52278D01*
X78970Y-51840D01*
X78432Y-51840D01*
X78370Y-51902D01*
X78371Y-52139D01*
X78409Y-52231D01*
X78479Y-52301D01*
X78570Y-52339D01*
X78669Y-52339D01*
X78908Y-52340D01*
X78970Y-52278D01*
X78970Y-52675D01*
X76976Y-52675D01*
X76816Y-52675D01*
X76863Y-52628D01*
X76834Y-52599D01*
X76888Y-52579D01*
X76976Y-52339D01*
X76967Y-52084D01*
X76888Y-51893D01*
X76783Y-51854D01*
X76712Y-51925D01*
X76712Y-51783D01*
X76673Y-51678D01*
X76433Y-51590D01*
X76178Y-51599D01*
X75987Y-51678D01*
X75948Y-51783D01*
X76330Y-52165D01*
X76712Y-51783D01*
X76712Y-51925D01*
X76436Y-52201D01*
X76401Y-52236D01*
X76330Y-52307D01*
X76259Y-52236D01*
X76224Y-52201D01*
X75877Y-51854D01*
X75772Y-51893D01*
X75750Y-51953D01*
X75750Y-50742D01*
X75785Y-50827D01*
X75965Y-51008D01*
X76201Y-51107D01*
X76457Y-51107D01*
X76693Y-51009D01*
X76776Y-50925D01*
X77337Y-51486D01*
X77338Y-51487D01*
X77435Y-51552D01*
X77549Y-51574D01*
X77550Y-51575D01*
X78370Y-51575D01*
X78370Y-51678D01*
X78432Y-51740D01*
X78920Y-51740D01*
X78970Y-51740D01*
X79070Y-51740D01*
X79070Y-51840D01*
X79070Y-51890D01*
X79070Y-52278D01*
X79132Y-52340D01*
X79371Y-52339D01*
X79470Y-52339D01*
X79561Y-52301D01*
X79631Y-52231D01*
X79669Y-52139D01*
X79669Y-52011D01*
X79735Y-52025D01*
X80180Y-52025D01*
X80915Y-52025D01*
X81030Y-52002D01*
X81127Y-51937D01*
X81252Y-51813D01*
X81252Y-51812D01*
X81317Y-51715D01*
X81339Y-51601D01*
X81340Y-51600D01*
X81340Y-49775D01*
X81317Y-49660D01*
X81252Y-49563D01*
X81155Y-49498D01*
X81040Y-49475D01*
X81009Y-49475D01*
X81009Y-49461D01*
X80971Y-49369D01*
X80901Y-49299D01*
X80810Y-49261D01*
X80711Y-49261D01*
X79911Y-49261D01*
X79819Y-49299D01*
X79749Y-49369D01*
X79711Y-49460D01*
X79711Y-49475D01*
X78688Y-49475D01*
X78663Y-49450D01*
X78350Y-49450D01*
X78300Y-49450D01*
X78200Y-49450D01*
X78200Y-49350D01*
X78300Y-49350D01*
X78350Y-49350D01*
X78663Y-49350D01*
X78725Y-49288D01*
X78724Y-49251D01*
X78702Y-49200D01*
X79275Y-49200D01*
X79390Y-49177D01*
X79487Y-49112D01*
X80487Y-48112D01*
X80552Y-48015D01*
X80575Y-47900D01*
X80575Y-46799D01*
X80624Y-46799D01*
X80716Y-46761D01*
X80786Y-46691D01*
X80824Y-46600D01*
X80824Y-46501D01*
X80824Y-45701D01*
X80786Y-45609D01*
X80716Y-45539D01*
X80669Y-45519D01*
X80691Y-45511D01*
X80761Y-45441D01*
X80799Y-45350D01*
X80799Y-45251D01*
X80799Y-44451D01*
X80761Y-44359D01*
X80691Y-44289D01*
X80600Y-44251D01*
X80501Y-44251D01*
X79901Y-44251D01*
X79809Y-44289D01*
X79739Y-44359D01*
X79716Y-44414D01*
X79691Y-44389D01*
X79600Y-44351D01*
X79501Y-44351D01*
X78720Y-44351D01*
X78720Y-44149D01*
X78799Y-44149D01*
X79599Y-44149D01*
X79691Y-44111D01*
X79723Y-44078D01*
X79739Y-44116D01*
X79809Y-44186D01*
X79900Y-44224D01*
X79999Y-44224D01*
X80599Y-44224D01*
X80691Y-44186D01*
X80761Y-44116D01*
X80799Y-44025D01*
X80799Y-43926D01*
X80799Y-43126D01*
X80761Y-43034D01*
X80714Y-42987D01*
X80761Y-42941D01*
X80799Y-42850D01*
X80799Y-42751D01*
X80799Y-41951D01*
X80761Y-41859D01*
X80691Y-41789D01*
X80600Y-41751D01*
X80501Y-41751D01*
X80025Y-41751D01*
X79740Y-41466D01*
X79740Y-41263D01*
X79768Y-41252D01*
X79931Y-41089D01*
X79939Y-41068D01*
X79948Y-41088D01*
X80111Y-41251D01*
X80324Y-41340D01*
X80555Y-41340D01*
X80584Y-41328D01*
X80787Y-41531D01*
X80788Y-41532D01*
X80885Y-41597D01*
X80999Y-41619D01*
X81000Y-41620D01*
X81961Y-41620D01*
X81961Y-41769D01*
X81964Y-41778D01*
X81899Y-41751D01*
X81662Y-41750D01*
X81600Y-41812D01*
X81600Y-42350D01*
X82038Y-42350D01*
X82100Y-42288D01*
X82099Y-42049D01*
X82099Y-41950D01*
X82095Y-41942D01*
X82160Y-41969D01*
X82259Y-41969D01*
X82859Y-41969D01*
X82951Y-41931D01*
X83021Y-41861D01*
X83059Y-41770D01*
X83059Y-41671D01*
X83059Y-40871D01*
X83035Y-40813D01*
X83200Y-40813D01*
X83311Y-40766D01*
X83299Y-40779D01*
X83261Y-40870D01*
X83261Y-40969D01*
X83260Y-41208D01*
X83322Y-41270D01*
X83760Y-41270D01*
X83760Y-40732D01*
X83698Y-40670D01*
X83543Y-40670D01*
X83634Y-40633D01*
X83741Y-40471D01*
X82960Y-39691D01*
X82889Y-39761D01*
X82179Y-40471D01*
X82286Y-40633D01*
X82378Y-40671D01*
X82161Y-40671D01*
X82069Y-40709D01*
X81999Y-40779D01*
X81961Y-40870D01*
X81961Y-40969D01*
X81961Y-41020D01*
X81124Y-41020D01*
X81008Y-40904D01*
X81020Y-40876D01*
X81020Y-40645D01*
X80932Y-40432D01*
X80769Y-40269D01*
X80556Y-40180D01*
X80325Y-40180D01*
X80112Y-40268D01*
X79949Y-40431D01*
X79940Y-40451D01*
X79932Y-40432D01*
X79769Y-40269D01*
X79650Y-40219D01*
X79650Y-38838D01*
X79650Y-38400D01*
X79650Y-38300D01*
X79650Y-37862D01*
X79588Y-37800D01*
X79349Y-37801D01*
X79250Y-37801D01*
X79159Y-37839D01*
X79089Y-37909D01*
X79051Y-38001D01*
X79050Y-38238D01*
X79112Y-38300D01*
X79650Y-38300D01*
X79650Y-38400D01*
X79112Y-38400D01*
X79050Y-38462D01*
X79051Y-38699D01*
X79089Y-38791D01*
X79159Y-38861D01*
X79250Y-38899D01*
X79349Y-38899D01*
X79588Y-38900D01*
X79650Y-38838D01*
X79650Y-40219D01*
X79556Y-40180D01*
X79325Y-40180D01*
X79112Y-40268D01*
X78949Y-40431D01*
X78874Y-40609D01*
X78874Y-40124D01*
X78874Y-40025D01*
X78836Y-39934D01*
X78766Y-39864D01*
X78674Y-39826D01*
X77537Y-39825D01*
X77475Y-39887D01*
X77475Y-41225D01*
X78813Y-41225D01*
X78875Y-41163D01*
X78874Y-40910D01*
X78948Y-41088D01*
X79111Y-41251D01*
X79140Y-41263D01*
X79140Y-41590D01*
X79163Y-41705D01*
X79228Y-41802D01*
X79701Y-42275D01*
X79701Y-42575D01*
X78853Y-42575D01*
X78874Y-42525D01*
X78874Y-42426D01*
X78875Y-41387D01*
X78813Y-41325D01*
X77525Y-41325D01*
X77475Y-41325D01*
X77375Y-41325D01*
X77375Y-41225D01*
X77375Y-41175D01*
X77375Y-39887D01*
X77313Y-39825D01*
X76176Y-39826D01*
X76125Y-39847D01*
X76125Y-39613D01*
X76150Y-39624D01*
X76249Y-39624D01*
X76899Y-39624D01*
X76991Y-39586D01*
X77061Y-39516D01*
X77099Y-39425D01*
X77099Y-39326D01*
X77099Y-38126D01*
X77061Y-38034D01*
X76991Y-37964D01*
X76925Y-37936D01*
X76925Y-37799D01*
X77124Y-37799D01*
X77216Y-37761D01*
X77286Y-37691D01*
X77324Y-37600D01*
X77324Y-37501D01*
X77324Y-36701D01*
X77286Y-36609D01*
X77216Y-36539D01*
X77125Y-36501D01*
X77026Y-36501D01*
X76426Y-36501D01*
X76334Y-36539D01*
X76264Y-36609D01*
X76226Y-36700D01*
X76226Y-36799D01*
X76226Y-37140D01*
X76174Y-37218D01*
X76175Y-36987D01*
X76175Y-36763D01*
X76174Y-36526D01*
X76136Y-36434D01*
X76066Y-36364D01*
X75975Y-36326D01*
X75876Y-36326D01*
X75637Y-36325D01*
X75575Y-36387D01*
X75575Y-36825D01*
X76113Y-36825D01*
X76175Y-36763D01*
X76175Y-36987D01*
X76113Y-36925D01*
X75575Y-36925D01*
X75575Y-37363D01*
X75637Y-37425D01*
X75876Y-37424D01*
X75975Y-37424D01*
X76066Y-37386D01*
X76136Y-37316D01*
X76146Y-37290D01*
X76125Y-37400D01*
X76125Y-37723D01*
X76066Y-37664D01*
X75975Y-37626D01*
X75876Y-37626D01*
X75076Y-37626D01*
X75073Y-37626D01*
X75070Y-37422D01*
X75075Y-37424D01*
X75174Y-37424D01*
X75413Y-37425D01*
X75475Y-37363D01*
X75475Y-36975D01*
X75475Y-36925D01*
X75475Y-36825D01*
X75475Y-36775D01*
X75475Y-36387D01*
X75413Y-36325D01*
X75174Y-36326D01*
X75075Y-36326D01*
X75054Y-36334D01*
X75051Y-36100D01*
X84800Y-36075D01*
X84800Y-36897D01*
X84711Y-36839D01*
X84153Y-37397D01*
X84125Y-37355D01*
X84082Y-37326D01*
X84641Y-36769D01*
X84534Y-36607D01*
X84095Y-36426D01*
X83620Y-36427D01*
X83186Y-36607D01*
X83079Y-36769D01*
X83555Y-37245D01*
X83414Y-37245D01*
X83009Y-36839D01*
X82847Y-36946D01*
X82723Y-37245D01*
X82654Y-37245D01*
X82654Y-36626D01*
X82616Y-36534D01*
X82546Y-36464D01*
X82455Y-36426D01*
X82356Y-36426D01*
X80466Y-36426D01*
X80374Y-36464D01*
X80304Y-36534D01*
X80283Y-36581D01*
X80241Y-36539D01*
X80150Y-36501D01*
X80051Y-36501D01*
X79251Y-36501D01*
X79159Y-36539D01*
X79089Y-36609D01*
X79071Y-36650D01*
X78602Y-36650D01*
X78586Y-36609D01*
X78516Y-36539D01*
X78425Y-36501D01*
X78326Y-36501D01*
X77726Y-36501D01*
X77634Y-36539D01*
X77564Y-36609D01*
X77526Y-36700D01*
X77526Y-36799D01*
X77526Y-37599D01*
X77564Y-37691D01*
X77634Y-37761D01*
X77725Y-37799D01*
X77824Y-37799D01*
X77925Y-37799D01*
X77925Y-37936D01*
X77859Y-37964D01*
X77789Y-38034D01*
X77751Y-38125D01*
X77751Y-38224D01*
X77751Y-39424D01*
X77789Y-39516D01*
X77859Y-39586D01*
X77950Y-39624D01*
X78049Y-39624D01*
X78699Y-39624D01*
X78791Y-39586D01*
X78861Y-39516D01*
X78899Y-39425D01*
X78899Y-39326D01*
X78899Y-38126D01*
X78861Y-38034D01*
X78791Y-37964D01*
X78725Y-37936D01*
X78725Y-37450D01*
X79072Y-37450D01*
X79089Y-37491D01*
X79159Y-37561D01*
X79250Y-37599D01*
X79349Y-37599D01*
X80149Y-37599D01*
X80241Y-37561D01*
X80266Y-37536D01*
X80266Y-37864D01*
X80241Y-37839D01*
X80150Y-37801D01*
X80051Y-37801D01*
X79812Y-37800D01*
X79750Y-37862D01*
X79750Y-38250D01*
X79750Y-38300D01*
X79750Y-38400D01*
X79750Y-38450D01*
X79750Y-38838D01*
X79812Y-38900D01*
X80051Y-38899D01*
X80150Y-38899D01*
X80241Y-38861D01*
X80311Y-38791D01*
X80333Y-38735D01*
X80374Y-38776D01*
X80465Y-38814D01*
X80564Y-38814D01*
X82045Y-38814D01*
X82029Y-38830D01*
X82066Y-38867D01*
X81947Y-38946D01*
X81766Y-39385D01*
X81767Y-39860D01*
X81947Y-40294D01*
X82109Y-40401D01*
X82854Y-39655D01*
X82889Y-39620D01*
X82960Y-39549D01*
X83031Y-39620D01*
X83066Y-39655D01*
X83811Y-40401D01*
X83973Y-40294D01*
X84154Y-39855D01*
X84153Y-39380D01*
X83973Y-38946D01*
X83853Y-38867D01*
X83891Y-38830D01*
X83874Y-38813D01*
X84100Y-38813D01*
X84534Y-38633D01*
X84641Y-38471D01*
X84082Y-37913D01*
X84125Y-37885D01*
X84153Y-37842D01*
X84711Y-38401D01*
X84800Y-38342D01*
X84800Y-51486D01*
X84800Y-51486D01*
G37*
G54D26*
X84800Y-51486D02*
X84756Y-51380D01*
X84517Y-51140D01*
X84205Y-51010D01*
X83867Y-51010D01*
X83582Y-51127D01*
X84280Y-50430D01*
X84283Y-50424D01*
X84399Y-50424D01*
X84491Y-50386D01*
X84561Y-50316D01*
X84599Y-50225D01*
X84599Y-50126D01*
X84599Y-49326D01*
X84561Y-49234D01*
X84491Y-49164D01*
X84400Y-49126D01*
X84301Y-49126D01*
X84225Y-49126D01*
X84225Y-48924D01*
X84375Y-48863D01*
X84611Y-48627D01*
X84740Y-48318D01*
X84740Y-47984D01*
X84613Y-47675D01*
X84377Y-47439D01*
X84275Y-47396D01*
X84275Y-43504D01*
X84375Y-43463D01*
X84611Y-43227D01*
X84740Y-42918D01*
X84740Y-42584D01*
X84613Y-42275D01*
X84377Y-42039D01*
X84184Y-41958D01*
X84251Y-41931D01*
X84321Y-41861D01*
X84359Y-41770D01*
X84359Y-41671D01*
X84360Y-41432D01*
X84360Y-41208D01*
X84359Y-40969D01*
X84359Y-40870D01*
X84321Y-40779D01*
X84251Y-40709D01*
X84159Y-40671D01*
X84154Y-40670D01*
X83922Y-40670D01*
X83860Y-40732D01*
X83860Y-41270D01*
X84298Y-41270D01*
X84360Y-41208D01*
X84360Y-41432D01*
X84298Y-41370D01*
X83910Y-41370D01*
X83860Y-41370D01*
X83760Y-41370D01*
X83710Y-41370D01*
X83322Y-41370D01*
X83260Y-41432D01*
X83261Y-41671D01*
X83261Y-41770D01*
X83299Y-41861D01*
X83369Y-41931D01*
X83461Y-41969D01*
X83589Y-41969D01*
X83425Y-42037D01*
X83189Y-42273D01*
X83060Y-42582D01*
X83060Y-42916D01*
X83187Y-43225D01*
X83423Y-43461D01*
X83525Y-43503D01*
X83525Y-47395D01*
X83425Y-47437D01*
X83394Y-47468D01*
X83394Y-47058D01*
X83394Y-46842D01*
X83311Y-46642D01*
X83158Y-46489D01*
X83064Y-46450D01*
X83158Y-46411D01*
X83311Y-46258D01*
X83394Y-46058D01*
X83394Y-45842D01*
X83311Y-45642D01*
X83219Y-45550D01*
X83311Y-45458D01*
X83394Y-45258D01*
X83394Y-45042D01*
X83311Y-44842D01*
X83158Y-44689D01*
X83064Y-44650D01*
X83158Y-44611D01*
X83311Y-44458D01*
X83394Y-44258D01*
X83394Y-44042D01*
X83311Y-43842D01*
X83250Y-43781D01*
X83250Y-43725D01*
X83220Y-43572D01*
X83220Y-43571D01*
X83133Y-43442D01*
X82983Y-43292D01*
X82853Y-43205D01*
X82700Y-43175D01*
X82099Y-43175D01*
X82099Y-43126D01*
X82061Y-43034D01*
X82014Y-42987D01*
X82061Y-42941D01*
X82099Y-42850D01*
X82099Y-42751D01*
X82100Y-42512D01*
X82038Y-42450D01*
X81650Y-42450D01*
X81600Y-42450D01*
X81500Y-42450D01*
X81500Y-42350D01*
X81500Y-41812D01*
X81438Y-41750D01*
X81201Y-41751D01*
X81109Y-41789D01*
X81039Y-41859D01*
X81001Y-41950D01*
X81001Y-42049D01*
X81000Y-42288D01*
X81062Y-42350D01*
X81500Y-42350D01*
X81500Y-42450D01*
X81450Y-42450D01*
X81062Y-42450D01*
X81000Y-42512D01*
X81001Y-42751D01*
X81001Y-42850D01*
X81039Y-42941D01*
X81085Y-42987D01*
X81039Y-43034D01*
X81001Y-43125D01*
X81001Y-43224D01*
X81001Y-44024D01*
X81039Y-44116D01*
X81109Y-44186D01*
X81200Y-44224D01*
X81299Y-44224D01*
X81899Y-44224D01*
X81991Y-44186D01*
X82061Y-44116D01*
X82099Y-44025D01*
X82099Y-43975D01*
X82333Y-43975D01*
X82306Y-44042D01*
X82306Y-44258D01*
X82389Y-44458D01*
X82542Y-44611D01*
X82635Y-44650D01*
X82542Y-44689D01*
X82502Y-44728D01*
X82462Y-44688D01*
X82365Y-44623D01*
X82250Y-44600D01*
X82099Y-44600D01*
X82099Y-44451D01*
X82061Y-44359D01*
X81991Y-44289D01*
X81900Y-44251D01*
X81801Y-44251D01*
X81201Y-44251D01*
X81109Y-44289D01*
X81039Y-44359D01*
X81001Y-44450D01*
X81001Y-44549D01*
X81001Y-45349D01*
X81039Y-45441D01*
X81109Y-45511D01*
X81155Y-45530D01*
X81134Y-45539D01*
X81064Y-45609D01*
X81026Y-45700D01*
X81026Y-45799D01*
X81026Y-46599D01*
X81064Y-46691D01*
X81134Y-46761D01*
X81225Y-46799D01*
X81324Y-46799D01*
X81924Y-46799D01*
X82016Y-46761D01*
X82086Y-46691D01*
X82124Y-46600D01*
X82124Y-46501D01*
X82124Y-46420D01*
X82212Y-46362D01*
X82324Y-46250D01*
X82385Y-46250D01*
X82389Y-46258D01*
X82542Y-46411D01*
X82635Y-46450D01*
X82542Y-46489D01*
X82389Y-46642D01*
X82306Y-46842D01*
X82306Y-47058D01*
X82346Y-47154D01*
X82325Y-47175D01*
X82124Y-47175D01*
X82124Y-47126D01*
X82086Y-47034D01*
X82016Y-46964D01*
X81925Y-46926D01*
X81826Y-46926D01*
X81026Y-46926D01*
X80934Y-46964D01*
X80864Y-47034D01*
X80826Y-47125D01*
X80826Y-47224D01*
X80826Y-47824D01*
X80864Y-47916D01*
X80934Y-47986D01*
X81025Y-48024D01*
X81124Y-48024D01*
X81924Y-48024D01*
X82016Y-47986D01*
X82086Y-47916D01*
X82124Y-47825D01*
X82124Y-47775D01*
X82450Y-47775D01*
X82565Y-47752D01*
X82662Y-47687D01*
X82855Y-47494D01*
X82958Y-47494D01*
X83158Y-47411D01*
X83311Y-47258D01*
X83394Y-47058D01*
X83394Y-47468D01*
X83189Y-47673D01*
X83060Y-47982D01*
X83060Y-48316D01*
X83187Y-48625D01*
X83423Y-48861D01*
X83575Y-48924D01*
X83575Y-49198D01*
X83539Y-49234D01*
X83501Y-49325D01*
X83501Y-49424D01*
X83501Y-50224D01*
X83520Y-50270D01*
X83300Y-50489D01*
X83300Y-49887D01*
X83300Y-49663D01*
X83299Y-49424D01*
X83299Y-49325D01*
X83261Y-49234D01*
X83191Y-49164D01*
X83099Y-49126D01*
X82862Y-49125D01*
X82800Y-49187D01*
X82800Y-49725D01*
X83238Y-49725D01*
X83300Y-49663D01*
X83300Y-49887D01*
X83238Y-49825D01*
X82800Y-49825D01*
X82800Y-50363D01*
X82862Y-50425D01*
X83099Y-50424D01*
X83191Y-50386D01*
X83261Y-50316D01*
X83299Y-50225D01*
X83299Y-50126D01*
X83300Y-49887D01*
X83300Y-50489D01*
X83171Y-50618D01*
X83136Y-50534D01*
X83066Y-50464D01*
X82975Y-50426D01*
X82876Y-50426D01*
X82700Y-50426D01*
X82700Y-50363D01*
X82700Y-49825D01*
X82700Y-49725D01*
X82700Y-49187D01*
X82638Y-49125D01*
X82401Y-49126D01*
X82309Y-49164D01*
X82239Y-49234D01*
X82201Y-49325D01*
X82201Y-49424D01*
X82200Y-49663D01*
X82262Y-49725D01*
X82700Y-49725D01*
X82700Y-49825D01*
X82262Y-49825D01*
X82200Y-49887D01*
X82201Y-50126D01*
X82201Y-50225D01*
X82239Y-50316D01*
X82309Y-50386D01*
X82401Y-50424D01*
X82638Y-50425D01*
X82700Y-50363D01*
X82700Y-50426D01*
X82125Y-50426D01*
X82125Y-48887D01*
X82125Y-48663D01*
X82124Y-48426D01*
X82086Y-48334D01*
X82016Y-48264D01*
X81925Y-48226D01*
X81826Y-48226D01*
X81587Y-48225D01*
X81525Y-48287D01*
X81525Y-48725D01*
X82063Y-48725D01*
X82125Y-48663D01*
X82125Y-48887D01*
X82063Y-48825D01*
X81525Y-48825D01*
X81525Y-49263D01*
X81587Y-49325D01*
X81826Y-49324D01*
X81925Y-49324D01*
X82016Y-49286D01*
X82086Y-49216D01*
X82124Y-49124D01*
X82125Y-48887D01*
X82125Y-50426D01*
X82076Y-50426D01*
X81984Y-50464D01*
X81914Y-50534D01*
X81876Y-50625D01*
X81876Y-50724D01*
X81876Y-51324D01*
X81914Y-51416D01*
X81984Y-51486D01*
X82075Y-51524D01*
X82174Y-51524D01*
X82974Y-51524D01*
X83066Y-51486D01*
X83136Y-51416D01*
X83174Y-51325D01*
X83174Y-51300D01*
X83275Y-51300D01*
X83399Y-51275D01*
X83456Y-51236D01*
X83315Y-51378D01*
X83185Y-51690D01*
X83185Y-52028D01*
X83314Y-52340D01*
X83553Y-52580D01*
X83781Y-52675D01*
X83152Y-52675D01*
X83174Y-52624D01*
X83175Y-52387D01*
X83175Y-52163D01*
X83174Y-51926D01*
X83136Y-51834D01*
X83066Y-51764D01*
X82975Y-51726D01*
X82876Y-51726D01*
X82637Y-51725D01*
X82575Y-51787D01*
X82575Y-52225D01*
X83113Y-52225D01*
X83175Y-52163D01*
X83175Y-52387D01*
X83113Y-52325D01*
X82625Y-52325D01*
X82575Y-52325D01*
X82475Y-52325D01*
X82475Y-52225D01*
X82475Y-51787D01*
X82413Y-51725D01*
X82174Y-51726D01*
X82075Y-51726D01*
X81984Y-51764D01*
X81914Y-51834D01*
X81876Y-51926D01*
X81875Y-52163D01*
X81937Y-52225D01*
X82475Y-52225D01*
X82475Y-52325D01*
X82425Y-52325D01*
X81937Y-52325D01*
X81875Y-52387D01*
X81876Y-52624D01*
X81897Y-52675D01*
X81425Y-52675D01*
X81425Y-49263D01*
X81425Y-48825D01*
X81425Y-48725D01*
X81425Y-48287D01*
X81363Y-48225D01*
X81124Y-48226D01*
X81025Y-48226D01*
X80934Y-48264D01*
X80864Y-48334D01*
X80826Y-48426D01*
X80825Y-48663D01*
X80887Y-48725D01*
X81425Y-48725D01*
X81425Y-48825D01*
X80887Y-48825D01*
X80825Y-48887D01*
X80826Y-49124D01*
X80864Y-49216D01*
X80934Y-49286D01*
X81025Y-49324D01*
X81124Y-49324D01*
X81363Y-49325D01*
X81425Y-49263D01*
X81425Y-52675D01*
X78970Y-52675D01*
X78970Y-52278D01*
X78970Y-51840D01*
X78432Y-51840D01*
X78370Y-51902D01*
X78371Y-52139D01*
X78409Y-52231D01*
X78479Y-52301D01*
X78570Y-52339D01*
X78669Y-52339D01*
X78908Y-52340D01*
X78970Y-52278D01*
X78970Y-52675D01*
X76976Y-52675D01*
X76816Y-52675D01*
X76863Y-52628D01*
X76834Y-52599D01*
X76888Y-52579D01*
X76976Y-52339D01*
X76967Y-52084D01*
X76888Y-51893D01*
X76783Y-51854D01*
X76712Y-51925D01*
X76712Y-51783D01*
X76673Y-51678D01*
X76433Y-51590D01*
X76178Y-51599D01*
X75987Y-51678D01*
X75948Y-51783D01*
X76330Y-52165D01*
X76712Y-51783D01*
X76712Y-51925D01*
X76436Y-52201D01*
X76401Y-52236D01*
X76330Y-52307D01*
X76259Y-52236D01*
X76224Y-52201D01*
X75877Y-51854D01*
X75772Y-51893D01*
X75750Y-51953D01*
X75750Y-50742D01*
X75785Y-50827D01*
X75965Y-51008D01*
X76201Y-51107D01*
X76457Y-51107D01*
X76693Y-51009D01*
X76776Y-50925D01*
X77337Y-51486D01*
X77338Y-51487D01*
X77435Y-51552D01*
X77549Y-51574D01*
X77550Y-51575D01*
X78370Y-51575D01*
X78370Y-51678D01*
X78432Y-51740D01*
X78920Y-51740D01*
X78970Y-51740D01*
X79070Y-51740D01*
X79070Y-51840D01*
X79070Y-51890D01*
X79070Y-52278D01*
X79132Y-52340D01*
X79371Y-52339D01*
X79470Y-52339D01*
X79561Y-52301D01*
X79631Y-52231D01*
X79669Y-52139D01*
X79669Y-52011D01*
X79735Y-52025D01*
X80180Y-52025D01*
X80915Y-52025D01*
X81030Y-52002D01*
X81127Y-51937D01*
X81252Y-51813D01*
X81252Y-51812D01*
X81317Y-51715D01*
X81339Y-51601D01*
X81340Y-51600D01*
X81340Y-49775D01*
X81317Y-49660D01*
X81252Y-49563D01*
X81155Y-49498D01*
X81040Y-49475D01*
X81009Y-49475D01*
X81009Y-49461D01*
X80971Y-49369D01*
X80901Y-49299D01*
X80810Y-49261D01*
X80711Y-49261D01*
X79911Y-49261D01*
X79819Y-49299D01*
X79749Y-49369D01*
X79711Y-49460D01*
X79711Y-49475D01*
X78688Y-49475D01*
X78663Y-49450D01*
X78350Y-49450D01*
X78300Y-49450D01*
X78200Y-49450D01*
X78200Y-49350D01*
X78300Y-49350D01*
X78350Y-49350D01*
X78663Y-49350D01*
X78725Y-49288D01*
X78724Y-49251D01*
X78702Y-49200D01*
X79275Y-49200D01*
X79390Y-49177D01*
X79487Y-49112D01*
X80487Y-48112D01*
X80552Y-48015D01*
X80575Y-47900D01*
X80575Y-46799D01*
X80624Y-46799D01*
X80716Y-46761D01*
X80786Y-46691D01*
X80824Y-46600D01*
X80824Y-46501D01*
X80824Y-45701D01*
X80786Y-45609D01*
X80716Y-45539D01*
X80669Y-45519D01*
X80691Y-45511D01*
X80761Y-45441D01*
X80799Y-45350D01*
X80799Y-45251D01*
X80799Y-44451D01*
X80761Y-44359D01*
X80691Y-44289D01*
X80600Y-44251D01*
X80501Y-44251D01*
X79901Y-44251D01*
X79809Y-44289D01*
X79739Y-44359D01*
X79716Y-44414D01*
X79691Y-44389D01*
X79600Y-44351D01*
X79501Y-44351D01*
X78720Y-44351D01*
X78720Y-44149D01*
X78799Y-44149D01*
X79599Y-44149D01*
X79691Y-44111D01*
X79723Y-44078D01*
X79739Y-44116D01*
X79809Y-44186D01*
X79900Y-44224D01*
X79999Y-44224D01*
X80599Y-44224D01*
X80691Y-44186D01*
X80761Y-44116D01*
X80799Y-44025D01*
X80799Y-43926D01*
X80799Y-43126D01*
X80761Y-43034D01*
X80714Y-42987D01*
X80761Y-42941D01*
X80799Y-42850D01*
X80799Y-42751D01*
X80799Y-41951D01*
X80761Y-41859D01*
X80691Y-41789D01*
X80600Y-41751D01*
X80501Y-41751D01*
X80025Y-41751D01*
X79740Y-41466D01*
X79740Y-41263D01*
X79768Y-41252D01*
X79931Y-41089D01*
X79939Y-41068D01*
X79948Y-41088D01*
X80111Y-41251D01*
X80324Y-41340D01*
X80555Y-41340D01*
X80584Y-41328D01*
X80787Y-41531D01*
X80788Y-41532D01*
X80885Y-41597D01*
X80999Y-41619D01*
X81000Y-41620D01*
X81961Y-41620D01*
X81961Y-41769D01*
X81964Y-41778D01*
X81899Y-41751D01*
X81662Y-41750D01*
X81600Y-41812D01*
X81600Y-42350D01*
X82038Y-42350D01*
X82100Y-42288D01*
X82099Y-42049D01*
X82099Y-41950D01*
X82095Y-41942D01*
X82160Y-41969D01*
X82259Y-41969D01*
X82859Y-41969D01*
X82951Y-41931D01*
X83021Y-41861D01*
X83059Y-41770D01*
X83059Y-41671D01*
X83059Y-40871D01*
X83035Y-40813D01*
X83200Y-40813D01*
X83311Y-40766D01*
X83299Y-40779D01*
X83261Y-40870D01*
X83261Y-40969D01*
X83260Y-41208D01*
X83322Y-41270D01*
X83760Y-41270D01*
X83760Y-40732D01*
X83698Y-40670D01*
X83543Y-40670D01*
X83634Y-40633D01*
X83741Y-40471D01*
X82960Y-39691D01*
X82889Y-39761D01*
X82179Y-40471D01*
X82286Y-40633D01*
X82378Y-40671D01*
X82161Y-40671D01*
X82069Y-40709D01*
X81999Y-40779D01*
X81961Y-40870D01*
X81961Y-40969D01*
X81961Y-41020D01*
X81124Y-41020D01*
X81008Y-40904D01*
X81020Y-40876D01*
X81020Y-40645D01*
X80932Y-40432D01*
X80769Y-40269D01*
X80556Y-40180D01*
X80325Y-40180D01*
X80112Y-40268D01*
X79949Y-40431D01*
X79940Y-40451D01*
X79932Y-40432D01*
X79769Y-40269D01*
X79650Y-40219D01*
X79650Y-38838D01*
X79650Y-38400D01*
X79650Y-38300D01*
X79650Y-37862D01*
X79588Y-37800D01*
X79349Y-37801D01*
X79250Y-37801D01*
X79159Y-37839D01*
X79089Y-37909D01*
X79051Y-38001D01*
X79050Y-38238D01*
X79112Y-38300D01*
X79650Y-38300D01*
X79650Y-38400D01*
X79112Y-38400D01*
X79050Y-38462D01*
X79051Y-38699D01*
X79089Y-38791D01*
X79159Y-38861D01*
X79250Y-38899D01*
X79349Y-38899D01*
X79588Y-38900D01*
X79650Y-38838D01*
X79650Y-40219D01*
X79556Y-40180D01*
X79325Y-40180D01*
X79112Y-40268D01*
X78949Y-40431D01*
X78874Y-40609D01*
X78874Y-40124D01*
X78874Y-40025D01*
X78836Y-39934D01*
X78766Y-39864D01*
X78674Y-39826D01*
X77537Y-39825D01*
X77475Y-39887D01*
X77475Y-41225D01*
X78813Y-41225D01*
X78875Y-41163D01*
X78874Y-40910D01*
X78948Y-41088D01*
X79111Y-41251D01*
X79140Y-41263D01*
X79140Y-41590D01*
X79163Y-41705D01*
X79228Y-41802D01*
X79701Y-42275D01*
X79701Y-42575D01*
X78853Y-42575D01*
X78874Y-42525D01*
X78874Y-42426D01*
X78875Y-41387D01*
X78813Y-41325D01*
X77525Y-41325D01*
X77475Y-41325D01*
X77375Y-41325D01*
X77375Y-41225D01*
X77375Y-41175D01*
X77375Y-39887D01*
X77313Y-39825D01*
X76176Y-39826D01*
X76125Y-39847D01*
X76125Y-39613D01*
X76150Y-39624D01*
X76249Y-39624D01*
X76899Y-39624D01*
X76991Y-39586D01*
X77061Y-39516D01*
X77099Y-39425D01*
X77099Y-39326D01*
X77099Y-38126D01*
X77061Y-38034D01*
X76991Y-37964D01*
X76925Y-37936D01*
X76925Y-37799D01*
X77124Y-37799D01*
X77216Y-37761D01*
X77286Y-37691D01*
X77324Y-37600D01*
X77324Y-37501D01*
X77324Y-36701D01*
X77286Y-36609D01*
X77216Y-36539D01*
X77125Y-36501D01*
X77026Y-36501D01*
X76426Y-36501D01*
X76334Y-36539D01*
X76264Y-36609D01*
X76226Y-36700D01*
X76226Y-36799D01*
X76226Y-37140D01*
X76174Y-37218D01*
X76175Y-36987D01*
X76175Y-36763D01*
X76174Y-36526D01*
X76136Y-36434D01*
X76066Y-36364D01*
X75975Y-36326D01*
X75876Y-36326D01*
X75637Y-36325D01*
X75575Y-36387D01*
X75575Y-36825D01*
X76113Y-36825D01*
X76175Y-36763D01*
X76175Y-36987D01*
X76113Y-36925D01*
X75575Y-36925D01*
X75575Y-37363D01*
X75637Y-37425D01*
X75876Y-37424D01*
X75975Y-37424D01*
X76066Y-37386D01*
X76136Y-37316D01*
X76146Y-37290D01*
X76125Y-37400D01*
X76125Y-37723D01*
X76066Y-37664D01*
X75975Y-37626D01*
X75876Y-37626D01*
X75076Y-37626D01*
X75073Y-37626D01*
X75070Y-37422D01*
X75075Y-37424D01*
X75174Y-37424D01*
X75413Y-37425D01*
X75475Y-37363D01*
X75475Y-36975D01*
X75475Y-36925D01*
X75475Y-36825D01*
X75475Y-36775D01*
X75475Y-36387D01*
X75413Y-36325D01*
X75174Y-36326D01*
X75075Y-36326D01*
X75054Y-36334D01*
X75051Y-36100D01*
X84800Y-36075D01*
X84800Y-36897D01*
X84711Y-36839D01*
X84153Y-37397D01*
X84125Y-37355D01*
X84082Y-37326D01*
X84641Y-36769D01*
X84534Y-36607D01*
X84095Y-36426D01*
X83620Y-36427D01*
X83186Y-36607D01*
X83079Y-36769D01*
X83555Y-37245D01*
X83414Y-37245D01*
X83009Y-36839D01*
X82847Y-36946D01*
X82723Y-37245D01*
X82654Y-37245D01*
X82654Y-36626D01*
X82616Y-36534D01*
X82546Y-36464D01*
X82455Y-36426D01*
X82356Y-36426D01*
X80466Y-36426D01*
X80374Y-36464D01*
X80304Y-36534D01*
X80283Y-36581D01*
X80241Y-36539D01*
X80150Y-36501D01*
X80051Y-36501D01*
X79251Y-36501D01*
X79159Y-36539D01*
X79089Y-36609D01*
X79071Y-36650D01*
X78602Y-36650D01*
X78586Y-36609D01*
X78516Y-36539D01*
X78425Y-36501D01*
X78326Y-36501D01*
X77726Y-36501D01*
X77634Y-36539D01*
X77564Y-36609D01*
X77526Y-36700D01*
X77526Y-36799D01*
X77526Y-37599D01*
X77564Y-37691D01*
X77634Y-37761D01*
X77725Y-37799D01*
X77824Y-37799D01*
X77925Y-37799D01*
X77925Y-37936D01*
X77859Y-37964D01*
X77789Y-38034D01*
X77751Y-38125D01*
X77751Y-38224D01*
X77751Y-39424D01*
X77789Y-39516D01*
X77859Y-39586D01*
X77950Y-39624D01*
X78049Y-39624D01*
X78699Y-39624D01*
X78791Y-39586D01*
X78861Y-39516D01*
X78899Y-39425D01*
X78899Y-39326D01*
X78899Y-38126D01*
X78861Y-38034D01*
X78791Y-37964D01*
X78725Y-37936D01*
X78725Y-37450D01*
X79072Y-37450D01*
X79089Y-37491D01*
X79159Y-37561D01*
X79250Y-37599D01*
X79349Y-37599D01*
X80149Y-37599D01*
X80241Y-37561D01*
X80266Y-37536D01*
X80266Y-37864D01*
X80241Y-37839D01*
X80150Y-37801D01*
X80051Y-37801D01*
X79812Y-37800D01*
X79750Y-37862D01*
X79750Y-38250D01*
X79750Y-38300D01*
X79750Y-38400D01*
X79750Y-38450D01*
X79750Y-38838D01*
X79812Y-38900D01*
X80051Y-38899D01*
X80150Y-38899D01*
X80241Y-38861D01*
X80311Y-38791D01*
X80333Y-38735D01*
X80374Y-38776D01*
X80465Y-38814D01*
X80564Y-38814D01*
X82045Y-38814D01*
X82029Y-38830D01*
X82066Y-38867D01*
X81947Y-38946D01*
X81766Y-39385D01*
X81767Y-39860D01*
X81947Y-40294D01*
X82109Y-40401D01*
X82854Y-39655D01*
X82889Y-39620D01*
X82960Y-39549D01*
X83031Y-39620D01*
X83066Y-39655D01*
X83811Y-40401D01*
X83973Y-40294D01*
X84154Y-39855D01*
X84153Y-39380D01*
X83973Y-38946D01*
X83853Y-38867D01*
X83891Y-38830D01*
X83874Y-38813D01*
X84100Y-38813D01*
X84534Y-38633D01*
X84641Y-38471D01*
X84082Y-37913D01*
X84125Y-37885D01*
X84153Y-37842D01*
X84711Y-38401D01*
X84800Y-38342D01*
X84800Y-51486D01*
G54D10*
G36*
X73900Y-45582D02*
X73884Y-45589D01*
X73814Y-45659D01*
X73776Y-45750D01*
X73776Y-45849D01*
X73776Y-46049D01*
X73814Y-46141D01*
X73823Y-46150D01*
X73814Y-46159D01*
X73776Y-46250D01*
X73776Y-46349D01*
X73776Y-46527D01*
X73649Y-46400D01*
X73649Y-46001D01*
X73611Y-45909D01*
X73541Y-45839D01*
X73450Y-45801D01*
X73351Y-45801D01*
X72792Y-45801D01*
X72824Y-45725D01*
X72824Y-45626D01*
X72824Y-45026D01*
X72786Y-44934D01*
X72716Y-44864D01*
X72625Y-44826D01*
X72526Y-44826D01*
X71726Y-44826D01*
X71634Y-44864D01*
X71564Y-44934D01*
X71526Y-45025D01*
X71526Y-45124D01*
X71526Y-45724D01*
X71547Y-45776D01*
X71451Y-45776D01*
X71359Y-45814D01*
X71289Y-45884D01*
X71251Y-45975D01*
X71251Y-46074D01*
X71251Y-46674D01*
X71289Y-46766D01*
X71359Y-46836D01*
X71450Y-46874D01*
X71549Y-46874D01*
X72191Y-46874D01*
X71989Y-47076D01*
X71451Y-47076D01*
X71359Y-47114D01*
X71289Y-47184D01*
X71251Y-47275D01*
X71251Y-47374D01*
X71251Y-47974D01*
X71282Y-48051D01*
X71001Y-48051D01*
X70909Y-48089D01*
X70839Y-48159D01*
X70801Y-48250D01*
X70801Y-48349D01*
X70801Y-49149D01*
X70839Y-49241D01*
X70909Y-49311D01*
X71000Y-49349D01*
X71099Y-49349D01*
X71626Y-49349D01*
X71275Y-49700D01*
X70849Y-49700D01*
X70849Y-49551D01*
X70811Y-49459D01*
X70741Y-49389D01*
X70650Y-49351D01*
X70551Y-49351D01*
X69951Y-49351D01*
X69859Y-49389D01*
X69789Y-49459D01*
X69751Y-49550D01*
X69751Y-49649D01*
X69751Y-50449D01*
X69789Y-50541D01*
X69859Y-50611D01*
X69950Y-50649D01*
X70049Y-50649D01*
X70649Y-50649D01*
X70741Y-50611D01*
X70811Y-50541D01*
X70849Y-50450D01*
X70849Y-50351D01*
X70849Y-50300D01*
X71400Y-50300D01*
X71515Y-50277D01*
X71612Y-50212D01*
X72624Y-49200D01*
X73796Y-49200D01*
X73776Y-49250D01*
X73776Y-49349D01*
X73776Y-49500D01*
X72376Y-49500D01*
X70996Y-51270D01*
X68370Y-51231D01*
X68340Y-47269D01*
X68438Y-47504D01*
X68657Y-47724D01*
X68944Y-47843D01*
X69132Y-47843D01*
X68788Y-48188D01*
X68723Y-48285D01*
X68700Y-48400D01*
X68700Y-49351D01*
X68651Y-49351D01*
X68559Y-49389D01*
X68489Y-49459D01*
X68451Y-49550D01*
X68451Y-49649D01*
X68451Y-50449D01*
X68489Y-50541D01*
X68559Y-50611D01*
X68650Y-50649D01*
X68749Y-50649D01*
X69349Y-50649D01*
X69441Y-50611D01*
X69511Y-50541D01*
X69549Y-50450D01*
X69549Y-50351D01*
X69549Y-49551D01*
X69511Y-49459D01*
X69441Y-49389D01*
X69350Y-49351D01*
X69300Y-49351D01*
X69300Y-48524D01*
X69501Y-48323D01*
X69501Y-48349D01*
X69501Y-49149D01*
X69539Y-49241D01*
X69609Y-49311D01*
X69700Y-49349D01*
X69799Y-49349D01*
X70399Y-49349D01*
X70491Y-49311D01*
X70561Y-49241D01*
X70599Y-49150D01*
X70599Y-49051D01*
X70599Y-48251D01*
X70561Y-48159D01*
X70491Y-48089D01*
X70486Y-48087D01*
X71162Y-47413D01*
X71162Y-47412D01*
X71227Y-47315D01*
X71249Y-47201D01*
X71250Y-47200D01*
X71250Y-45669D01*
X71261Y-45665D01*
X71415Y-45511D01*
X71499Y-45309D01*
X71499Y-45091D01*
X71415Y-44889D01*
X71261Y-44735D01*
X71176Y-44700D01*
X71261Y-44665D01*
X71415Y-44511D01*
X71499Y-44309D01*
X71499Y-44091D01*
X71415Y-43889D01*
X71325Y-43799D01*
X71325Y-43599D01*
X71349Y-43599D01*
X71441Y-43561D01*
X71511Y-43491D01*
X71549Y-43400D01*
X71549Y-43301D01*
X71549Y-42501D01*
X71511Y-42409D01*
X71441Y-42339D01*
X71350Y-42301D01*
X71251Y-42301D01*
X70651Y-42301D01*
X70559Y-42339D01*
X70538Y-42360D01*
X70538Y-42199D01*
X70749Y-42199D01*
X70841Y-42161D01*
X70911Y-42091D01*
X70949Y-42000D01*
X70949Y-41901D01*
X70949Y-41101D01*
X70911Y-41009D01*
X70849Y-40947D01*
X70849Y-40550D01*
X70849Y-40451D01*
X70849Y-39651D01*
X70849Y-39050D01*
X70849Y-38951D01*
X70849Y-38151D01*
X70811Y-38059D01*
X70741Y-37989D01*
X70650Y-37951D01*
X70551Y-37951D01*
X69951Y-37951D01*
X69859Y-37989D01*
X69789Y-38059D01*
X69751Y-38150D01*
X69751Y-38249D01*
X69751Y-39049D01*
X69789Y-39141D01*
X69859Y-39211D01*
X69950Y-39249D01*
X70049Y-39249D01*
X70649Y-39249D01*
X70741Y-39211D01*
X70811Y-39141D01*
X70849Y-39050D01*
X70849Y-39651D01*
X70811Y-39559D01*
X70741Y-39489D01*
X70650Y-39451D01*
X70551Y-39451D01*
X69951Y-39451D01*
X69859Y-39489D01*
X69789Y-39559D01*
X69751Y-39650D01*
X69751Y-39749D01*
X69751Y-40549D01*
X69789Y-40641D01*
X69859Y-40711D01*
X69950Y-40749D01*
X70049Y-40749D01*
X70649Y-40749D01*
X70741Y-40711D01*
X70811Y-40641D01*
X70849Y-40550D01*
X70849Y-40947D01*
X70841Y-40939D01*
X70750Y-40901D01*
X70651Y-40901D01*
X70051Y-40901D01*
X69959Y-40939D01*
X69889Y-41009D01*
X69851Y-41100D01*
X69851Y-41199D01*
X69851Y-41592D01*
X69817Y-41643D01*
X69788Y-41787D01*
X69788Y-41958D01*
X69762Y-41896D01*
X69543Y-41676D01*
X69375Y-41606D01*
X69375Y-40738D01*
X69441Y-40711D01*
X69511Y-40641D01*
X69549Y-40550D01*
X69549Y-40451D01*
X69549Y-39651D01*
X69511Y-39559D01*
X69441Y-39489D01*
X69375Y-39461D01*
X69375Y-39238D01*
X69441Y-39211D01*
X69511Y-39141D01*
X69549Y-39050D01*
X69549Y-38951D01*
X69549Y-38151D01*
X69511Y-38059D01*
X69441Y-37989D01*
X69350Y-37951D01*
X69251Y-37951D01*
X68651Y-37951D01*
X68559Y-37989D01*
X68489Y-38059D01*
X68451Y-38150D01*
X68451Y-38249D01*
X68451Y-39049D01*
X68489Y-39141D01*
X68559Y-39211D01*
X68625Y-39238D01*
X68625Y-39461D01*
X68559Y-39489D01*
X68489Y-39559D01*
X68451Y-39650D01*
X68451Y-39749D01*
X68451Y-40549D01*
X68489Y-40641D01*
X68559Y-40711D01*
X68625Y-40738D01*
X68625Y-41708D01*
X68438Y-41895D01*
X68319Y-42182D01*
X68319Y-42493D01*
X68438Y-42780D01*
X68657Y-43000D01*
X68725Y-43028D01*
X68725Y-46372D01*
X68658Y-46400D01*
X68438Y-46619D01*
X68337Y-46860D01*
X68270Y-37688D01*
X68584Y-37499D01*
X68705Y-37550D01*
X69043Y-37550D01*
X69355Y-37421D01*
X69595Y-37182D01*
X69725Y-36870D01*
X69725Y-36819D01*
X70972Y-36075D01*
X72499Y-36075D01*
X72491Y-39993D01*
X72400Y-39975D01*
X71995Y-39975D01*
X71879Y-39859D01*
X71858Y-39850D01*
X71878Y-39842D01*
X72041Y-39679D01*
X72130Y-39466D01*
X72130Y-39235D01*
X72075Y-39101D01*
X72075Y-38899D01*
X72149Y-38899D01*
X72241Y-38861D01*
X72311Y-38791D01*
X72349Y-38700D01*
X72349Y-38601D01*
X72349Y-38001D01*
X72349Y-37400D01*
X72349Y-37301D01*
X72349Y-36701D01*
X72311Y-36609D01*
X72241Y-36539D01*
X72150Y-36501D01*
X72051Y-36501D01*
X71251Y-36501D01*
X71159Y-36539D01*
X71089Y-36609D01*
X71051Y-36700D01*
X71051Y-36799D01*
X71051Y-37399D01*
X71089Y-37491D01*
X71159Y-37561D01*
X71250Y-37599D01*
X71349Y-37599D01*
X72149Y-37599D01*
X72241Y-37561D01*
X72311Y-37491D01*
X72349Y-37400D01*
X72349Y-38001D01*
X72311Y-37909D01*
X72241Y-37839D01*
X72150Y-37801D01*
X72051Y-37801D01*
X71251Y-37801D01*
X71159Y-37839D01*
X71089Y-37909D01*
X71051Y-38000D01*
X71051Y-38099D01*
X71051Y-38699D01*
X71089Y-38791D01*
X71159Y-38861D01*
X71201Y-38878D01*
X71059Y-39021D01*
X70970Y-39234D01*
X70970Y-39465D01*
X71058Y-39678D01*
X71221Y-39841D01*
X71241Y-39849D01*
X71222Y-39858D01*
X71059Y-40021D01*
X70970Y-40234D01*
X70970Y-40465D01*
X71058Y-40678D01*
X71221Y-40841D01*
X71364Y-40901D01*
X71351Y-40901D01*
X71259Y-40939D01*
X71189Y-41009D01*
X71151Y-41100D01*
X71151Y-41199D01*
X71151Y-41999D01*
X71189Y-42091D01*
X71259Y-42161D01*
X71350Y-42199D01*
X71449Y-42199D01*
X72049Y-42199D01*
X72141Y-42161D01*
X72211Y-42091D01*
X72249Y-42000D01*
X72249Y-41901D01*
X72249Y-41101D01*
X72211Y-41009D01*
X72141Y-40939D01*
X72050Y-40901D01*
X71951Y-40901D01*
X71735Y-40901D01*
X71878Y-40842D01*
X71995Y-40725D01*
X72244Y-40725D01*
X72425Y-40905D01*
X72425Y-42295D01*
X72419Y-42301D01*
X71951Y-42301D01*
X71859Y-42339D01*
X71789Y-42409D01*
X71751Y-42500D01*
X71751Y-42599D01*
X71751Y-43399D01*
X71789Y-43491D01*
X71824Y-43526D01*
X71726Y-43526D01*
X71634Y-43564D01*
X71564Y-43634D01*
X71526Y-43725D01*
X71526Y-43824D01*
X71526Y-44424D01*
X71564Y-44516D01*
X71634Y-44586D01*
X71725Y-44624D01*
X71824Y-44624D01*
X72479Y-44624D01*
X72852Y-44997D01*
X72853Y-44997D01*
X72966Y-45073D01*
X73100Y-45100D01*
X73430Y-45100D01*
X73900Y-45569D01*
X73900Y-45582D01*
X73900Y-45582D01*
G37*
G54D26*
X73900Y-45582D02*
X73884Y-45589D01*
X73814Y-45659D01*
X73776Y-45750D01*
X73776Y-45849D01*
X73776Y-46049D01*
X73814Y-46141D01*
X73823Y-46150D01*
X73814Y-46159D01*
X73776Y-46250D01*
X73776Y-46349D01*
X73776Y-46527D01*
X73649Y-46400D01*
X73649Y-46001D01*
X73611Y-45909D01*
X73541Y-45839D01*
X73450Y-45801D01*
X73351Y-45801D01*
X72792Y-45801D01*
X72824Y-45725D01*
X72824Y-45626D01*
X72824Y-45026D01*
X72786Y-44934D01*
X72716Y-44864D01*
X72625Y-44826D01*
X72526Y-44826D01*
X71726Y-44826D01*
X71634Y-44864D01*
X71564Y-44934D01*
X71526Y-45025D01*
X71526Y-45124D01*
X71526Y-45724D01*
X71547Y-45776D01*
X71451Y-45776D01*
X71359Y-45814D01*
X71289Y-45884D01*
X71251Y-45975D01*
X71251Y-46074D01*
X71251Y-46674D01*
X71289Y-46766D01*
X71359Y-46836D01*
X71450Y-46874D01*
X71549Y-46874D01*
X72191Y-46874D01*
X71989Y-47076D01*
X71451Y-47076D01*
X71359Y-47114D01*
X71289Y-47184D01*
X71251Y-47275D01*
X71251Y-47374D01*
X71251Y-47974D01*
X71282Y-48051D01*
X71001Y-48051D01*
X70909Y-48089D01*
X70839Y-48159D01*
X70801Y-48250D01*
X70801Y-48349D01*
X70801Y-49149D01*
X70839Y-49241D01*
X70909Y-49311D01*
X71000Y-49349D01*
X71099Y-49349D01*
X71626Y-49349D01*
X71275Y-49700D01*
X70849Y-49700D01*
X70849Y-49551D01*
X70811Y-49459D01*
X70741Y-49389D01*
X70650Y-49351D01*
X70551Y-49351D01*
X69951Y-49351D01*
X69859Y-49389D01*
X69789Y-49459D01*
X69751Y-49550D01*
X69751Y-49649D01*
X69751Y-50449D01*
X69789Y-50541D01*
X69859Y-50611D01*
X69950Y-50649D01*
X70049Y-50649D01*
X70649Y-50649D01*
X70741Y-50611D01*
X70811Y-50541D01*
X70849Y-50450D01*
X70849Y-50351D01*
X70849Y-50300D01*
X71400Y-50300D01*
X71515Y-50277D01*
X71612Y-50212D01*
X72624Y-49200D01*
X73796Y-49200D01*
X73776Y-49250D01*
X73776Y-49349D01*
X73776Y-49500D01*
X72376Y-49500D01*
X70996Y-51270D01*
X68370Y-51231D01*
X68340Y-47269D01*
X68438Y-47504D01*
X68657Y-47724D01*
X68944Y-47843D01*
X69132Y-47843D01*
X68788Y-48188D01*
X68723Y-48285D01*
X68700Y-48400D01*
X68700Y-49351D01*
X68651Y-49351D01*
X68559Y-49389D01*
X68489Y-49459D01*
X68451Y-49550D01*
X68451Y-49649D01*
X68451Y-50449D01*
X68489Y-50541D01*
X68559Y-50611D01*
X68650Y-50649D01*
X68749Y-50649D01*
X69349Y-50649D01*
X69441Y-50611D01*
X69511Y-50541D01*
X69549Y-50450D01*
X69549Y-50351D01*
X69549Y-49551D01*
X69511Y-49459D01*
X69441Y-49389D01*
X69350Y-49351D01*
X69300Y-49351D01*
X69300Y-48524D01*
X69501Y-48323D01*
X69501Y-48349D01*
X69501Y-49149D01*
X69539Y-49241D01*
X69609Y-49311D01*
X69700Y-49349D01*
X69799Y-49349D01*
X70399Y-49349D01*
X70491Y-49311D01*
X70561Y-49241D01*
X70599Y-49150D01*
X70599Y-49051D01*
X70599Y-48251D01*
X70561Y-48159D01*
X70491Y-48089D01*
X70486Y-48087D01*
X71162Y-47413D01*
X71162Y-47412D01*
X71227Y-47315D01*
X71249Y-47201D01*
X71250Y-47200D01*
X71250Y-45669D01*
X71261Y-45665D01*
X71415Y-45511D01*
X71499Y-45309D01*
X71499Y-45091D01*
X71415Y-44889D01*
X71261Y-44735D01*
X71176Y-44700D01*
X71261Y-44665D01*
X71415Y-44511D01*
X71499Y-44309D01*
X71499Y-44091D01*
X71415Y-43889D01*
X71325Y-43799D01*
X71325Y-43599D01*
X71349Y-43599D01*
X71441Y-43561D01*
X71511Y-43491D01*
X71549Y-43400D01*
X71549Y-43301D01*
X71549Y-42501D01*
X71511Y-42409D01*
X71441Y-42339D01*
X71350Y-42301D01*
X71251Y-42301D01*
X70651Y-42301D01*
X70559Y-42339D01*
X70538Y-42360D01*
X70538Y-42199D01*
X70749Y-42199D01*
X70841Y-42161D01*
X70911Y-42091D01*
X70949Y-42000D01*
X70949Y-41901D01*
X70949Y-41101D01*
X70911Y-41009D01*
X70849Y-40947D01*
X70849Y-40550D01*
X70849Y-40451D01*
X70849Y-39651D01*
X70849Y-39050D01*
X70849Y-38951D01*
X70849Y-38151D01*
X70811Y-38059D01*
X70741Y-37989D01*
X70650Y-37951D01*
X70551Y-37951D01*
X69951Y-37951D01*
X69859Y-37989D01*
X69789Y-38059D01*
X69751Y-38150D01*
X69751Y-38249D01*
X69751Y-39049D01*
X69789Y-39141D01*
X69859Y-39211D01*
X69950Y-39249D01*
X70049Y-39249D01*
X70649Y-39249D01*
X70741Y-39211D01*
X70811Y-39141D01*
X70849Y-39050D01*
X70849Y-39651D01*
X70811Y-39559D01*
X70741Y-39489D01*
X70650Y-39451D01*
X70551Y-39451D01*
X69951Y-39451D01*
X69859Y-39489D01*
X69789Y-39559D01*
X69751Y-39650D01*
X69751Y-39749D01*
X69751Y-40549D01*
X69789Y-40641D01*
X69859Y-40711D01*
X69950Y-40749D01*
X70049Y-40749D01*
X70649Y-40749D01*
X70741Y-40711D01*
X70811Y-40641D01*
X70849Y-40550D01*
X70849Y-40947D01*
X70841Y-40939D01*
X70750Y-40901D01*
X70651Y-40901D01*
X70051Y-40901D01*
X69959Y-40939D01*
X69889Y-41009D01*
X69851Y-41100D01*
X69851Y-41199D01*
X69851Y-41592D01*
X69817Y-41643D01*
X69788Y-41787D01*
X69788Y-41958D01*
X69762Y-41896D01*
X69543Y-41676D01*
X69375Y-41606D01*
X69375Y-40738D01*
X69441Y-40711D01*
X69511Y-40641D01*
X69549Y-40550D01*
X69549Y-40451D01*
X69549Y-39651D01*
X69511Y-39559D01*
X69441Y-39489D01*
X69375Y-39461D01*
X69375Y-39238D01*
X69441Y-39211D01*
X69511Y-39141D01*
X69549Y-39050D01*
X69549Y-38951D01*
X69549Y-38151D01*
X69511Y-38059D01*
X69441Y-37989D01*
X69350Y-37951D01*
X69251Y-37951D01*
X68651Y-37951D01*
X68559Y-37989D01*
X68489Y-38059D01*
X68451Y-38150D01*
X68451Y-38249D01*
X68451Y-39049D01*
X68489Y-39141D01*
X68559Y-39211D01*
X68625Y-39238D01*
X68625Y-39461D01*
X68559Y-39489D01*
X68489Y-39559D01*
X68451Y-39650D01*
X68451Y-39749D01*
X68451Y-40549D01*
X68489Y-40641D01*
X68559Y-40711D01*
X68625Y-40738D01*
X68625Y-41708D01*
X68438Y-41895D01*
X68319Y-42182D01*
X68319Y-42493D01*
X68438Y-42780D01*
X68657Y-43000D01*
X68725Y-43028D01*
X68725Y-46372D01*
X68658Y-46400D01*
X68438Y-46619D01*
X68337Y-46860D01*
X68270Y-37688D01*
X68584Y-37499D01*
X68705Y-37550D01*
X69043Y-37550D01*
X69355Y-37421D01*
X69595Y-37182D01*
X69725Y-36870D01*
X69725Y-36819D01*
X70972Y-36075D01*
X72499Y-36075D01*
X72491Y-39993D01*
X72400Y-39975D01*
X71995Y-39975D01*
X71879Y-39859D01*
X71858Y-39850D01*
X71878Y-39842D01*
X72041Y-39679D01*
X72130Y-39466D01*
X72130Y-39235D01*
X72075Y-39101D01*
X72075Y-38899D01*
X72149Y-38899D01*
X72241Y-38861D01*
X72311Y-38791D01*
X72349Y-38700D01*
X72349Y-38601D01*
X72349Y-38001D01*
X72349Y-37400D01*
X72349Y-37301D01*
X72349Y-36701D01*
X72311Y-36609D01*
X72241Y-36539D01*
X72150Y-36501D01*
X72051Y-36501D01*
X71251Y-36501D01*
X71159Y-36539D01*
X71089Y-36609D01*
X71051Y-36700D01*
X71051Y-36799D01*
X71051Y-37399D01*
X71089Y-37491D01*
X71159Y-37561D01*
X71250Y-37599D01*
X71349Y-37599D01*
X72149Y-37599D01*
X72241Y-37561D01*
X72311Y-37491D01*
X72349Y-37400D01*
X72349Y-38001D01*
X72311Y-37909D01*
X72241Y-37839D01*
X72150Y-37801D01*
X72051Y-37801D01*
X71251Y-37801D01*
X71159Y-37839D01*
X71089Y-37909D01*
X71051Y-38000D01*
X71051Y-38099D01*
X71051Y-38699D01*
X71089Y-38791D01*
X71159Y-38861D01*
X71201Y-38878D01*
X71059Y-39021D01*
X70970Y-39234D01*
X70970Y-39465D01*
X71058Y-39678D01*
X71221Y-39841D01*
X71241Y-39849D01*
X71222Y-39858D01*
X71059Y-40021D01*
X70970Y-40234D01*
X70970Y-40465D01*
X71058Y-40678D01*
X71221Y-40841D01*
X71364Y-40901D01*
X71351Y-40901D01*
X71259Y-40939D01*
X71189Y-41009D01*
X71151Y-41100D01*
X71151Y-41199D01*
X71151Y-41999D01*
X71189Y-42091D01*
X71259Y-42161D01*
X71350Y-42199D01*
X71449Y-42199D01*
X72049Y-42199D01*
X72141Y-42161D01*
X72211Y-42091D01*
X72249Y-42000D01*
X72249Y-41901D01*
X72249Y-41101D01*
X72211Y-41009D01*
X72141Y-40939D01*
X72050Y-40901D01*
X71951Y-40901D01*
X71735Y-40901D01*
X71878Y-40842D01*
X71995Y-40725D01*
X72244Y-40725D01*
X72425Y-40905D01*
X72425Y-42295D01*
X72419Y-42301D01*
X71951Y-42301D01*
X71859Y-42339D01*
X71789Y-42409D01*
X71751Y-42500D01*
X71751Y-42599D01*
X71751Y-43399D01*
X71789Y-43491D01*
X71824Y-43526D01*
X71726Y-43526D01*
X71634Y-43564D01*
X71564Y-43634D01*
X71526Y-43725D01*
X71526Y-43824D01*
X71526Y-44424D01*
X71564Y-44516D01*
X71634Y-44586D01*
X71725Y-44624D01*
X71824Y-44624D01*
X72479Y-44624D01*
X72852Y-44997D01*
X72853Y-44997D01*
X72966Y-45073D01*
X73100Y-45100D01*
X73430Y-45100D01*
X73900Y-45569D01*
X73900Y-45582D01*
G54D10*
G36*
X74810Y-45184D02*
X74800Y-49500D01*
X74724Y-49500D01*
X74724Y-49451D01*
X74724Y-49251D01*
X74686Y-49159D01*
X74677Y-49150D01*
X74686Y-49141D01*
X74724Y-49050D01*
X74724Y-48951D01*
X74724Y-48751D01*
X74686Y-48659D01*
X74677Y-48650D01*
X74686Y-48641D01*
X74724Y-48550D01*
X74724Y-48451D01*
X74724Y-48251D01*
X74686Y-48159D01*
X74677Y-48150D01*
X74686Y-48141D01*
X74724Y-48050D01*
X74724Y-47951D01*
X74724Y-47751D01*
X74686Y-47659D01*
X74677Y-47650D01*
X74686Y-47641D01*
X74724Y-47550D01*
X74724Y-47451D01*
X74724Y-47251D01*
X74686Y-47159D01*
X74677Y-47150D01*
X74686Y-47141D01*
X74724Y-47050D01*
X74724Y-46951D01*
X74724Y-46751D01*
X74686Y-46659D01*
X74677Y-46650D01*
X74686Y-46641D01*
X74724Y-46550D01*
X74724Y-46451D01*
X74724Y-46251D01*
X74686Y-46159D01*
X74677Y-46150D01*
X74686Y-46141D01*
X74724Y-46050D01*
X74724Y-45951D01*
X74724Y-45751D01*
X74686Y-45659D01*
X74616Y-45589D01*
X74600Y-45582D01*
X74600Y-45425D01*
X74573Y-45291D01*
X74497Y-45178D01*
X74497Y-45177D01*
X73822Y-44503D01*
X73709Y-44427D01*
X73575Y-44400D01*
X73244Y-44400D01*
X72824Y-43979D01*
X72824Y-43726D01*
X72786Y-43634D01*
X72721Y-43569D01*
X72741Y-43561D01*
X72811Y-43491D01*
X72849Y-43400D01*
X72849Y-43301D01*
X72849Y-42931D01*
X73065Y-42715D01*
X73110Y-42647D01*
X73110Y-43864D01*
X74810Y-45184D01*
X74810Y-45184D01*
G37*
G54D26*
X74810Y-45184D02*
X74800Y-49500D01*
X74724Y-49500D01*
X74724Y-49451D01*
X74724Y-49251D01*
X74686Y-49159D01*
X74677Y-49150D01*
X74686Y-49141D01*
X74724Y-49050D01*
X74724Y-48951D01*
X74724Y-48751D01*
X74686Y-48659D01*
X74677Y-48650D01*
X74686Y-48641D01*
X74724Y-48550D01*
X74724Y-48451D01*
X74724Y-48251D01*
X74686Y-48159D01*
X74677Y-48150D01*
X74686Y-48141D01*
X74724Y-48050D01*
X74724Y-47951D01*
X74724Y-47751D01*
X74686Y-47659D01*
X74677Y-47650D01*
X74686Y-47641D01*
X74724Y-47550D01*
X74724Y-47451D01*
X74724Y-47251D01*
X74686Y-47159D01*
X74677Y-47150D01*
X74686Y-47141D01*
X74724Y-47050D01*
X74724Y-46951D01*
X74724Y-46751D01*
X74686Y-46659D01*
X74677Y-46650D01*
X74686Y-46641D01*
X74724Y-46550D01*
X74724Y-46451D01*
X74724Y-46251D01*
X74686Y-46159D01*
X74677Y-46150D01*
X74686Y-46141D01*
X74724Y-46050D01*
X74724Y-45951D01*
X74724Y-45751D01*
X74686Y-45659D01*
X74616Y-45589D01*
X74600Y-45582D01*
X74600Y-45425D01*
X74573Y-45291D01*
X74497Y-45178D01*
X74497Y-45177D01*
X73822Y-44503D01*
X73709Y-44427D01*
X73575Y-44400D01*
X73244Y-44400D01*
X72824Y-43979D01*
X72824Y-43726D01*
X72786Y-43634D01*
X72721Y-43569D01*
X72741Y-43561D01*
X72811Y-43491D01*
X72849Y-43400D01*
X72849Y-43301D01*
X72849Y-42931D01*
X73065Y-42715D01*
X73110Y-42647D01*
X73110Y-43864D01*
X74810Y-45184D01*
M02*
