%FSLAX34Y34*%
G04 Gerber Fmt 3.4, Leading zero omitted, Abs format*
G04 (created by PCBNEW (2013-11-28 BZR 4510)-product) date Thu 15 May 2014 02:09:21 PM EDT*
%MOIN*%
G01*
G70*
G90*
G04 APERTURE LIST*
%ADD10C,0.005906*%
%ADD11R,0.045000X0.025000*%
%ADD12C,0.065000*%
%ADD13C,0.118100*%
%ADD14C,0.060000*%
%ADD15C,0.106300*%
%ADD16C,0.189000*%
%ADD17R,0.189000X0.189000*%
%ADD18C,0.078700*%
%ADD19C,0.120000*%
%ADD20R,0.045000X0.020000*%
%ADD21R,0.065000X0.120000*%
%ADD22R,0.240000X0.240000*%
%ADD23R,0.031496X0.017717*%
%ADD24R,0.025000X0.045000*%
%ADD25R,0.055000X0.055000*%
%ADD26C,0.055000*%
%ADD27C,0.035000*%
%ADD28C,0.010000*%
%ADD29C,0.020000*%
%ADD30C,0.025000*%
%ADD31C,0.015000*%
%ADD32C,0.030000*%
G04 APERTURE END LIST*
G54D10*
G54D11*
X78310Y-38960D03*
X78310Y-38360D03*
G54D12*
X82850Y-46950D03*
X82850Y-45950D03*
X82850Y-45150D03*
X82850Y-44150D03*
G54D13*
X83900Y-48150D03*
X83900Y-42750D03*
G54D14*
X70950Y-44200D03*
X70950Y-45200D03*
X70163Y-45200D03*
X70163Y-44200D03*
G54D15*
X69100Y-42338D03*
X69100Y-47062D03*
G54D16*
X83860Y-37620D03*
G54D17*
X81460Y-37620D03*
G54D16*
X82960Y-39620D03*
G54D18*
X78450Y-52106D03*
X81010Y-50334D03*
X81010Y-52106D03*
X78450Y-50334D03*
G54D19*
X84035Y-51860D03*
X68875Y-36700D03*
G54D20*
X74250Y-45900D03*
X74250Y-46400D03*
X74250Y-46900D03*
X74250Y-47400D03*
X74250Y-47900D03*
X74250Y-48400D03*
X74250Y-48900D03*
X74250Y-49400D03*
X78250Y-49400D03*
X78250Y-48900D03*
X78250Y-48400D03*
X78250Y-47900D03*
X78250Y-47400D03*
X78250Y-46900D03*
X78250Y-46400D03*
X78250Y-45900D03*
G54D21*
X79200Y-38880D03*
G54D22*
X78300Y-41380D03*
G54D21*
X77400Y-38880D03*
G54D23*
X72884Y-48422D03*
X72255Y-48422D03*
X72255Y-48737D03*
X72884Y-48737D03*
X79884Y-48332D03*
X79255Y-48332D03*
X79255Y-48647D03*
X79884Y-48647D03*
G54D11*
X68780Y-41100D03*
X68780Y-40500D03*
X73340Y-47150D03*
X73340Y-46550D03*
G54D24*
X73470Y-45770D03*
X72870Y-45770D03*
G54D11*
X76620Y-37610D03*
X76620Y-37010D03*
X80070Y-39870D03*
X80070Y-39270D03*
G54D24*
X80620Y-42400D03*
X81220Y-42400D03*
X79720Y-46780D03*
X79120Y-46780D03*
G54D11*
X83310Y-49580D03*
X83310Y-50180D03*
G54D24*
X72510Y-44870D03*
X71910Y-44870D03*
G54D11*
X70160Y-43350D03*
X70160Y-42750D03*
G54D24*
X80600Y-43575D03*
X81200Y-43575D03*
G54D11*
X82610Y-47800D03*
X82610Y-48400D03*
X69550Y-41100D03*
X69550Y-40500D03*
G54D24*
X71140Y-40300D03*
X70540Y-40300D03*
G54D11*
X82030Y-41770D03*
X82030Y-42370D03*
G54D24*
X72730Y-47810D03*
X73330Y-47810D03*
G54D11*
X79950Y-45210D03*
X79950Y-45810D03*
X79750Y-51270D03*
X79750Y-50670D03*
X84200Y-49580D03*
X84200Y-50180D03*
G54D25*
X75042Y-37210D03*
G54D26*
X75042Y-38210D03*
G54D27*
X81800Y-48860D03*
X80960Y-47440D03*
X82620Y-42930D03*
X81900Y-44200D03*
X78710Y-37960D03*
X71850Y-50190D03*
X71850Y-47880D03*
X71710Y-40450D03*
X81680Y-40590D03*
X70250Y-51190D03*
X70440Y-50270D03*
X70550Y-50750D03*
X71390Y-43280D03*
X76720Y-40108D03*
X80230Y-41730D03*
G54D28*
X79720Y-46780D02*
X80510Y-46780D01*
G54D29*
X82620Y-42930D02*
X82630Y-42930D01*
G54D28*
X81900Y-45390D02*
X81900Y-44200D01*
X80510Y-46780D02*
X81900Y-45390D01*
X78250Y-49400D02*
X78740Y-49400D01*
X78740Y-49400D02*
X78830Y-49310D01*
X79884Y-48647D02*
X80992Y-48647D01*
X82160Y-46640D02*
X82850Y-45950D01*
X82160Y-47480D02*
X82160Y-46640D01*
X80992Y-48647D02*
X82160Y-47480D01*
X79884Y-48332D02*
X80957Y-48332D01*
X81940Y-46060D02*
X82850Y-45150D01*
X81940Y-47350D02*
X81940Y-46060D01*
X80957Y-48332D02*
X81940Y-47350D01*
X73340Y-46550D02*
X72340Y-46550D01*
X71850Y-50190D02*
X71860Y-50200D01*
X71850Y-47040D02*
X71850Y-47880D01*
X72340Y-46550D02*
X71850Y-47040D01*
X73340Y-46550D02*
X73680Y-46550D01*
X73830Y-46400D02*
X74250Y-46400D01*
X73680Y-46550D02*
X73830Y-46400D01*
X69140Y-41100D02*
X69140Y-42298D01*
X69140Y-42298D02*
X69100Y-42338D01*
X69550Y-41100D02*
X69140Y-41100D01*
X69140Y-41100D02*
X68780Y-41100D01*
G54D30*
X69100Y-47062D02*
X69100Y-42338D01*
G54D29*
X75042Y-37210D02*
X75636Y-37210D01*
X76036Y-37610D02*
X76620Y-37610D01*
X75636Y-37210D02*
X76036Y-37610D01*
X77340Y-37970D02*
X78230Y-37970D01*
X78310Y-38050D02*
X78310Y-38360D01*
X78230Y-37970D02*
X78310Y-38050D01*
X76620Y-37610D02*
X76980Y-37610D01*
X76980Y-37610D02*
X77340Y-37970D01*
X81460Y-37620D02*
X80320Y-37620D01*
X78010Y-37300D02*
X77340Y-37970D01*
X80000Y-37300D02*
X78010Y-37300D01*
X80320Y-37620D02*
X80000Y-37300D01*
G54D31*
X77400Y-38030D02*
X77400Y-38880D01*
X77340Y-37970D02*
X77400Y-38030D01*
G54D32*
X83900Y-42750D02*
X83900Y-48150D01*
G54D31*
X83900Y-48150D02*
X83900Y-49100D01*
X83820Y-49180D02*
X83820Y-49580D01*
X83900Y-49100D02*
X83820Y-49180D01*
X84200Y-49580D02*
X83820Y-49580D01*
X83820Y-49580D02*
X83310Y-49580D01*
G54D29*
X71140Y-40300D02*
X71560Y-40300D01*
X71560Y-40300D02*
X71710Y-40450D01*
X82030Y-40940D02*
X82030Y-41770D01*
X81680Y-40590D02*
X82030Y-40940D01*
G54D28*
X70470Y-44680D02*
X70950Y-44200D01*
X69910Y-44680D02*
X70470Y-44680D01*
X69590Y-45000D02*
X69910Y-44680D01*
X69590Y-45600D02*
X69590Y-45000D01*
X69830Y-45840D02*
X69590Y-45600D01*
X69830Y-48340D02*
X69830Y-45840D01*
X70060Y-48570D02*
X69830Y-48340D01*
X70060Y-51000D02*
X70060Y-48570D01*
X70250Y-51190D02*
X70060Y-51000D01*
G54D29*
X71910Y-44870D02*
X71910Y-44370D01*
X71740Y-44200D02*
X70950Y-44200D01*
X71910Y-44370D02*
X71740Y-44200D01*
X70163Y-44200D02*
X70163Y-43353D01*
X70163Y-43353D02*
X70160Y-43350D01*
X82850Y-44150D02*
X82850Y-43830D01*
X82595Y-43575D02*
X81200Y-43575D01*
X82850Y-43830D02*
X82595Y-43575D01*
G54D28*
X82610Y-47800D02*
X82610Y-47700D01*
X82850Y-47460D02*
X82850Y-46950D01*
X82610Y-47700D02*
X82850Y-47460D01*
G54D31*
X72884Y-48737D02*
X73437Y-48737D01*
X73600Y-48900D02*
X74250Y-48900D01*
X73437Y-48737D02*
X73600Y-48900D01*
X72884Y-48422D02*
X73487Y-48422D01*
X73510Y-48400D02*
X74250Y-48400D01*
X73487Y-48422D02*
X73510Y-48400D01*
G54D28*
X78250Y-48400D02*
X78730Y-48400D01*
X78797Y-48332D02*
X79255Y-48332D01*
X78730Y-48400D02*
X78797Y-48332D01*
X78250Y-48900D02*
X78630Y-48900D01*
X78882Y-48647D02*
X79255Y-48647D01*
X78630Y-48900D02*
X78882Y-48647D01*
X79750Y-50670D02*
X79750Y-49700D01*
X79730Y-49720D02*
X79730Y-49700D01*
X79750Y-49700D02*
X79730Y-49720D01*
G54D31*
X78250Y-47900D02*
X77870Y-47900D01*
X80376Y-49700D02*
X81010Y-50334D01*
X77830Y-49700D02*
X79730Y-49700D01*
X79730Y-49700D02*
X80376Y-49700D01*
X77810Y-49680D02*
X77830Y-49700D01*
X77810Y-47960D02*
X77810Y-49680D01*
X77870Y-47900D02*
X77810Y-47960D01*
G54D28*
X78250Y-47400D02*
X79140Y-47400D01*
X79600Y-45810D02*
X79950Y-45810D01*
X79430Y-45980D02*
X79600Y-45810D01*
X79430Y-47110D02*
X79430Y-45980D01*
X79140Y-47400D02*
X79430Y-47110D01*
G54D31*
X74250Y-47900D02*
X73820Y-47900D01*
X73730Y-47810D02*
X73330Y-47810D01*
X73820Y-47900D02*
X73730Y-47810D01*
G54D28*
X71650Y-49060D02*
X71650Y-48737D01*
X70440Y-50270D02*
X71650Y-49060D01*
X72255Y-48737D02*
X71650Y-48737D01*
X71650Y-48737D02*
X71050Y-48737D01*
X71050Y-48737D02*
X70877Y-48737D01*
X70163Y-48023D02*
X70163Y-45200D01*
X70877Y-48737D02*
X70163Y-48023D01*
X72502Y-48422D02*
X72255Y-48422D01*
X72570Y-48490D02*
X72502Y-48422D01*
X72570Y-48970D02*
X72570Y-48490D01*
X72350Y-49190D02*
X72570Y-48970D01*
X72110Y-49190D02*
X72350Y-49190D01*
X70550Y-50750D02*
X72110Y-49190D01*
X72255Y-48422D02*
X71582Y-48422D01*
X70950Y-47790D02*
X70950Y-45200D01*
X71582Y-48422D02*
X70950Y-47790D01*
G54D29*
X72510Y-44870D02*
X72510Y-44400D01*
X72510Y-44400D02*
X71390Y-43280D01*
X72510Y-44870D02*
X73220Y-44870D01*
X73470Y-45120D02*
X73470Y-45770D01*
X73220Y-44870D02*
X73470Y-45120D01*
G54D28*
X73470Y-45770D02*
X73820Y-45770D01*
X73950Y-45900D02*
X74250Y-45900D01*
X73820Y-45770D02*
X73950Y-45900D01*
X76692Y-40080D02*
X76690Y-40080D01*
X76720Y-40108D02*
X76692Y-40080D01*
G54D29*
X76690Y-40080D02*
X76690Y-38760D01*
X76140Y-38210D02*
X75042Y-38210D01*
X76690Y-38760D02*
X76140Y-38210D01*
X80070Y-39870D02*
X80070Y-41000D01*
X79690Y-41380D02*
X78300Y-41380D01*
X80070Y-41000D02*
X79690Y-41380D01*
X78300Y-41380D02*
X78300Y-42790D01*
X78300Y-42790D02*
X78470Y-42960D01*
X76740Y-41380D02*
X76740Y-40130D01*
X76740Y-40130D02*
X76690Y-40080D01*
X78300Y-41380D02*
X76740Y-41380D01*
X78310Y-38960D02*
X78310Y-41370D01*
X78310Y-41370D02*
X78300Y-41380D01*
X80620Y-42400D02*
X80620Y-42120D01*
X80620Y-42120D02*
X80230Y-41730D01*
X79700Y-42960D02*
X80035Y-43295D01*
X78470Y-42960D02*
X79700Y-42960D01*
X80600Y-42980D02*
X80350Y-42980D01*
X80350Y-42980D02*
X80035Y-43295D01*
X78250Y-45080D02*
X78250Y-45900D01*
X80035Y-43295D02*
X78250Y-45080D01*
X80600Y-43575D02*
X80600Y-42980D01*
X80600Y-42980D02*
X80600Y-42970D01*
X80600Y-42970D02*
X80600Y-42420D01*
X80600Y-42420D02*
X80620Y-42400D01*
G54D31*
X72730Y-47810D02*
X72730Y-47380D01*
X72960Y-47150D02*
X73340Y-47150D01*
X72730Y-47380D02*
X72960Y-47150D01*
X73340Y-47150D02*
X73550Y-47150D01*
X73800Y-47400D02*
X74250Y-47400D01*
X73550Y-47150D02*
X73800Y-47400D01*
G54D28*
X74250Y-46900D02*
X74250Y-47400D01*
X79120Y-46780D02*
X79120Y-46370D01*
X79950Y-45420D02*
X79950Y-45210D01*
X79880Y-45490D02*
X79950Y-45420D01*
X79590Y-45490D02*
X79880Y-45490D01*
X79210Y-45870D02*
X79590Y-45490D01*
X79210Y-46280D02*
X79210Y-45870D01*
X79120Y-46370D02*
X79210Y-46280D01*
X78250Y-46900D02*
X78770Y-46900D01*
X78890Y-46780D02*
X79120Y-46780D01*
X78770Y-46900D02*
X78890Y-46780D01*
X78250Y-46900D02*
X77900Y-46900D01*
X78380Y-51270D02*
X79750Y-51270D01*
X77570Y-50460D02*
X78380Y-51270D01*
X77570Y-47230D02*
X77570Y-50460D01*
X77900Y-46900D02*
X77570Y-47230D01*
G54D10*
G36*
X82631Y-44649D02*
X82541Y-44687D01*
X82387Y-44840D01*
X82304Y-45041D01*
X82304Y-45258D01*
X82308Y-45267D01*
X81727Y-45847D01*
X81662Y-45945D01*
X81640Y-46060D01*
X81640Y-47225D01*
X80833Y-48032D01*
X80184Y-48032D01*
X80184Y-48031D01*
X80095Y-47995D01*
X80095Y-47054D01*
X80095Y-46955D01*
X80095Y-46892D01*
X80032Y-46830D01*
X79770Y-46830D01*
X79770Y-47192D01*
X79832Y-47255D01*
X79894Y-47255D01*
X79986Y-47216D01*
X80056Y-47146D01*
X80095Y-47054D01*
X80095Y-47995D01*
X80092Y-47993D01*
X79992Y-47993D01*
X79677Y-47993D01*
X79585Y-48031D01*
X79570Y-48047D01*
X79554Y-48031D01*
X79462Y-47993D01*
X79362Y-47993D01*
X79047Y-47993D01*
X78955Y-48031D01*
X78955Y-48032D01*
X78797Y-48032D01*
X78725Y-48046D01*
X78725Y-47950D01*
X78725Y-47750D01*
X78704Y-47700D01*
X79140Y-47700D01*
X79140Y-47699D01*
X79254Y-47677D01*
X79254Y-47677D01*
X79352Y-47612D01*
X79642Y-47322D01*
X79642Y-47322D01*
X79681Y-47263D01*
X79707Y-47224D01*
X79707Y-47224D01*
X79730Y-47110D01*
X79730Y-46722D01*
X79770Y-46722D01*
X79770Y-46730D01*
X80032Y-46730D01*
X80095Y-46667D01*
X80095Y-46604D01*
X80095Y-46505D01*
X80056Y-46413D01*
X79986Y-46343D01*
X79894Y-46305D01*
X79832Y-46305D01*
X79770Y-46367D01*
X79770Y-46305D01*
X79730Y-46305D01*
X79730Y-46185D01*
X79774Y-46185D01*
X80224Y-46185D01*
X80316Y-46146D01*
X80386Y-46076D01*
X80425Y-45984D01*
X80425Y-45885D01*
X80425Y-45635D01*
X80386Y-45543D01*
X80353Y-45510D01*
X80386Y-45476D01*
X80425Y-45384D01*
X80425Y-45285D01*
X80425Y-45035D01*
X80386Y-44943D01*
X80316Y-44873D01*
X80224Y-44835D01*
X80125Y-44835D01*
X79675Y-44835D01*
X79583Y-44873D01*
X79513Y-44943D01*
X79475Y-45035D01*
X79475Y-45134D01*
X79475Y-45212D01*
X79377Y-45277D01*
X78997Y-45657D01*
X78932Y-45755D01*
X78910Y-45870D01*
X78910Y-46155D01*
X78907Y-46157D01*
X78842Y-46255D01*
X78820Y-46370D01*
X78820Y-46376D01*
X78783Y-46413D01*
X78745Y-46505D01*
X78745Y-46523D01*
X78725Y-46536D01*
X78725Y-46512D01*
X78662Y-46450D01*
X78300Y-46450D01*
X78300Y-46457D01*
X78200Y-46457D01*
X78200Y-46450D01*
X78192Y-46450D01*
X78192Y-46350D01*
X78200Y-46350D01*
X78200Y-46342D01*
X78300Y-46342D01*
X78300Y-46350D01*
X78662Y-46350D01*
X78725Y-46287D01*
X78725Y-46250D01*
X78686Y-46158D01*
X78678Y-46150D01*
X78686Y-46141D01*
X78725Y-46049D01*
X78725Y-45950D01*
X78725Y-45750D01*
X78686Y-45658D01*
X78616Y-45588D01*
X78600Y-45581D01*
X78600Y-45224D01*
X80225Y-43599D01*
X80225Y-43849D01*
X80263Y-43941D01*
X80333Y-44011D01*
X80425Y-44050D01*
X80524Y-44050D01*
X80774Y-44050D01*
X80866Y-44011D01*
X80899Y-43978D01*
X80933Y-44011D01*
X81025Y-44050D01*
X81124Y-44050D01*
X81374Y-44050D01*
X81466Y-44011D01*
X81536Y-43941D01*
X81543Y-43925D01*
X82352Y-43925D01*
X82304Y-44041D01*
X82304Y-44258D01*
X82387Y-44458D01*
X82540Y-44612D01*
X82631Y-44649D01*
X82631Y-44649D01*
G37*
G54D28*
X82631Y-44649D02*
X82541Y-44687D01*
X82387Y-44840D01*
X82304Y-45041D01*
X82304Y-45258D01*
X82308Y-45267D01*
X81727Y-45847D01*
X81662Y-45945D01*
X81640Y-46060D01*
X81640Y-47225D01*
X80833Y-48032D01*
X80184Y-48032D01*
X80184Y-48031D01*
X80095Y-47995D01*
X80095Y-47054D01*
X80095Y-46955D01*
X80095Y-46892D01*
X80032Y-46830D01*
X79770Y-46830D01*
X79770Y-47192D01*
X79832Y-47255D01*
X79894Y-47255D01*
X79986Y-47216D01*
X80056Y-47146D01*
X80095Y-47054D01*
X80095Y-47995D01*
X80092Y-47993D01*
X79992Y-47993D01*
X79677Y-47993D01*
X79585Y-48031D01*
X79570Y-48047D01*
X79554Y-48031D01*
X79462Y-47993D01*
X79362Y-47993D01*
X79047Y-47993D01*
X78955Y-48031D01*
X78955Y-48032D01*
X78797Y-48032D01*
X78725Y-48046D01*
X78725Y-47950D01*
X78725Y-47750D01*
X78704Y-47700D01*
X79140Y-47700D01*
X79140Y-47699D01*
X79254Y-47677D01*
X79254Y-47677D01*
X79352Y-47612D01*
X79642Y-47322D01*
X79642Y-47322D01*
X79681Y-47263D01*
X79707Y-47224D01*
X79707Y-47224D01*
X79730Y-47110D01*
X79730Y-46722D01*
X79770Y-46722D01*
X79770Y-46730D01*
X80032Y-46730D01*
X80095Y-46667D01*
X80095Y-46604D01*
X80095Y-46505D01*
X80056Y-46413D01*
X79986Y-46343D01*
X79894Y-46305D01*
X79832Y-46305D01*
X79770Y-46367D01*
X79770Y-46305D01*
X79730Y-46305D01*
X79730Y-46185D01*
X79774Y-46185D01*
X80224Y-46185D01*
X80316Y-46146D01*
X80386Y-46076D01*
X80425Y-45984D01*
X80425Y-45885D01*
X80425Y-45635D01*
X80386Y-45543D01*
X80353Y-45510D01*
X80386Y-45476D01*
X80425Y-45384D01*
X80425Y-45285D01*
X80425Y-45035D01*
X80386Y-44943D01*
X80316Y-44873D01*
X80224Y-44835D01*
X80125Y-44835D01*
X79675Y-44835D01*
X79583Y-44873D01*
X79513Y-44943D01*
X79475Y-45035D01*
X79475Y-45134D01*
X79475Y-45212D01*
X79377Y-45277D01*
X78997Y-45657D01*
X78932Y-45755D01*
X78910Y-45870D01*
X78910Y-46155D01*
X78907Y-46157D01*
X78842Y-46255D01*
X78820Y-46370D01*
X78820Y-46376D01*
X78783Y-46413D01*
X78745Y-46505D01*
X78745Y-46523D01*
X78725Y-46536D01*
X78725Y-46512D01*
X78662Y-46450D01*
X78300Y-46450D01*
X78300Y-46457D01*
X78200Y-46457D01*
X78200Y-46450D01*
X78192Y-46450D01*
X78192Y-46350D01*
X78200Y-46350D01*
X78200Y-46342D01*
X78300Y-46342D01*
X78300Y-46350D01*
X78662Y-46350D01*
X78725Y-46287D01*
X78725Y-46250D01*
X78686Y-46158D01*
X78678Y-46150D01*
X78686Y-46141D01*
X78725Y-46049D01*
X78725Y-45950D01*
X78725Y-45750D01*
X78686Y-45658D01*
X78616Y-45588D01*
X78600Y-45581D01*
X78600Y-45224D01*
X80225Y-43599D01*
X80225Y-43849D01*
X80263Y-43941D01*
X80333Y-44011D01*
X80425Y-44050D01*
X80524Y-44050D01*
X80774Y-44050D01*
X80866Y-44011D01*
X80899Y-43978D01*
X80933Y-44011D01*
X81025Y-44050D01*
X81124Y-44050D01*
X81374Y-44050D01*
X81466Y-44011D01*
X81536Y-43941D01*
X81543Y-43925D01*
X82352Y-43925D01*
X82304Y-44041D01*
X82304Y-44258D01*
X82387Y-44458D01*
X82540Y-44612D01*
X82631Y-44649D01*
G54D10*
G36*
X84893Y-52701D02*
X84885Y-52701D01*
X84885Y-51691D01*
X84756Y-51379D01*
X84675Y-51297D01*
X84675Y-50354D01*
X84675Y-50292D01*
X84612Y-50230D01*
X84250Y-50230D01*
X84250Y-50492D01*
X84312Y-50555D01*
X84375Y-50555D01*
X84474Y-50555D01*
X84566Y-50516D01*
X84636Y-50446D01*
X84675Y-50354D01*
X84675Y-51297D01*
X84517Y-51139D01*
X84204Y-51010D01*
X84150Y-51010D01*
X84150Y-50492D01*
X84150Y-50230D01*
X83787Y-50230D01*
X83755Y-50262D01*
X83722Y-50230D01*
X83360Y-50230D01*
X83360Y-50492D01*
X83422Y-50555D01*
X83485Y-50555D01*
X83584Y-50555D01*
X83676Y-50516D01*
X83746Y-50446D01*
X83755Y-50427D01*
X83763Y-50446D01*
X83833Y-50516D01*
X83925Y-50555D01*
X84024Y-50555D01*
X84087Y-50555D01*
X84150Y-50492D01*
X84150Y-51010D01*
X83866Y-51009D01*
X83554Y-51138D01*
X83314Y-51377D01*
X83260Y-51509D01*
X83260Y-50492D01*
X83260Y-50230D01*
X82897Y-50230D01*
X82835Y-50292D01*
X82835Y-50354D01*
X82873Y-50446D01*
X82943Y-50516D01*
X83035Y-50555D01*
X83134Y-50555D01*
X83197Y-50555D01*
X83260Y-50492D01*
X83260Y-51509D01*
X83185Y-51690D01*
X83184Y-52028D01*
X83313Y-52340D01*
X83552Y-52580D01*
X83865Y-52709D01*
X84203Y-52710D01*
X84515Y-52581D01*
X84755Y-52342D01*
X84884Y-52029D01*
X84885Y-51691D01*
X84885Y-52701D01*
X82560Y-52743D01*
X82560Y-48712D01*
X82560Y-48450D01*
X82197Y-48450D01*
X82135Y-48512D01*
X82135Y-48574D01*
X82173Y-48666D01*
X82243Y-48736D01*
X82335Y-48775D01*
X82434Y-48775D01*
X82497Y-48775D01*
X82560Y-48712D01*
X82560Y-52743D01*
X82048Y-52753D01*
X81657Y-52753D01*
X81657Y-52210D01*
X81648Y-51954D01*
X81568Y-51761D01*
X81463Y-51723D01*
X81392Y-51793D01*
X81392Y-51652D01*
X81354Y-51547D01*
X81114Y-51458D01*
X80858Y-51467D01*
X80665Y-51547D01*
X80627Y-51652D01*
X81010Y-52035D01*
X81392Y-51652D01*
X81392Y-51793D01*
X81080Y-52106D01*
X81463Y-52488D01*
X81568Y-52450D01*
X81657Y-52210D01*
X81657Y-52753D01*
X80915Y-52753D01*
X81161Y-52744D01*
X81354Y-52664D01*
X81392Y-52559D01*
X81010Y-52176D01*
X80939Y-52247D01*
X80939Y-52106D01*
X80556Y-51723D01*
X80451Y-51761D01*
X80362Y-52001D01*
X80371Y-52257D01*
X80451Y-52450D01*
X80556Y-52488D01*
X80939Y-52106D01*
X80939Y-52247D01*
X80627Y-52559D01*
X80665Y-52664D01*
X80904Y-52753D01*
X77940Y-52753D01*
X77940Y-52505D01*
X78085Y-52651D01*
X78321Y-52749D01*
X78577Y-52749D01*
X78814Y-52651D01*
X78995Y-52470D01*
X79093Y-52234D01*
X79093Y-51978D01*
X78995Y-51741D01*
X78824Y-51570D01*
X79346Y-51570D01*
X79383Y-51606D01*
X79475Y-51645D01*
X79574Y-51645D01*
X80024Y-51645D01*
X80116Y-51606D01*
X80186Y-51536D01*
X80225Y-51444D01*
X80225Y-51345D01*
X80225Y-51095D01*
X80186Y-51003D01*
X80153Y-50970D01*
X80186Y-50936D01*
X80225Y-50844D01*
X80225Y-50745D01*
X80225Y-50495D01*
X80186Y-50403D01*
X80116Y-50333D01*
X80050Y-50305D01*
X80050Y-50025D01*
X80241Y-50025D01*
X80382Y-50166D01*
X80366Y-50205D01*
X80366Y-50461D01*
X80464Y-50698D01*
X80645Y-50879D01*
X80881Y-50977D01*
X81137Y-50977D01*
X81374Y-50879D01*
X81555Y-50698D01*
X81653Y-50462D01*
X81653Y-50206D01*
X81555Y-49969D01*
X81374Y-49788D01*
X81138Y-49690D01*
X80882Y-49690D01*
X80842Y-49706D01*
X80605Y-49470D01*
X80500Y-49399D01*
X80376Y-49375D01*
X79730Y-49375D01*
X78725Y-49375D01*
X78725Y-49349D01*
X78662Y-49349D01*
X78725Y-49287D01*
X78725Y-49250D01*
X78698Y-49186D01*
X78744Y-49177D01*
X78744Y-49177D01*
X78842Y-49112D01*
X78991Y-48962D01*
X79047Y-48986D01*
X79147Y-48986D01*
X79462Y-48986D01*
X79554Y-48948D01*
X79569Y-48932D01*
X79585Y-48948D01*
X79677Y-48986D01*
X79777Y-48986D01*
X80092Y-48986D01*
X80184Y-48948D01*
X80184Y-48947D01*
X80992Y-48947D01*
X80992Y-48947D01*
X81107Y-48924D01*
X81107Y-48924D01*
X81204Y-48859D01*
X82135Y-47929D01*
X82135Y-47974D01*
X82173Y-48066D01*
X82206Y-48100D01*
X82173Y-48133D01*
X82135Y-48225D01*
X82135Y-48287D01*
X82197Y-48350D01*
X82560Y-48350D01*
X82560Y-48342D01*
X82660Y-48342D01*
X82660Y-48350D01*
X83022Y-48350D01*
X83059Y-48313D01*
X83059Y-48316D01*
X83187Y-48625D01*
X83423Y-48862D01*
X83575Y-48925D01*
X83575Y-48972D01*
X83519Y-49055D01*
X83495Y-49180D01*
X83495Y-49205D01*
X83485Y-49205D01*
X83085Y-49205D01*
X83085Y-48574D01*
X83085Y-48512D01*
X83022Y-48450D01*
X82660Y-48450D01*
X82660Y-48712D01*
X82722Y-48775D01*
X82785Y-48775D01*
X82884Y-48775D01*
X82976Y-48736D01*
X83046Y-48666D01*
X83085Y-48574D01*
X83085Y-49205D01*
X83035Y-49205D01*
X82943Y-49243D01*
X82873Y-49313D01*
X82835Y-49405D01*
X82835Y-49504D01*
X82835Y-49754D01*
X82873Y-49846D01*
X82906Y-49880D01*
X82873Y-49913D01*
X82835Y-50005D01*
X82835Y-50067D01*
X82897Y-50130D01*
X83260Y-50130D01*
X83260Y-50122D01*
X83360Y-50122D01*
X83360Y-50130D01*
X83722Y-50130D01*
X83755Y-50097D01*
X83787Y-50130D01*
X84150Y-50130D01*
X84150Y-50122D01*
X84250Y-50122D01*
X84250Y-50130D01*
X84612Y-50130D01*
X84675Y-50067D01*
X84675Y-50005D01*
X84636Y-49913D01*
X84603Y-49880D01*
X84636Y-49846D01*
X84675Y-49754D01*
X84675Y-49655D01*
X84675Y-49405D01*
X84636Y-49313D01*
X84566Y-49243D01*
X84474Y-49205D01*
X84375Y-49205D01*
X84204Y-49205D01*
X84225Y-49100D01*
X84225Y-48925D01*
X84375Y-48862D01*
X84612Y-48626D01*
X84740Y-48317D01*
X84740Y-47983D01*
X84612Y-47674D01*
X84376Y-47437D01*
X84300Y-47406D01*
X84300Y-43494D01*
X84375Y-43462D01*
X84612Y-43226D01*
X84740Y-42917D01*
X84740Y-42583D01*
X84612Y-42274D01*
X84376Y-42037D01*
X84155Y-41945D01*
X84067Y-41909D01*
X83741Y-41909D01*
X83741Y-40471D01*
X82960Y-39690D01*
X82889Y-39761D01*
X82178Y-40471D01*
X82284Y-40634D01*
X82724Y-40815D01*
X83199Y-40814D01*
X83635Y-40634D01*
X83741Y-40471D01*
X83741Y-41909D01*
X83733Y-41909D01*
X83424Y-42037D01*
X83187Y-42273D01*
X83059Y-42582D01*
X83059Y-42916D01*
X83187Y-43225D01*
X83423Y-43462D01*
X83500Y-43493D01*
X83500Y-47405D01*
X83424Y-47437D01*
X83187Y-47673D01*
X83085Y-47921D01*
X83085Y-47875D01*
X83085Y-47637D01*
X83085Y-47637D01*
X83127Y-47574D01*
X83127Y-47574D01*
X83150Y-47460D01*
X83150Y-47416D01*
X83158Y-47412D01*
X83312Y-47259D01*
X83395Y-47058D01*
X83395Y-46841D01*
X83312Y-46641D01*
X83159Y-46487D01*
X83068Y-46450D01*
X83158Y-46412D01*
X83312Y-46259D01*
X83395Y-46058D01*
X83395Y-45841D01*
X83312Y-45641D01*
X83221Y-45549D01*
X83312Y-45459D01*
X83395Y-45258D01*
X83395Y-45041D01*
X83312Y-44841D01*
X83159Y-44687D01*
X83068Y-44650D01*
X83158Y-44612D01*
X83312Y-44459D01*
X83395Y-44258D01*
X83395Y-44041D01*
X83312Y-43841D01*
X83174Y-43703D01*
X83173Y-43696D01*
X83173Y-43696D01*
X83097Y-43582D01*
X82842Y-43327D01*
X82728Y-43251D01*
X82595Y-43225D01*
X82505Y-43225D01*
X82505Y-42544D01*
X82505Y-42482D01*
X82442Y-42420D01*
X82080Y-42420D01*
X82080Y-42682D01*
X82142Y-42745D01*
X82205Y-42745D01*
X82304Y-42745D01*
X82396Y-42706D01*
X82466Y-42636D01*
X82505Y-42544D01*
X82505Y-43225D01*
X81980Y-43225D01*
X81980Y-42682D01*
X81980Y-42420D01*
X81617Y-42420D01*
X81560Y-42477D01*
X81532Y-42450D01*
X81270Y-42450D01*
X81270Y-42812D01*
X81332Y-42875D01*
X81394Y-42875D01*
X81486Y-42836D01*
X81556Y-42766D01*
X81595Y-42674D01*
X81595Y-42638D01*
X81663Y-42706D01*
X81755Y-42745D01*
X81854Y-42745D01*
X81917Y-42745D01*
X81980Y-42682D01*
X81980Y-43225D01*
X81543Y-43225D01*
X81536Y-43208D01*
X81466Y-43138D01*
X81374Y-43100D01*
X81275Y-43100D01*
X81025Y-43100D01*
X80950Y-43131D01*
X80950Y-42980D01*
X80950Y-42970D01*
X80950Y-42833D01*
X80953Y-42836D01*
X81045Y-42875D01*
X81107Y-42875D01*
X81170Y-42812D01*
X81170Y-42450D01*
X81162Y-42450D01*
X81162Y-42350D01*
X81170Y-42350D01*
X81170Y-41987D01*
X81107Y-41925D01*
X81045Y-41925D01*
X80953Y-41963D01*
X80938Y-41978D01*
X80867Y-41872D01*
X80655Y-41660D01*
X80655Y-41645D01*
X80590Y-41489D01*
X80471Y-41369D01*
X80314Y-41305D01*
X80259Y-41305D01*
X80317Y-41247D01*
X80393Y-41133D01*
X80393Y-41133D01*
X80420Y-41000D01*
X80420Y-40213D01*
X80436Y-40206D01*
X80506Y-40136D01*
X80545Y-40044D01*
X80545Y-39945D01*
X80545Y-39695D01*
X80506Y-39603D01*
X80473Y-39570D01*
X80506Y-39536D01*
X80545Y-39444D01*
X80545Y-39382D01*
X80545Y-39157D01*
X80545Y-39095D01*
X80506Y-39003D01*
X80436Y-38933D01*
X80344Y-38895D01*
X80245Y-38895D01*
X80182Y-38895D01*
X80120Y-38957D01*
X80120Y-39220D01*
X80482Y-39220D01*
X80545Y-39157D01*
X80545Y-39382D01*
X80482Y-39320D01*
X80120Y-39320D01*
X80120Y-39327D01*
X80020Y-39327D01*
X80020Y-39320D01*
X80012Y-39320D01*
X80012Y-39220D01*
X80020Y-39220D01*
X80020Y-38957D01*
X79957Y-38895D01*
X79894Y-38895D01*
X79795Y-38895D01*
X79775Y-38903D01*
X79775Y-38767D01*
X79775Y-38329D01*
X79775Y-38230D01*
X79736Y-38138D01*
X79666Y-38068D01*
X79574Y-38030D01*
X79312Y-38030D01*
X79250Y-38092D01*
X79250Y-38830D01*
X79712Y-38830D01*
X79775Y-38767D01*
X79775Y-38903D01*
X79710Y-38930D01*
X79250Y-38930D01*
X79250Y-39667D01*
X79312Y-39730D01*
X79574Y-39730D01*
X79595Y-39721D01*
X79595Y-39794D01*
X79595Y-39948D01*
X79549Y-39930D01*
X79450Y-39930D01*
X78660Y-39930D01*
X78660Y-39614D01*
X78663Y-39621D01*
X78733Y-39691D01*
X78825Y-39730D01*
X79087Y-39730D01*
X79150Y-39667D01*
X79150Y-38930D01*
X79142Y-38930D01*
X79142Y-38830D01*
X79150Y-38830D01*
X79150Y-38092D01*
X79087Y-38030D01*
X78825Y-38030D01*
X78733Y-38068D01*
X78727Y-38073D01*
X78676Y-38023D01*
X78652Y-38013D01*
X78633Y-37916D01*
X78633Y-37916D01*
X78557Y-37802D01*
X78477Y-37722D01*
X78368Y-37650D01*
X79855Y-37650D01*
X80072Y-37867D01*
X80186Y-37943D01*
X80186Y-37943D01*
X80265Y-37959D01*
X80265Y-38614D01*
X80303Y-38706D01*
X80373Y-38776D01*
X80465Y-38815D01*
X80564Y-38815D01*
X82084Y-38815D01*
X82108Y-38838D01*
X81945Y-38944D01*
X81764Y-39384D01*
X81765Y-39859D01*
X81918Y-40228D01*
X81764Y-40165D01*
X81595Y-40164D01*
X81439Y-40229D01*
X81319Y-40348D01*
X81255Y-40505D01*
X81254Y-40674D01*
X81319Y-40830D01*
X81438Y-40950D01*
X81595Y-41014D01*
X81609Y-41014D01*
X81680Y-41084D01*
X81680Y-41426D01*
X81663Y-41433D01*
X81593Y-41503D01*
X81555Y-41595D01*
X81555Y-41694D01*
X81555Y-41944D01*
X81593Y-42036D01*
X81626Y-42070D01*
X81593Y-42103D01*
X81589Y-42111D01*
X81556Y-42033D01*
X81486Y-41963D01*
X81394Y-41925D01*
X81332Y-41925D01*
X81270Y-41987D01*
X81270Y-42350D01*
X81532Y-42350D01*
X81590Y-42292D01*
X81617Y-42320D01*
X81980Y-42320D01*
X81980Y-42312D01*
X82080Y-42312D01*
X82080Y-42320D01*
X82442Y-42320D01*
X82505Y-42257D01*
X82505Y-42195D01*
X82466Y-42103D01*
X82433Y-42070D01*
X82466Y-42036D01*
X82505Y-41944D01*
X82505Y-41845D01*
X82505Y-41595D01*
X82466Y-41503D01*
X82396Y-41433D01*
X82380Y-41426D01*
X82380Y-40940D01*
X82353Y-40806D01*
X82353Y-40806D01*
X82277Y-40692D01*
X82105Y-40520D01*
X82105Y-40505D01*
X82044Y-40359D01*
X82108Y-40401D01*
X82889Y-39620D01*
X82883Y-39614D01*
X82954Y-39543D01*
X82960Y-39549D01*
X82965Y-39543D01*
X83036Y-39614D01*
X83030Y-39620D01*
X83811Y-40401D01*
X83974Y-40295D01*
X84155Y-39855D01*
X84154Y-39380D01*
X83974Y-38944D01*
X83811Y-38838D01*
X83835Y-38815D01*
X84099Y-38814D01*
X84535Y-38634D01*
X84641Y-38471D01*
X83860Y-37690D01*
X83854Y-37696D01*
X83789Y-37631D01*
X83783Y-37625D01*
X83789Y-37620D01*
X83008Y-36838D01*
X82845Y-36944D01*
X82664Y-37384D01*
X82665Y-37859D01*
X82845Y-38295D01*
X83008Y-38401D01*
X82984Y-38424D01*
X82720Y-38425D01*
X82655Y-38452D01*
X82655Y-36625D01*
X82616Y-36533D01*
X82546Y-36463D01*
X82454Y-36425D01*
X82355Y-36425D01*
X80465Y-36425D01*
X80373Y-36463D01*
X80303Y-36533D01*
X80265Y-36625D01*
X80265Y-36724D01*
X80265Y-37070D01*
X80247Y-37052D01*
X80133Y-36976D01*
X80000Y-36950D01*
X78010Y-36950D01*
X77876Y-36976D01*
X77762Y-37052D01*
X77340Y-37475D01*
X77227Y-37362D01*
X77113Y-37286D01*
X77057Y-37275D01*
X77095Y-37184D01*
X77095Y-37122D01*
X77095Y-36897D01*
X77095Y-36835D01*
X77056Y-36743D01*
X76986Y-36673D01*
X76894Y-36635D01*
X76795Y-36635D01*
X76732Y-36635D01*
X76670Y-36697D01*
X76670Y-36960D01*
X77032Y-36960D01*
X77095Y-36897D01*
X77095Y-37122D01*
X77032Y-37060D01*
X76670Y-37060D01*
X76670Y-37067D01*
X76570Y-37067D01*
X76570Y-37060D01*
X76570Y-36960D01*
X76570Y-36697D01*
X76507Y-36635D01*
X76444Y-36635D01*
X76345Y-36635D01*
X76253Y-36673D01*
X76183Y-36743D01*
X76145Y-36835D01*
X76145Y-36897D01*
X76207Y-36960D01*
X76570Y-36960D01*
X76570Y-37060D01*
X76207Y-37060D01*
X76145Y-37122D01*
X76145Y-37184D01*
X76172Y-37251D01*
X76026Y-37105D01*
X76020Y-35990D01*
X84875Y-36074D01*
X84876Y-36949D01*
X84874Y-36944D01*
X84711Y-36838D01*
X84641Y-36909D01*
X84641Y-36768D01*
X84535Y-36605D01*
X84095Y-36424D01*
X83620Y-36425D01*
X83184Y-36605D01*
X83078Y-36768D01*
X83860Y-37549D01*
X84641Y-36768D01*
X84641Y-36909D01*
X83930Y-37620D01*
X84711Y-38401D01*
X84874Y-38295D01*
X84878Y-38285D01*
X84893Y-48351D01*
X84893Y-52701D01*
X84893Y-52701D01*
G37*
G54D28*
X84893Y-52701D02*
X84885Y-52701D01*
X84885Y-51691D01*
X84756Y-51379D01*
X84675Y-51297D01*
X84675Y-50354D01*
X84675Y-50292D01*
X84612Y-50230D01*
X84250Y-50230D01*
X84250Y-50492D01*
X84312Y-50555D01*
X84375Y-50555D01*
X84474Y-50555D01*
X84566Y-50516D01*
X84636Y-50446D01*
X84675Y-50354D01*
X84675Y-51297D01*
X84517Y-51139D01*
X84204Y-51010D01*
X84150Y-51010D01*
X84150Y-50492D01*
X84150Y-50230D01*
X83787Y-50230D01*
X83755Y-50262D01*
X83722Y-50230D01*
X83360Y-50230D01*
X83360Y-50492D01*
X83422Y-50555D01*
X83485Y-50555D01*
X83584Y-50555D01*
X83676Y-50516D01*
X83746Y-50446D01*
X83755Y-50427D01*
X83763Y-50446D01*
X83833Y-50516D01*
X83925Y-50555D01*
X84024Y-50555D01*
X84087Y-50555D01*
X84150Y-50492D01*
X84150Y-51010D01*
X83866Y-51009D01*
X83554Y-51138D01*
X83314Y-51377D01*
X83260Y-51509D01*
X83260Y-50492D01*
X83260Y-50230D01*
X82897Y-50230D01*
X82835Y-50292D01*
X82835Y-50354D01*
X82873Y-50446D01*
X82943Y-50516D01*
X83035Y-50555D01*
X83134Y-50555D01*
X83197Y-50555D01*
X83260Y-50492D01*
X83260Y-51509D01*
X83185Y-51690D01*
X83184Y-52028D01*
X83313Y-52340D01*
X83552Y-52580D01*
X83865Y-52709D01*
X84203Y-52710D01*
X84515Y-52581D01*
X84755Y-52342D01*
X84884Y-52029D01*
X84885Y-51691D01*
X84885Y-52701D01*
X82560Y-52743D01*
X82560Y-48712D01*
X82560Y-48450D01*
X82197Y-48450D01*
X82135Y-48512D01*
X82135Y-48574D01*
X82173Y-48666D01*
X82243Y-48736D01*
X82335Y-48775D01*
X82434Y-48775D01*
X82497Y-48775D01*
X82560Y-48712D01*
X82560Y-52743D01*
X82048Y-52753D01*
X81657Y-52753D01*
X81657Y-52210D01*
X81648Y-51954D01*
X81568Y-51761D01*
X81463Y-51723D01*
X81392Y-51793D01*
X81392Y-51652D01*
X81354Y-51547D01*
X81114Y-51458D01*
X80858Y-51467D01*
X80665Y-51547D01*
X80627Y-51652D01*
X81010Y-52035D01*
X81392Y-51652D01*
X81392Y-51793D01*
X81080Y-52106D01*
X81463Y-52488D01*
X81568Y-52450D01*
X81657Y-52210D01*
X81657Y-52753D01*
X80915Y-52753D01*
X81161Y-52744D01*
X81354Y-52664D01*
X81392Y-52559D01*
X81010Y-52176D01*
X80939Y-52247D01*
X80939Y-52106D01*
X80556Y-51723D01*
X80451Y-51761D01*
X80362Y-52001D01*
X80371Y-52257D01*
X80451Y-52450D01*
X80556Y-52488D01*
X80939Y-52106D01*
X80939Y-52247D01*
X80627Y-52559D01*
X80665Y-52664D01*
X80904Y-52753D01*
X77940Y-52753D01*
X77940Y-52505D01*
X78085Y-52651D01*
X78321Y-52749D01*
X78577Y-52749D01*
X78814Y-52651D01*
X78995Y-52470D01*
X79093Y-52234D01*
X79093Y-51978D01*
X78995Y-51741D01*
X78824Y-51570D01*
X79346Y-51570D01*
X79383Y-51606D01*
X79475Y-51645D01*
X79574Y-51645D01*
X80024Y-51645D01*
X80116Y-51606D01*
X80186Y-51536D01*
X80225Y-51444D01*
X80225Y-51345D01*
X80225Y-51095D01*
X80186Y-51003D01*
X80153Y-50970D01*
X80186Y-50936D01*
X80225Y-50844D01*
X80225Y-50745D01*
X80225Y-50495D01*
X80186Y-50403D01*
X80116Y-50333D01*
X80050Y-50305D01*
X80050Y-50025D01*
X80241Y-50025D01*
X80382Y-50166D01*
X80366Y-50205D01*
X80366Y-50461D01*
X80464Y-50698D01*
X80645Y-50879D01*
X80881Y-50977D01*
X81137Y-50977D01*
X81374Y-50879D01*
X81555Y-50698D01*
X81653Y-50462D01*
X81653Y-50206D01*
X81555Y-49969D01*
X81374Y-49788D01*
X81138Y-49690D01*
X80882Y-49690D01*
X80842Y-49706D01*
X80605Y-49470D01*
X80500Y-49399D01*
X80376Y-49375D01*
X79730Y-49375D01*
X78725Y-49375D01*
X78725Y-49349D01*
X78662Y-49349D01*
X78725Y-49287D01*
X78725Y-49250D01*
X78698Y-49186D01*
X78744Y-49177D01*
X78744Y-49177D01*
X78842Y-49112D01*
X78991Y-48962D01*
X79047Y-48986D01*
X79147Y-48986D01*
X79462Y-48986D01*
X79554Y-48948D01*
X79569Y-48932D01*
X79585Y-48948D01*
X79677Y-48986D01*
X79777Y-48986D01*
X80092Y-48986D01*
X80184Y-48948D01*
X80184Y-48947D01*
X80992Y-48947D01*
X80992Y-48947D01*
X81107Y-48924D01*
X81107Y-48924D01*
X81204Y-48859D01*
X82135Y-47929D01*
X82135Y-47974D01*
X82173Y-48066D01*
X82206Y-48100D01*
X82173Y-48133D01*
X82135Y-48225D01*
X82135Y-48287D01*
X82197Y-48350D01*
X82560Y-48350D01*
X82560Y-48342D01*
X82660Y-48342D01*
X82660Y-48350D01*
X83022Y-48350D01*
X83059Y-48313D01*
X83059Y-48316D01*
X83187Y-48625D01*
X83423Y-48862D01*
X83575Y-48925D01*
X83575Y-48972D01*
X83519Y-49055D01*
X83495Y-49180D01*
X83495Y-49205D01*
X83485Y-49205D01*
X83085Y-49205D01*
X83085Y-48574D01*
X83085Y-48512D01*
X83022Y-48450D01*
X82660Y-48450D01*
X82660Y-48712D01*
X82722Y-48775D01*
X82785Y-48775D01*
X82884Y-48775D01*
X82976Y-48736D01*
X83046Y-48666D01*
X83085Y-48574D01*
X83085Y-49205D01*
X83035Y-49205D01*
X82943Y-49243D01*
X82873Y-49313D01*
X82835Y-49405D01*
X82835Y-49504D01*
X82835Y-49754D01*
X82873Y-49846D01*
X82906Y-49880D01*
X82873Y-49913D01*
X82835Y-50005D01*
X82835Y-50067D01*
X82897Y-50130D01*
X83260Y-50130D01*
X83260Y-50122D01*
X83360Y-50122D01*
X83360Y-50130D01*
X83722Y-50130D01*
X83755Y-50097D01*
X83787Y-50130D01*
X84150Y-50130D01*
X84150Y-50122D01*
X84250Y-50122D01*
X84250Y-50130D01*
X84612Y-50130D01*
X84675Y-50067D01*
X84675Y-50005D01*
X84636Y-49913D01*
X84603Y-49880D01*
X84636Y-49846D01*
X84675Y-49754D01*
X84675Y-49655D01*
X84675Y-49405D01*
X84636Y-49313D01*
X84566Y-49243D01*
X84474Y-49205D01*
X84375Y-49205D01*
X84204Y-49205D01*
X84225Y-49100D01*
X84225Y-48925D01*
X84375Y-48862D01*
X84612Y-48626D01*
X84740Y-48317D01*
X84740Y-47983D01*
X84612Y-47674D01*
X84376Y-47437D01*
X84300Y-47406D01*
X84300Y-43494D01*
X84375Y-43462D01*
X84612Y-43226D01*
X84740Y-42917D01*
X84740Y-42583D01*
X84612Y-42274D01*
X84376Y-42037D01*
X84155Y-41945D01*
X84067Y-41909D01*
X83741Y-41909D01*
X83741Y-40471D01*
X82960Y-39690D01*
X82889Y-39761D01*
X82178Y-40471D01*
X82284Y-40634D01*
X82724Y-40815D01*
X83199Y-40814D01*
X83635Y-40634D01*
X83741Y-40471D01*
X83741Y-41909D01*
X83733Y-41909D01*
X83424Y-42037D01*
X83187Y-42273D01*
X83059Y-42582D01*
X83059Y-42916D01*
X83187Y-43225D01*
X83423Y-43462D01*
X83500Y-43493D01*
X83500Y-47405D01*
X83424Y-47437D01*
X83187Y-47673D01*
X83085Y-47921D01*
X83085Y-47875D01*
X83085Y-47637D01*
X83085Y-47637D01*
X83127Y-47574D01*
X83127Y-47574D01*
X83150Y-47460D01*
X83150Y-47416D01*
X83158Y-47412D01*
X83312Y-47259D01*
X83395Y-47058D01*
X83395Y-46841D01*
X83312Y-46641D01*
X83159Y-46487D01*
X83068Y-46450D01*
X83158Y-46412D01*
X83312Y-46259D01*
X83395Y-46058D01*
X83395Y-45841D01*
X83312Y-45641D01*
X83221Y-45549D01*
X83312Y-45459D01*
X83395Y-45258D01*
X83395Y-45041D01*
X83312Y-44841D01*
X83159Y-44687D01*
X83068Y-44650D01*
X83158Y-44612D01*
X83312Y-44459D01*
X83395Y-44258D01*
X83395Y-44041D01*
X83312Y-43841D01*
X83174Y-43703D01*
X83173Y-43696D01*
X83173Y-43696D01*
X83097Y-43582D01*
X82842Y-43327D01*
X82728Y-43251D01*
X82595Y-43225D01*
X82505Y-43225D01*
X82505Y-42544D01*
X82505Y-42482D01*
X82442Y-42420D01*
X82080Y-42420D01*
X82080Y-42682D01*
X82142Y-42745D01*
X82205Y-42745D01*
X82304Y-42745D01*
X82396Y-42706D01*
X82466Y-42636D01*
X82505Y-42544D01*
X82505Y-43225D01*
X81980Y-43225D01*
X81980Y-42682D01*
X81980Y-42420D01*
X81617Y-42420D01*
X81560Y-42477D01*
X81532Y-42450D01*
X81270Y-42450D01*
X81270Y-42812D01*
X81332Y-42875D01*
X81394Y-42875D01*
X81486Y-42836D01*
X81556Y-42766D01*
X81595Y-42674D01*
X81595Y-42638D01*
X81663Y-42706D01*
X81755Y-42745D01*
X81854Y-42745D01*
X81917Y-42745D01*
X81980Y-42682D01*
X81980Y-43225D01*
X81543Y-43225D01*
X81536Y-43208D01*
X81466Y-43138D01*
X81374Y-43100D01*
X81275Y-43100D01*
X81025Y-43100D01*
X80950Y-43131D01*
X80950Y-42980D01*
X80950Y-42970D01*
X80950Y-42833D01*
X80953Y-42836D01*
X81045Y-42875D01*
X81107Y-42875D01*
X81170Y-42812D01*
X81170Y-42450D01*
X81162Y-42450D01*
X81162Y-42350D01*
X81170Y-42350D01*
X81170Y-41987D01*
X81107Y-41925D01*
X81045Y-41925D01*
X80953Y-41963D01*
X80938Y-41978D01*
X80867Y-41872D01*
X80655Y-41660D01*
X80655Y-41645D01*
X80590Y-41489D01*
X80471Y-41369D01*
X80314Y-41305D01*
X80259Y-41305D01*
X80317Y-41247D01*
X80393Y-41133D01*
X80393Y-41133D01*
X80420Y-41000D01*
X80420Y-40213D01*
X80436Y-40206D01*
X80506Y-40136D01*
X80545Y-40044D01*
X80545Y-39945D01*
X80545Y-39695D01*
X80506Y-39603D01*
X80473Y-39570D01*
X80506Y-39536D01*
X80545Y-39444D01*
X80545Y-39382D01*
X80545Y-39157D01*
X80545Y-39095D01*
X80506Y-39003D01*
X80436Y-38933D01*
X80344Y-38895D01*
X80245Y-38895D01*
X80182Y-38895D01*
X80120Y-38957D01*
X80120Y-39220D01*
X80482Y-39220D01*
X80545Y-39157D01*
X80545Y-39382D01*
X80482Y-39320D01*
X80120Y-39320D01*
X80120Y-39327D01*
X80020Y-39327D01*
X80020Y-39320D01*
X80012Y-39320D01*
X80012Y-39220D01*
X80020Y-39220D01*
X80020Y-38957D01*
X79957Y-38895D01*
X79894Y-38895D01*
X79795Y-38895D01*
X79775Y-38903D01*
X79775Y-38767D01*
X79775Y-38329D01*
X79775Y-38230D01*
X79736Y-38138D01*
X79666Y-38068D01*
X79574Y-38030D01*
X79312Y-38030D01*
X79250Y-38092D01*
X79250Y-38830D01*
X79712Y-38830D01*
X79775Y-38767D01*
X79775Y-38903D01*
X79710Y-38930D01*
X79250Y-38930D01*
X79250Y-39667D01*
X79312Y-39730D01*
X79574Y-39730D01*
X79595Y-39721D01*
X79595Y-39794D01*
X79595Y-39948D01*
X79549Y-39930D01*
X79450Y-39930D01*
X78660Y-39930D01*
X78660Y-39614D01*
X78663Y-39621D01*
X78733Y-39691D01*
X78825Y-39730D01*
X79087Y-39730D01*
X79150Y-39667D01*
X79150Y-38930D01*
X79142Y-38930D01*
X79142Y-38830D01*
X79150Y-38830D01*
X79150Y-38092D01*
X79087Y-38030D01*
X78825Y-38030D01*
X78733Y-38068D01*
X78727Y-38073D01*
X78676Y-38023D01*
X78652Y-38013D01*
X78633Y-37916D01*
X78633Y-37916D01*
X78557Y-37802D01*
X78477Y-37722D01*
X78368Y-37650D01*
X79855Y-37650D01*
X80072Y-37867D01*
X80186Y-37943D01*
X80186Y-37943D01*
X80265Y-37959D01*
X80265Y-38614D01*
X80303Y-38706D01*
X80373Y-38776D01*
X80465Y-38815D01*
X80564Y-38815D01*
X82084Y-38815D01*
X82108Y-38838D01*
X81945Y-38944D01*
X81764Y-39384D01*
X81765Y-39859D01*
X81918Y-40228D01*
X81764Y-40165D01*
X81595Y-40164D01*
X81439Y-40229D01*
X81319Y-40348D01*
X81255Y-40505D01*
X81254Y-40674D01*
X81319Y-40830D01*
X81438Y-40950D01*
X81595Y-41014D01*
X81609Y-41014D01*
X81680Y-41084D01*
X81680Y-41426D01*
X81663Y-41433D01*
X81593Y-41503D01*
X81555Y-41595D01*
X81555Y-41694D01*
X81555Y-41944D01*
X81593Y-42036D01*
X81626Y-42070D01*
X81593Y-42103D01*
X81589Y-42111D01*
X81556Y-42033D01*
X81486Y-41963D01*
X81394Y-41925D01*
X81332Y-41925D01*
X81270Y-41987D01*
X81270Y-42350D01*
X81532Y-42350D01*
X81590Y-42292D01*
X81617Y-42320D01*
X81980Y-42320D01*
X81980Y-42312D01*
X82080Y-42312D01*
X82080Y-42320D01*
X82442Y-42320D01*
X82505Y-42257D01*
X82505Y-42195D01*
X82466Y-42103D01*
X82433Y-42070D01*
X82466Y-42036D01*
X82505Y-41944D01*
X82505Y-41845D01*
X82505Y-41595D01*
X82466Y-41503D01*
X82396Y-41433D01*
X82380Y-41426D01*
X82380Y-40940D01*
X82353Y-40806D01*
X82353Y-40806D01*
X82277Y-40692D01*
X82105Y-40520D01*
X82105Y-40505D01*
X82044Y-40359D01*
X82108Y-40401D01*
X82889Y-39620D01*
X82883Y-39614D01*
X82954Y-39543D01*
X82960Y-39549D01*
X82965Y-39543D01*
X83036Y-39614D01*
X83030Y-39620D01*
X83811Y-40401D01*
X83974Y-40295D01*
X84155Y-39855D01*
X84154Y-39380D01*
X83974Y-38944D01*
X83811Y-38838D01*
X83835Y-38815D01*
X84099Y-38814D01*
X84535Y-38634D01*
X84641Y-38471D01*
X83860Y-37690D01*
X83854Y-37696D01*
X83789Y-37631D01*
X83783Y-37625D01*
X83789Y-37620D01*
X83008Y-36838D01*
X82845Y-36944D01*
X82664Y-37384D01*
X82665Y-37859D01*
X82845Y-38295D01*
X83008Y-38401D01*
X82984Y-38424D01*
X82720Y-38425D01*
X82655Y-38452D01*
X82655Y-36625D01*
X82616Y-36533D01*
X82546Y-36463D01*
X82454Y-36425D01*
X82355Y-36425D01*
X80465Y-36425D01*
X80373Y-36463D01*
X80303Y-36533D01*
X80265Y-36625D01*
X80265Y-36724D01*
X80265Y-37070D01*
X80247Y-37052D01*
X80133Y-36976D01*
X80000Y-36950D01*
X78010Y-36950D01*
X77876Y-36976D01*
X77762Y-37052D01*
X77340Y-37475D01*
X77227Y-37362D01*
X77113Y-37286D01*
X77057Y-37275D01*
X77095Y-37184D01*
X77095Y-37122D01*
X77095Y-36897D01*
X77095Y-36835D01*
X77056Y-36743D01*
X76986Y-36673D01*
X76894Y-36635D01*
X76795Y-36635D01*
X76732Y-36635D01*
X76670Y-36697D01*
X76670Y-36960D01*
X77032Y-36960D01*
X77095Y-36897D01*
X77095Y-37122D01*
X77032Y-37060D01*
X76670Y-37060D01*
X76670Y-37067D01*
X76570Y-37067D01*
X76570Y-37060D01*
X76570Y-36960D01*
X76570Y-36697D01*
X76507Y-36635D01*
X76444Y-36635D01*
X76345Y-36635D01*
X76253Y-36673D01*
X76183Y-36743D01*
X76145Y-36835D01*
X76145Y-36897D01*
X76207Y-36960D01*
X76570Y-36960D01*
X76570Y-37060D01*
X76207Y-37060D01*
X76145Y-37122D01*
X76145Y-37184D01*
X76172Y-37251D01*
X76026Y-37105D01*
X76020Y-35990D01*
X84875Y-36074D01*
X84876Y-36949D01*
X84874Y-36944D01*
X84711Y-36838D01*
X84641Y-36909D01*
X84641Y-36768D01*
X84535Y-36605D01*
X84095Y-36424D01*
X83620Y-36425D01*
X83184Y-36605D01*
X83078Y-36768D01*
X83860Y-37549D01*
X84641Y-36768D01*
X84641Y-36909D01*
X83930Y-37620D01*
X84711Y-38401D01*
X84874Y-38295D01*
X84878Y-38285D01*
X84893Y-48351D01*
X84893Y-52701D01*
G54D10*
G36*
X73397Y-46600D02*
X73390Y-46600D01*
X73390Y-46607D01*
X73290Y-46607D01*
X73290Y-46600D01*
X72927Y-46600D01*
X72865Y-46662D01*
X72865Y-46724D01*
X72903Y-46816D01*
X72919Y-46833D01*
X72835Y-46849D01*
X72820Y-46860D01*
X72820Y-46182D01*
X72820Y-45820D01*
X72557Y-45820D01*
X72495Y-45882D01*
X72495Y-45945D01*
X72495Y-46044D01*
X72533Y-46136D01*
X72603Y-46206D01*
X72695Y-46245D01*
X72757Y-46245D01*
X72820Y-46182D01*
X72820Y-46860D01*
X72730Y-46920D01*
X72730Y-46920D01*
X72500Y-47150D01*
X72429Y-47255D01*
X72405Y-47380D01*
X72405Y-47431D01*
X72393Y-47443D01*
X72355Y-47535D01*
X72355Y-47634D01*
X72355Y-48083D01*
X72047Y-48083D01*
X71955Y-48121D01*
X71955Y-48122D01*
X71706Y-48122D01*
X71250Y-47665D01*
X71250Y-45671D01*
X71261Y-45666D01*
X71415Y-45511D01*
X71499Y-45309D01*
X71500Y-45091D01*
X71416Y-44888D01*
X71261Y-44734D01*
X71180Y-44700D01*
X71261Y-44666D01*
X71377Y-44550D01*
X71553Y-44550D01*
X71535Y-44595D01*
X71535Y-44694D01*
X71535Y-45144D01*
X71573Y-45236D01*
X71643Y-45306D01*
X71735Y-45345D01*
X71834Y-45345D01*
X72084Y-45345D01*
X72176Y-45306D01*
X72209Y-45273D01*
X72243Y-45306D01*
X72335Y-45345D01*
X72434Y-45345D01*
X72591Y-45345D01*
X72533Y-45403D01*
X72495Y-45495D01*
X72495Y-45594D01*
X72495Y-45657D01*
X72557Y-45720D01*
X72820Y-45720D01*
X72820Y-45357D01*
X72771Y-45309D01*
X72776Y-45306D01*
X72846Y-45236D01*
X72853Y-45220D01*
X73075Y-45220D01*
X73120Y-45264D01*
X73120Y-45326D01*
X73044Y-45295D01*
X72982Y-45295D01*
X72920Y-45357D01*
X72920Y-45720D01*
X72927Y-45720D01*
X72927Y-45820D01*
X72920Y-45820D01*
X72920Y-46182D01*
X72961Y-46224D01*
X72903Y-46283D01*
X72865Y-46375D01*
X72865Y-46437D01*
X72927Y-46500D01*
X73290Y-46500D01*
X73290Y-46492D01*
X73390Y-46492D01*
X73390Y-46500D01*
X73397Y-46500D01*
X73397Y-46600D01*
X73397Y-46600D01*
G37*
G54D28*
X73397Y-46600D02*
X73390Y-46600D01*
X73390Y-46607D01*
X73290Y-46607D01*
X73290Y-46600D01*
X72927Y-46600D01*
X72865Y-46662D01*
X72865Y-46724D01*
X72903Y-46816D01*
X72919Y-46833D01*
X72835Y-46849D01*
X72820Y-46860D01*
X72820Y-46182D01*
X72820Y-45820D01*
X72557Y-45820D01*
X72495Y-45882D01*
X72495Y-45945D01*
X72495Y-46044D01*
X72533Y-46136D01*
X72603Y-46206D01*
X72695Y-46245D01*
X72757Y-46245D01*
X72820Y-46182D01*
X72820Y-46860D01*
X72730Y-46920D01*
X72730Y-46920D01*
X72500Y-47150D01*
X72429Y-47255D01*
X72405Y-47380D01*
X72405Y-47431D01*
X72393Y-47443D01*
X72355Y-47535D01*
X72355Y-47634D01*
X72355Y-48083D01*
X72047Y-48083D01*
X71955Y-48121D01*
X71955Y-48122D01*
X71706Y-48122D01*
X71250Y-47665D01*
X71250Y-45671D01*
X71261Y-45666D01*
X71415Y-45511D01*
X71499Y-45309D01*
X71500Y-45091D01*
X71416Y-44888D01*
X71261Y-44734D01*
X71180Y-44700D01*
X71261Y-44666D01*
X71377Y-44550D01*
X71553Y-44550D01*
X71535Y-44595D01*
X71535Y-44694D01*
X71535Y-45144D01*
X71573Y-45236D01*
X71643Y-45306D01*
X71735Y-45345D01*
X71834Y-45345D01*
X72084Y-45345D01*
X72176Y-45306D01*
X72209Y-45273D01*
X72243Y-45306D01*
X72335Y-45345D01*
X72434Y-45345D01*
X72591Y-45345D01*
X72533Y-45403D01*
X72495Y-45495D01*
X72495Y-45594D01*
X72495Y-45657D01*
X72557Y-45720D01*
X72820Y-45720D01*
X72820Y-45357D01*
X72771Y-45309D01*
X72776Y-45306D01*
X72846Y-45236D01*
X72853Y-45220D01*
X73075Y-45220D01*
X73120Y-45264D01*
X73120Y-45326D01*
X73044Y-45295D01*
X72982Y-45295D01*
X72920Y-45357D01*
X72920Y-45720D01*
X72927Y-45720D01*
X72927Y-45820D01*
X72920Y-45820D01*
X72920Y-46182D01*
X72961Y-46224D01*
X72903Y-46283D01*
X72865Y-46375D01*
X72865Y-46437D01*
X72927Y-46500D01*
X73290Y-46500D01*
X73290Y-46492D01*
X73390Y-46492D01*
X73390Y-46500D01*
X73397Y-46500D01*
X73397Y-46600D01*
G54D10*
G36*
X74307Y-46450D02*
X74300Y-46450D01*
X74300Y-46457D01*
X74200Y-46457D01*
X74200Y-46450D01*
X74192Y-46450D01*
X74192Y-46350D01*
X74200Y-46350D01*
X74200Y-46342D01*
X74300Y-46342D01*
X74300Y-46350D01*
X74307Y-46350D01*
X74307Y-46450D01*
X74307Y-46450D01*
G37*
G54D28*
X74307Y-46450D02*
X74300Y-46450D01*
X74300Y-46457D01*
X74200Y-46457D01*
X74200Y-46450D01*
X74192Y-46450D01*
X74192Y-46350D01*
X74200Y-46350D01*
X74200Y-46342D01*
X74300Y-46342D01*
X74300Y-46350D01*
X74307Y-46350D01*
X74307Y-46450D01*
G54D10*
G36*
X74528Y-49748D02*
X74520Y-52740D01*
X74200Y-52740D01*
X74200Y-49687D01*
X74200Y-49450D01*
X73837Y-49450D01*
X73775Y-49512D01*
X73775Y-49549D01*
X73813Y-49641D01*
X73883Y-49711D01*
X73975Y-49750D01*
X74074Y-49750D01*
X74137Y-49750D01*
X74200Y-49687D01*
X74200Y-52740D01*
X68126Y-52749D01*
X68126Y-39830D01*
X68160Y-39830D01*
X70353Y-39830D01*
X70273Y-39863D01*
X70203Y-39933D01*
X70165Y-40025D01*
X70165Y-40124D01*
X70165Y-40187D01*
X70227Y-40250D01*
X70490Y-40250D01*
X70490Y-40242D01*
X70590Y-40242D01*
X70590Y-40250D01*
X70597Y-40250D01*
X70597Y-40350D01*
X70590Y-40350D01*
X70590Y-40712D01*
X70652Y-40775D01*
X70714Y-40775D01*
X70806Y-40736D01*
X70839Y-40703D01*
X70873Y-40736D01*
X70965Y-40775D01*
X71064Y-40775D01*
X71314Y-40775D01*
X71399Y-40740D01*
X71468Y-40810D01*
X71625Y-40874D01*
X71794Y-40875D01*
X71950Y-40810D01*
X72008Y-40752D01*
X72030Y-43221D01*
X74495Y-45550D01*
X74425Y-45550D01*
X74020Y-45550D01*
X73934Y-45492D01*
X73835Y-45473D01*
X73820Y-45434D01*
X73820Y-45120D01*
X73793Y-44986D01*
X73793Y-44986D01*
X73717Y-44872D01*
X73467Y-44622D01*
X73353Y-44546D01*
X73220Y-44520D01*
X72860Y-44520D01*
X72860Y-44400D01*
X72833Y-44266D01*
X72833Y-44266D01*
X72757Y-44152D01*
X71815Y-43210D01*
X71815Y-43195D01*
X71750Y-43039D01*
X71631Y-42919D01*
X71474Y-42855D01*
X71305Y-42854D01*
X71149Y-42919D01*
X71029Y-43038D01*
X70965Y-43195D01*
X70964Y-43364D01*
X71029Y-43520D01*
X71148Y-43640D01*
X71305Y-43704D01*
X71319Y-43704D01*
X71465Y-43850D01*
X71377Y-43850D01*
X71261Y-43734D01*
X71059Y-43650D01*
X70841Y-43649D01*
X70638Y-43733D01*
X70556Y-43815D01*
X70513Y-43772D01*
X70513Y-43692D01*
X70526Y-43686D01*
X70596Y-43616D01*
X70635Y-43524D01*
X70635Y-43425D01*
X70635Y-43175D01*
X70596Y-43083D01*
X70563Y-43050D01*
X70596Y-43016D01*
X70635Y-42924D01*
X70635Y-42862D01*
X70635Y-42637D01*
X70635Y-42575D01*
X70596Y-42483D01*
X70526Y-42413D01*
X70490Y-42397D01*
X70490Y-40712D01*
X70490Y-40350D01*
X70227Y-40350D01*
X70165Y-40412D01*
X70165Y-40475D01*
X70165Y-40574D01*
X70203Y-40666D01*
X70273Y-40736D01*
X70365Y-40775D01*
X70427Y-40775D01*
X70490Y-40712D01*
X70490Y-42397D01*
X70434Y-42375D01*
X70335Y-42375D01*
X70272Y-42375D01*
X70210Y-42437D01*
X70210Y-42700D01*
X70572Y-42700D01*
X70635Y-42637D01*
X70635Y-42862D01*
X70572Y-42800D01*
X70210Y-42800D01*
X70210Y-42807D01*
X70110Y-42807D01*
X70110Y-42800D01*
X70102Y-42800D01*
X70102Y-42700D01*
X70110Y-42700D01*
X70110Y-42437D01*
X70047Y-42375D01*
X69984Y-42375D01*
X69885Y-42375D01*
X69881Y-42376D01*
X69881Y-42183D01*
X69762Y-41895D01*
X69543Y-41675D01*
X69440Y-41632D01*
X69440Y-41475D01*
X69824Y-41475D01*
X69916Y-41436D01*
X69986Y-41366D01*
X70025Y-41274D01*
X70025Y-41175D01*
X70025Y-40925D01*
X69986Y-40833D01*
X69953Y-40800D01*
X69986Y-40766D01*
X70025Y-40674D01*
X70025Y-40612D01*
X70025Y-40387D01*
X70025Y-40325D01*
X69986Y-40233D01*
X69916Y-40163D01*
X69824Y-40125D01*
X69725Y-40125D01*
X69662Y-40125D01*
X69600Y-40187D01*
X69600Y-40450D01*
X69962Y-40450D01*
X70025Y-40387D01*
X70025Y-40612D01*
X69962Y-40550D01*
X69600Y-40550D01*
X69600Y-40557D01*
X69500Y-40557D01*
X69500Y-40550D01*
X69500Y-40450D01*
X69500Y-40187D01*
X69437Y-40125D01*
X69374Y-40125D01*
X69275Y-40125D01*
X69183Y-40163D01*
X69165Y-40181D01*
X69146Y-40163D01*
X69054Y-40125D01*
X68955Y-40125D01*
X68892Y-40125D01*
X68830Y-40187D01*
X68830Y-40450D01*
X69137Y-40450D01*
X69192Y-40450D01*
X69500Y-40450D01*
X69500Y-40550D01*
X69192Y-40550D01*
X69137Y-40550D01*
X68830Y-40550D01*
X68830Y-40557D01*
X68730Y-40557D01*
X68730Y-40550D01*
X68730Y-40450D01*
X68730Y-40187D01*
X68667Y-40125D01*
X68604Y-40125D01*
X68505Y-40125D01*
X68413Y-40163D01*
X68343Y-40233D01*
X68305Y-40325D01*
X68305Y-40387D01*
X68367Y-40450D01*
X68730Y-40450D01*
X68730Y-40550D01*
X68367Y-40550D01*
X68305Y-40612D01*
X68305Y-40674D01*
X68343Y-40766D01*
X68376Y-40799D01*
X68343Y-40833D01*
X68305Y-40925D01*
X68305Y-41024D01*
X68305Y-41274D01*
X68343Y-41366D01*
X68413Y-41436D01*
X68505Y-41475D01*
X68604Y-41475D01*
X68840Y-41475D01*
X68840Y-41599D01*
X68657Y-41675D01*
X68437Y-41894D01*
X68318Y-42181D01*
X68318Y-42492D01*
X68437Y-42780D01*
X68656Y-43000D01*
X68725Y-43028D01*
X68725Y-46371D01*
X68657Y-46399D01*
X68437Y-46618D01*
X68318Y-46905D01*
X68318Y-47216D01*
X68437Y-47504D01*
X68656Y-47724D01*
X68943Y-47843D01*
X69254Y-47843D01*
X69530Y-47729D01*
X69530Y-48340D01*
X69552Y-48454D01*
X69617Y-48552D01*
X69760Y-48694D01*
X69760Y-51000D01*
X69782Y-51114D01*
X69825Y-51177D01*
X69824Y-51274D01*
X69889Y-51430D01*
X70008Y-51550D01*
X70165Y-51614D01*
X70334Y-51615D01*
X70490Y-51550D01*
X70610Y-51431D01*
X70674Y-51274D01*
X70675Y-51158D01*
X70790Y-51110D01*
X70910Y-50991D01*
X70974Y-50834D01*
X70975Y-50749D01*
X72234Y-49490D01*
X72350Y-49490D01*
X72350Y-49489D01*
X72464Y-49467D01*
X72464Y-49467D01*
X72562Y-49402D01*
X72782Y-49182D01*
X72782Y-49182D01*
X72847Y-49084D01*
X72847Y-49084D01*
X72848Y-49076D01*
X73092Y-49076D01*
X73124Y-49062D01*
X73302Y-49062D01*
X73370Y-49129D01*
X73370Y-49129D01*
X73475Y-49200D01*
X73475Y-49200D01*
X73600Y-49225D01*
X73785Y-49225D01*
X73775Y-49250D01*
X73775Y-49287D01*
X73837Y-49350D01*
X74200Y-49350D01*
X74200Y-49342D01*
X74300Y-49342D01*
X74300Y-49350D01*
X74307Y-49350D01*
X74307Y-49450D01*
X74300Y-49450D01*
X74300Y-49687D01*
X74362Y-49750D01*
X74425Y-49750D01*
X74524Y-49750D01*
X74528Y-49748D01*
X74528Y-49748D01*
G37*
G54D28*
X74528Y-49748D02*
X74520Y-52740D01*
X74200Y-52740D01*
X74200Y-49687D01*
X74200Y-49450D01*
X73837Y-49450D01*
X73775Y-49512D01*
X73775Y-49549D01*
X73813Y-49641D01*
X73883Y-49711D01*
X73975Y-49750D01*
X74074Y-49750D01*
X74137Y-49750D01*
X74200Y-49687D01*
X74200Y-52740D01*
X68126Y-52749D01*
X68126Y-39830D01*
X68160Y-39830D01*
X70353Y-39830D01*
X70273Y-39863D01*
X70203Y-39933D01*
X70165Y-40025D01*
X70165Y-40124D01*
X70165Y-40187D01*
X70227Y-40250D01*
X70490Y-40250D01*
X70490Y-40242D01*
X70590Y-40242D01*
X70590Y-40250D01*
X70597Y-40250D01*
X70597Y-40350D01*
X70590Y-40350D01*
X70590Y-40712D01*
X70652Y-40775D01*
X70714Y-40775D01*
X70806Y-40736D01*
X70839Y-40703D01*
X70873Y-40736D01*
X70965Y-40775D01*
X71064Y-40775D01*
X71314Y-40775D01*
X71399Y-40740D01*
X71468Y-40810D01*
X71625Y-40874D01*
X71794Y-40875D01*
X71950Y-40810D01*
X72008Y-40752D01*
X72030Y-43221D01*
X74495Y-45550D01*
X74425Y-45550D01*
X74020Y-45550D01*
X73934Y-45492D01*
X73835Y-45473D01*
X73820Y-45434D01*
X73820Y-45120D01*
X73793Y-44986D01*
X73793Y-44986D01*
X73717Y-44872D01*
X73467Y-44622D01*
X73353Y-44546D01*
X73220Y-44520D01*
X72860Y-44520D01*
X72860Y-44400D01*
X72833Y-44266D01*
X72833Y-44266D01*
X72757Y-44152D01*
X71815Y-43210D01*
X71815Y-43195D01*
X71750Y-43039D01*
X71631Y-42919D01*
X71474Y-42855D01*
X71305Y-42854D01*
X71149Y-42919D01*
X71029Y-43038D01*
X70965Y-43195D01*
X70964Y-43364D01*
X71029Y-43520D01*
X71148Y-43640D01*
X71305Y-43704D01*
X71319Y-43704D01*
X71465Y-43850D01*
X71377Y-43850D01*
X71261Y-43734D01*
X71059Y-43650D01*
X70841Y-43649D01*
X70638Y-43733D01*
X70556Y-43815D01*
X70513Y-43772D01*
X70513Y-43692D01*
X70526Y-43686D01*
X70596Y-43616D01*
X70635Y-43524D01*
X70635Y-43425D01*
X70635Y-43175D01*
X70596Y-43083D01*
X70563Y-43050D01*
X70596Y-43016D01*
X70635Y-42924D01*
X70635Y-42862D01*
X70635Y-42637D01*
X70635Y-42575D01*
X70596Y-42483D01*
X70526Y-42413D01*
X70490Y-42397D01*
X70490Y-40712D01*
X70490Y-40350D01*
X70227Y-40350D01*
X70165Y-40412D01*
X70165Y-40475D01*
X70165Y-40574D01*
X70203Y-40666D01*
X70273Y-40736D01*
X70365Y-40775D01*
X70427Y-40775D01*
X70490Y-40712D01*
X70490Y-42397D01*
X70434Y-42375D01*
X70335Y-42375D01*
X70272Y-42375D01*
X70210Y-42437D01*
X70210Y-42700D01*
X70572Y-42700D01*
X70635Y-42637D01*
X70635Y-42862D01*
X70572Y-42800D01*
X70210Y-42800D01*
X70210Y-42807D01*
X70110Y-42807D01*
X70110Y-42800D01*
X70102Y-42800D01*
X70102Y-42700D01*
X70110Y-42700D01*
X70110Y-42437D01*
X70047Y-42375D01*
X69984Y-42375D01*
X69885Y-42375D01*
X69881Y-42376D01*
X69881Y-42183D01*
X69762Y-41895D01*
X69543Y-41675D01*
X69440Y-41632D01*
X69440Y-41475D01*
X69824Y-41475D01*
X69916Y-41436D01*
X69986Y-41366D01*
X70025Y-41274D01*
X70025Y-41175D01*
X70025Y-40925D01*
X69986Y-40833D01*
X69953Y-40800D01*
X69986Y-40766D01*
X70025Y-40674D01*
X70025Y-40612D01*
X70025Y-40387D01*
X70025Y-40325D01*
X69986Y-40233D01*
X69916Y-40163D01*
X69824Y-40125D01*
X69725Y-40125D01*
X69662Y-40125D01*
X69600Y-40187D01*
X69600Y-40450D01*
X69962Y-40450D01*
X70025Y-40387D01*
X70025Y-40612D01*
X69962Y-40550D01*
X69600Y-40550D01*
X69600Y-40557D01*
X69500Y-40557D01*
X69500Y-40550D01*
X69500Y-40450D01*
X69500Y-40187D01*
X69437Y-40125D01*
X69374Y-40125D01*
X69275Y-40125D01*
X69183Y-40163D01*
X69165Y-40181D01*
X69146Y-40163D01*
X69054Y-40125D01*
X68955Y-40125D01*
X68892Y-40125D01*
X68830Y-40187D01*
X68830Y-40450D01*
X69137Y-40450D01*
X69192Y-40450D01*
X69500Y-40450D01*
X69500Y-40550D01*
X69192Y-40550D01*
X69137Y-40550D01*
X68830Y-40550D01*
X68830Y-40557D01*
X68730Y-40557D01*
X68730Y-40550D01*
X68730Y-40450D01*
X68730Y-40187D01*
X68667Y-40125D01*
X68604Y-40125D01*
X68505Y-40125D01*
X68413Y-40163D01*
X68343Y-40233D01*
X68305Y-40325D01*
X68305Y-40387D01*
X68367Y-40450D01*
X68730Y-40450D01*
X68730Y-40550D01*
X68367Y-40550D01*
X68305Y-40612D01*
X68305Y-40674D01*
X68343Y-40766D01*
X68376Y-40799D01*
X68343Y-40833D01*
X68305Y-40925D01*
X68305Y-41024D01*
X68305Y-41274D01*
X68343Y-41366D01*
X68413Y-41436D01*
X68505Y-41475D01*
X68604Y-41475D01*
X68840Y-41475D01*
X68840Y-41599D01*
X68657Y-41675D01*
X68437Y-41894D01*
X68318Y-42181D01*
X68318Y-42492D01*
X68437Y-42780D01*
X68656Y-43000D01*
X68725Y-43028D01*
X68725Y-46371D01*
X68657Y-46399D01*
X68437Y-46618D01*
X68318Y-46905D01*
X68318Y-47216D01*
X68437Y-47504D01*
X68656Y-47724D01*
X68943Y-47843D01*
X69254Y-47843D01*
X69530Y-47729D01*
X69530Y-48340D01*
X69552Y-48454D01*
X69617Y-48552D01*
X69760Y-48694D01*
X69760Y-51000D01*
X69782Y-51114D01*
X69825Y-51177D01*
X69824Y-51274D01*
X69889Y-51430D01*
X70008Y-51550D01*
X70165Y-51614D01*
X70334Y-51615D01*
X70490Y-51550D01*
X70610Y-51431D01*
X70674Y-51274D01*
X70675Y-51158D01*
X70790Y-51110D01*
X70910Y-50991D01*
X70974Y-50834D01*
X70975Y-50749D01*
X72234Y-49490D01*
X72350Y-49490D01*
X72350Y-49489D01*
X72464Y-49467D01*
X72464Y-49467D01*
X72562Y-49402D01*
X72782Y-49182D01*
X72782Y-49182D01*
X72847Y-49084D01*
X72847Y-49084D01*
X72848Y-49076D01*
X73092Y-49076D01*
X73124Y-49062D01*
X73302Y-49062D01*
X73370Y-49129D01*
X73370Y-49129D01*
X73475Y-49200D01*
X73475Y-49200D01*
X73600Y-49225D01*
X73785Y-49225D01*
X73775Y-49250D01*
X73775Y-49287D01*
X73837Y-49350D01*
X74200Y-49350D01*
X74200Y-49342D01*
X74300Y-49342D01*
X74300Y-49350D01*
X74307Y-49350D01*
X74307Y-49450D01*
X74300Y-49450D01*
X74300Y-49687D01*
X74362Y-49750D01*
X74425Y-49750D01*
X74524Y-49750D01*
X74528Y-49748D01*
M02*
