%FSLAX34Y34*%
G04 Gerber Fmt 3.4, Leading zero omitted, Abs format*
G04 (created by PCBNEW (2013-11-28 BZR 4510)-product) date Thu 15 May 2014 02:09:20 PM EDT*
%MOIN*%
G01*
G70*
G90*
G04 APERTURE LIST*
%ADD10C,0.005906*%
%ADD11R,0.070900X0.062900*%
%ADD12R,0.074700X0.074700*%
%ADD13R,0.074700X0.074800*%
%ADD14R,0.074700X0.070700*%
%ADD15R,0.062900X0.082500*%
%ADD16R,0.053000X0.015700*%
%ADD17R,0.074800X0.074700*%
%ADD18R,0.070700X0.074700*%
%ADD19R,0.082500X0.062900*%
%ADD20R,0.015700X0.053000*%
%ADD21C,0.065000*%
%ADD22C,0.118100*%
%ADD23C,0.060000*%
%ADD24C,0.106300*%
%ADD25C,0.189000*%
%ADD26R,0.189000X0.189000*%
%ADD27C,0.078700*%
%ADD28C,0.120000*%
%ADD29R,0.055000X0.055000*%
%ADD30C,0.055000*%
%ADD31C,0.035000*%
%ADD32C,0.025000*%
%ADD33C,0.010000*%
%ADD34C,0.015000*%
%ADD35C,0.020000*%
G04 APERTURE END LIST*
G54D10*
G54D11*
X72480Y-42349D03*
X72480Y-41231D03*
X80910Y-41609D03*
X80910Y-40491D03*
G54D12*
X68352Y-50984D03*
G54D13*
X68352Y-50040D03*
G54D14*
X68352Y-49016D03*
G54D15*
X69356Y-51732D03*
G54D16*
X69406Y-51023D03*
X69406Y-50767D03*
X69406Y-50512D03*
X69406Y-50257D03*
X69406Y-50001D03*
G54D15*
X69356Y-49292D03*
G54D14*
X68352Y-52008D03*
G54D12*
X77554Y-36214D03*
G54D17*
X78498Y-36214D03*
G54D18*
X79522Y-36214D03*
G54D19*
X76806Y-37218D03*
G54D20*
X77515Y-37268D03*
X77771Y-37268D03*
X78026Y-37268D03*
X78281Y-37268D03*
X78537Y-37268D03*
G54D19*
X79246Y-37218D03*
G54D18*
X76530Y-36214D03*
G54D21*
X82850Y-46950D03*
X82850Y-45950D03*
X82850Y-45150D03*
X82850Y-44150D03*
G54D22*
X83900Y-48150D03*
X83900Y-42750D03*
G54D23*
X70950Y-44200D03*
X70950Y-45200D03*
X70163Y-45200D03*
X70163Y-44200D03*
G54D24*
X69100Y-42338D03*
X69100Y-47062D03*
G54D25*
X83860Y-37620D03*
G54D26*
X81460Y-37620D03*
G54D25*
X82960Y-39620D03*
G54D27*
X78450Y-52106D03*
X81010Y-50334D03*
X81010Y-52106D03*
X78450Y-50334D03*
G54D28*
X84035Y-51860D03*
X68875Y-36700D03*
G54D29*
X75042Y-37210D03*
G54D30*
X75042Y-38210D03*
G54D31*
X81800Y-48860D03*
X80960Y-47440D03*
X82620Y-42930D03*
X81900Y-44200D03*
X78710Y-37960D03*
X71850Y-50190D03*
X71850Y-47880D03*
X71710Y-40450D03*
X81680Y-40590D03*
X70250Y-51190D03*
X70440Y-50270D03*
X70550Y-50750D03*
X71390Y-43280D03*
X76720Y-40108D03*
X80230Y-41730D03*
G54D32*
X80960Y-47440D02*
X80960Y-48020D01*
X80960Y-48020D02*
X81800Y-48860D01*
G54D33*
X78537Y-37268D02*
X78537Y-37505D01*
X78541Y-37509D02*
X78537Y-37268D01*
X78537Y-37505D02*
X78541Y-37509D01*
G54D32*
X82620Y-42930D02*
X81900Y-43650D01*
X81900Y-43650D02*
X81900Y-44200D01*
G54D34*
X78541Y-37424D02*
X78541Y-37791D01*
X78541Y-37791D02*
X78710Y-37960D01*
G54D32*
X71850Y-47880D02*
X71850Y-50190D01*
G54D35*
X72480Y-41231D02*
X72480Y-40770D01*
X72160Y-40450D02*
X71710Y-40450D01*
X72480Y-40770D02*
X72160Y-40450D01*
X80910Y-40491D02*
X81581Y-40491D01*
X81581Y-40491D02*
X81680Y-40590D01*
G54D33*
X69406Y-51023D02*
X69663Y-51023D01*
X69665Y-51021D02*
X69406Y-51023D01*
X69663Y-51023D02*
X69665Y-51021D01*
X69594Y-51021D02*
X70081Y-51021D01*
X70081Y-51021D02*
X70250Y-51190D01*
X69406Y-50001D02*
X69661Y-50001D01*
X69663Y-49999D02*
X69406Y-50001D01*
X69661Y-50001D02*
X69663Y-49999D01*
X69560Y-44803D02*
X70163Y-44200D01*
X69560Y-45530D02*
X69560Y-44803D01*
X69820Y-45790D02*
X69560Y-45530D01*
X69820Y-48600D02*
X69820Y-45790D01*
X70020Y-48800D02*
X69820Y-48600D01*
X70020Y-49790D02*
X70020Y-48800D01*
X69811Y-49999D02*
X70020Y-49790D01*
X69594Y-49999D02*
X69811Y-49999D01*
X69406Y-50512D02*
X69638Y-50512D01*
X69640Y-50510D02*
X69406Y-50512D01*
X69638Y-50512D02*
X69640Y-50510D01*
X69594Y-50510D02*
X70200Y-50510D01*
X70200Y-50510D02*
X70440Y-50270D01*
X69406Y-50767D02*
X69669Y-50767D01*
X69671Y-50765D02*
X69406Y-50767D01*
X69669Y-50767D02*
X69671Y-50765D01*
X69594Y-50765D02*
X70535Y-50765D01*
X70535Y-50765D02*
X70550Y-50750D01*
G54D35*
X71390Y-43280D02*
X72190Y-43280D01*
X72480Y-42990D02*
X72480Y-42349D01*
X72190Y-43280D02*
X72480Y-42990D01*
G54D34*
X77515Y-37268D02*
X77515Y-39313D01*
X77515Y-39313D02*
X76720Y-40108D01*
G54D35*
X80351Y-41609D02*
X80910Y-41609D01*
X80230Y-41730D02*
X80351Y-41609D01*
M02*
