%FSLAX34Y34*%
G04 Gerber Fmt 3.4, Leading zero omitted, Abs format*
G04 (created by PCBNEW (2013-11-28 BZR 4510)-product) date Thu 23 Jan 2014 12:01:45 PM EST*
%MOIN*%
G01*
G70*
G90*
G04 APERTURE LIST*
%ADD10C,0.005906*%
%ADD11R,0.045000X0.020000*%
%ADD12R,0.065000X0.120000*%
%ADD13R,0.240000X0.240000*%
%ADD14R,0.031496X0.017717*%
%ADD15R,0.045000X0.025000*%
%ADD16R,0.025000X0.045000*%
G04 APERTURE END LIST*
G54D10*
G54D11*
X74250Y-45900D03*
X74250Y-46400D03*
X74250Y-46900D03*
X74250Y-47400D03*
X74250Y-47900D03*
X74250Y-48400D03*
X74250Y-48900D03*
X74250Y-49400D03*
X78250Y-49400D03*
X78250Y-48900D03*
X78250Y-48400D03*
X78250Y-47900D03*
X78250Y-47400D03*
X78250Y-46900D03*
X78250Y-46400D03*
X78250Y-45900D03*
G54D12*
X79200Y-38880D03*
G54D13*
X78300Y-41380D03*
G54D12*
X77400Y-38880D03*
G54D14*
X72884Y-48422D03*
X72255Y-48422D03*
X72255Y-48737D03*
X72884Y-48737D03*
X79884Y-48332D03*
X79255Y-48332D03*
X79255Y-48647D03*
X79884Y-48647D03*
G54D15*
X68780Y-41100D03*
X68780Y-40500D03*
X73340Y-47150D03*
X73340Y-46550D03*
G54D16*
X73470Y-45770D03*
X72870Y-45770D03*
G54D15*
X76620Y-37610D03*
X76620Y-37010D03*
X76450Y-39160D03*
X76450Y-38560D03*
G54D16*
X80620Y-42400D03*
X81220Y-42400D03*
X79720Y-46780D03*
X79120Y-46780D03*
G54D15*
X83310Y-49580D03*
X83310Y-50180D03*
X78310Y-38960D03*
X78310Y-38360D03*
G54D16*
X72510Y-44870D03*
X71910Y-44870D03*
G54D15*
X70160Y-43350D03*
X70160Y-42750D03*
G54D16*
X80600Y-43575D03*
X81200Y-43575D03*
G54D15*
X82610Y-47800D03*
X82610Y-48400D03*
X69550Y-41100D03*
X69550Y-40500D03*
G54D16*
X71140Y-40300D03*
X70540Y-40300D03*
G54D15*
X82030Y-41770D03*
X82030Y-42370D03*
G54D16*
X72730Y-47810D03*
X73330Y-47810D03*
G54D15*
X79950Y-45210D03*
X79950Y-45810D03*
X79750Y-51270D03*
X79750Y-50670D03*
X84200Y-49580D03*
X84200Y-50180D03*
M02*
