%FSLAX34Y34*%
G04 Gerber Fmt 3.4, Leading zero omitted, Abs format*
G04 (created by PCBNEW (2013-11-28 BZR 4510)-product) date Thu 15 May 2014 02:09:21 PM EDT*
%MOIN*%
G01*
G70*
G90*
G04 APERTURE LIST*
%ADD10C,0.005906*%
%ADD11R,0.065000X0.045000*%
%ADD12C,0.085000*%
%ADD13C,0.138100*%
%ADD14C,0.080000*%
%ADD15C,0.126300*%
%ADD16C,0.209000*%
%ADD17R,0.209000X0.209000*%
%ADD18C,0.098700*%
%ADD19C,0.140000*%
%ADD20R,0.065000X0.040000*%
%ADD21R,0.085000X0.140000*%
%ADD22R,0.260000X0.260000*%
%ADD23R,0.051496X0.037717*%
%ADD24R,0.045000X0.065000*%
%ADD25R,0.075000X0.075000*%
%ADD26C,0.075000*%
G04 APERTURE END LIST*
G54D10*
G54D11*
X78310Y-38960D03*
X78310Y-38360D03*
G54D12*
X82850Y-46950D03*
X82850Y-45950D03*
X82850Y-45150D03*
X82850Y-44150D03*
G54D13*
X83900Y-48150D03*
X83900Y-42750D03*
G54D14*
X70950Y-44200D03*
X70950Y-45200D03*
X70163Y-45200D03*
X70163Y-44200D03*
G54D15*
X69100Y-42338D03*
X69100Y-47062D03*
G54D16*
X83860Y-37620D03*
G54D17*
X81460Y-37620D03*
G54D16*
X82960Y-39620D03*
G54D18*
X78450Y-52106D03*
X81010Y-50334D03*
X81010Y-52106D03*
X78450Y-50334D03*
G54D19*
X84035Y-51860D03*
X68875Y-36700D03*
G54D20*
X74250Y-45900D03*
X74250Y-46400D03*
X74250Y-46900D03*
X74250Y-47400D03*
X74250Y-47900D03*
X74250Y-48400D03*
X74250Y-48900D03*
X74250Y-49400D03*
X78250Y-49400D03*
X78250Y-48900D03*
X78250Y-48400D03*
X78250Y-47900D03*
X78250Y-47400D03*
X78250Y-46900D03*
X78250Y-46400D03*
X78250Y-45900D03*
G54D21*
X79200Y-38880D03*
G54D22*
X78300Y-41380D03*
G54D21*
X77400Y-38880D03*
G54D23*
X72884Y-48422D03*
X72255Y-48422D03*
X72255Y-48737D03*
X72884Y-48737D03*
X79884Y-48332D03*
X79255Y-48332D03*
X79255Y-48647D03*
X79884Y-48647D03*
G54D11*
X68780Y-41100D03*
X68780Y-40500D03*
X73340Y-47150D03*
X73340Y-46550D03*
G54D24*
X73470Y-45770D03*
X72870Y-45770D03*
G54D11*
X76620Y-37610D03*
X76620Y-37010D03*
X80070Y-39870D03*
X80070Y-39270D03*
G54D24*
X80620Y-42400D03*
X81220Y-42400D03*
X79720Y-46780D03*
X79120Y-46780D03*
G54D11*
X83310Y-49580D03*
X83310Y-50180D03*
G54D24*
X72510Y-44870D03*
X71910Y-44870D03*
G54D11*
X70160Y-43350D03*
X70160Y-42750D03*
G54D24*
X80600Y-43575D03*
X81200Y-43575D03*
G54D11*
X82610Y-47800D03*
X82610Y-48400D03*
X69550Y-41100D03*
X69550Y-40500D03*
G54D24*
X71140Y-40300D03*
X70540Y-40300D03*
G54D11*
X82030Y-41770D03*
X82030Y-42370D03*
G54D24*
X72730Y-47810D03*
X73330Y-47810D03*
G54D11*
X79950Y-45210D03*
X79950Y-45810D03*
X79750Y-51270D03*
X79750Y-50670D03*
X84200Y-49580D03*
X84200Y-50180D03*
G54D25*
X75042Y-37210D03*
G54D26*
X75042Y-38210D03*
M02*
