M48
;DRILL file {Pcbnew (2013-11-28 BZR 4510)-product} date Thu 15 May 2014 02:09:06 PM EDT
;FORMAT={-:-/ absolute / inch / decimal}
FMAT,2
INCH,TZ
T1C0.020
T2C0.032
T3C0.035
T4C0.042
T5C0.086
T6C0.120
T7C0.125
%
G90
G05
M72
T1
X7.025Y-5.119
X7.044Y-5.027
X7.055Y-5.075
X7.139Y-4.328
X7.171Y-4.045
X7.185Y-4.788
X7.185Y-5.019
X7.672Y-4.0108
X7.871Y-3.796
X8.023Y-4.173
X8.096Y-4.744
X8.168Y-4.059
X8.18Y-4.886
X8.19Y-4.42
X8.262Y-4.293
T2
X7.5042Y-3.721
X7.5042Y-3.821
T3
X7.0163Y-4.42
X7.0163Y-4.52
X7.095Y-4.42
X7.095Y-4.52
T4
X7.845Y-5.0334
X7.845Y-5.2106
X8.101Y-5.0334
X8.101Y-5.2106
X8.285Y-4.415
X8.285Y-4.515
X8.285Y-4.595
X8.285Y-4.695
T5
X6.91Y-4.2338
X6.91Y-4.7062
X8.39Y-4.275
X8.39Y-4.815
T6
X6.8875Y-3.67
X8.4035Y-5.186
T7
X8.146Y-3.762
X8.296Y-3.962
X8.386Y-3.762
T0
M30
