%FSLAX34Y34*%
G04 Gerber Fmt 3.4, Leading zero omitted, Abs format*
G04 (created by PCBNEW (2013-11-28 BZR 4510)-product) date Tue 14 Jan 2014 05:10:39 PM EST*
%MOIN*%
G01*
G70*
G90*
G04 APERTURE LIST*
%ADD10C,0.005906*%
%ADD11R,0.074700X0.074700*%
%ADD12R,0.074700X0.074800*%
%ADD13R,0.074700X0.070700*%
%ADD14R,0.062900X0.082500*%
%ADD15R,0.053000X0.015700*%
%ADD16R,0.074800X0.074700*%
%ADD17R,0.070700X0.074700*%
%ADD18R,0.082500X0.062900*%
%ADD19R,0.015700X0.053000*%
%ADD20R,0.070900X0.062900*%
%ADD21C,0.059100*%
%ADD22C,0.118100*%
%ADD23C,0.060000*%
%ADD24C,0.106300*%
%ADD25C,0.189000*%
%ADD26R,0.189000X0.189000*%
%ADD27C,0.078700*%
%ADD28C,0.120000*%
%ADD29C,0.035000*%
%ADD30C,0.020000*%
%ADD31C,0.015000*%
%ADD32C,0.010000*%
G04 APERTURE END LIST*
G54D10*
G54D11*
X68540Y-50982D03*
G54D12*
X68540Y-50038D03*
G54D13*
X68540Y-49014D03*
G54D14*
X69544Y-51730D03*
G54D15*
X69594Y-51021D03*
X69594Y-50765D03*
X69594Y-50510D03*
X69594Y-50255D03*
X69594Y-49999D03*
G54D14*
X69544Y-49290D03*
G54D13*
X68540Y-52006D03*
G54D11*
X77558Y-36370D03*
G54D16*
X78502Y-36370D03*
G54D17*
X79526Y-36370D03*
G54D18*
X76810Y-37374D03*
G54D19*
X77519Y-37424D03*
X77775Y-37424D03*
X78030Y-37424D03*
X78285Y-37424D03*
X78541Y-37424D03*
G54D18*
X79250Y-37374D03*
G54D17*
X76534Y-36370D03*
G54D20*
X80910Y-41609D03*
X80910Y-40491D03*
X71370Y-42329D03*
X71370Y-41211D03*
G54D21*
X82850Y-46950D03*
X82850Y-45950D03*
X82850Y-45150D03*
X82850Y-44150D03*
G54D22*
X83900Y-48150D03*
X83900Y-42750D03*
G54D23*
X70950Y-44200D03*
X70950Y-45200D03*
X70163Y-45200D03*
X70163Y-44200D03*
G54D24*
X69100Y-42338D03*
X69100Y-47062D03*
G54D25*
X83860Y-37620D03*
G54D26*
X81460Y-37620D03*
G54D25*
X82960Y-39620D03*
G54D27*
X78450Y-52106D03*
X81010Y-50334D03*
X81010Y-52106D03*
X78450Y-50334D03*
G54D28*
X84035Y-51860D03*
X68875Y-36700D03*
G54D29*
X82620Y-42930D03*
X81900Y-44200D03*
X78710Y-37960D03*
X71850Y-50190D03*
X71850Y-47880D03*
X71710Y-40450D03*
X81680Y-40590D03*
X70250Y-51190D03*
X70440Y-50270D03*
X70550Y-50750D03*
X71390Y-43280D03*
X76690Y-40080D03*
X80230Y-41730D03*
G54D30*
X82620Y-42930D02*
X81900Y-43650D01*
X81900Y-43650D02*
X81900Y-44200D01*
G54D31*
X78541Y-37424D02*
X78541Y-37791D01*
X78541Y-37791D02*
X78710Y-37960D01*
G54D30*
X71850Y-47880D02*
X71850Y-50190D01*
X71370Y-40790D02*
X71370Y-41211D01*
X71710Y-40450D02*
X71370Y-40790D01*
X80910Y-40491D02*
X81581Y-40491D01*
X81581Y-40491D02*
X81680Y-40590D01*
G54D32*
X69594Y-51021D02*
X70081Y-51021D01*
X70081Y-51021D02*
X70250Y-51190D01*
X69560Y-44803D02*
X70163Y-44200D01*
X69560Y-45530D02*
X69560Y-44803D01*
X69820Y-45790D02*
X69560Y-45530D01*
X69820Y-48600D02*
X69820Y-45790D01*
X70020Y-48800D02*
X69820Y-48600D01*
X70020Y-49790D02*
X70020Y-48800D01*
X69811Y-49999D02*
X70020Y-49790D01*
X69594Y-49999D02*
X69811Y-49999D01*
X69594Y-50510D02*
X70200Y-50510D01*
X70200Y-50510D02*
X70440Y-50270D01*
X69594Y-50765D02*
X70535Y-50765D01*
X70535Y-50765D02*
X70550Y-50750D01*
G54D30*
X71370Y-43260D02*
X71370Y-42329D01*
X71390Y-43280D02*
X71370Y-43260D01*
G54D31*
X77519Y-37424D02*
X77519Y-39251D01*
X77519Y-39251D02*
X76690Y-40080D01*
G54D30*
X80351Y-41609D02*
X80910Y-41609D01*
X80230Y-41730D02*
X80351Y-41609D01*
M02*
