%FSLAX34Y34*%
G04 Gerber Fmt 3.4, Leading zero omitted, Abs format*
G04 (created by PCBNEW (2013-11-28 BZR 4510)-product) date Tue 14 Jan 2014 05:10:39 PM EST*
%MOIN*%
G01*
G70*
G90*
G04 APERTURE LIST*
%ADD10C,0.005906*%
%ADD11C,0.006000*%
%ADD12C,0.012000*%
%ADD13C,0.004000*%
%ADD14C,0.000100*%
%ADD15C,0.003500*%
G04 APERTURE END LIST*
G54D10*
G54D11*
X71420Y-48794D02*
X71020Y-48794D01*
X71211Y-48794D02*
X71211Y-48965D01*
X71420Y-48965D02*
X71020Y-48965D01*
X71420Y-49151D02*
X71401Y-49122D01*
X71382Y-49108D01*
X71344Y-49094D01*
X71230Y-49094D01*
X71192Y-49108D01*
X71173Y-49122D01*
X71154Y-49151D01*
X71154Y-49194D01*
X71173Y-49222D01*
X71192Y-49237D01*
X71230Y-49251D01*
X71344Y-49251D01*
X71382Y-49237D01*
X71401Y-49222D01*
X71420Y-49194D01*
X71420Y-49151D01*
X71401Y-49365D02*
X71420Y-49394D01*
X71420Y-49451D01*
X71401Y-49480D01*
X71363Y-49494D01*
X71344Y-49494D01*
X71306Y-49480D01*
X71287Y-49451D01*
X71287Y-49408D01*
X71268Y-49380D01*
X71230Y-49365D01*
X71211Y-49365D01*
X71173Y-49380D01*
X71154Y-49408D01*
X71154Y-49451D01*
X71173Y-49480D01*
X71154Y-49580D02*
X71154Y-49694D01*
X71020Y-49622D02*
X71363Y-49622D01*
X71401Y-49637D01*
X71420Y-49665D01*
X71420Y-49694D01*
X71420Y-50022D02*
X71154Y-50022D01*
X71192Y-50022D02*
X71173Y-50037D01*
X71154Y-50065D01*
X71154Y-50108D01*
X71173Y-50137D01*
X71211Y-50151D01*
X71420Y-50151D01*
X71211Y-50151D02*
X71173Y-50165D01*
X71154Y-50194D01*
X71154Y-50237D01*
X71173Y-50265D01*
X71211Y-50280D01*
X71420Y-50280D01*
X71420Y-50422D02*
X71154Y-50422D01*
X71020Y-50422D02*
X71040Y-50408D01*
X71059Y-50422D01*
X71040Y-50437D01*
X71020Y-50422D01*
X71059Y-50422D01*
X71401Y-50694D02*
X71420Y-50665D01*
X71420Y-50608D01*
X71401Y-50580D01*
X71382Y-50565D01*
X71344Y-50551D01*
X71230Y-50551D01*
X71192Y-50565D01*
X71173Y-50580D01*
X71154Y-50608D01*
X71154Y-50665D01*
X71173Y-50694D01*
X71420Y-50822D02*
X71154Y-50822D01*
X71230Y-50822D02*
X71192Y-50837D01*
X71173Y-50851D01*
X71154Y-50880D01*
X71154Y-50908D01*
X71420Y-51051D02*
X71401Y-51022D01*
X71382Y-51008D01*
X71344Y-50994D01*
X71230Y-50994D01*
X71192Y-51008D01*
X71173Y-51022D01*
X71154Y-51051D01*
X71154Y-51094D01*
X71173Y-51122D01*
X71192Y-51137D01*
X71230Y-51151D01*
X71344Y-51151D01*
X71382Y-51137D01*
X71401Y-51122D01*
X71420Y-51094D01*
X71420Y-51051D01*
X71020Y-51508D02*
X71344Y-51508D01*
X71382Y-51522D01*
X71401Y-51537D01*
X71420Y-51565D01*
X71420Y-51622D01*
X71401Y-51651D01*
X71382Y-51665D01*
X71344Y-51680D01*
X71020Y-51680D01*
X71401Y-51808D02*
X71420Y-51851D01*
X71420Y-51922D01*
X71401Y-51951D01*
X71382Y-51965D01*
X71344Y-51980D01*
X71306Y-51980D01*
X71268Y-51965D01*
X71249Y-51951D01*
X71230Y-51922D01*
X71211Y-51865D01*
X71192Y-51837D01*
X71173Y-51822D01*
X71135Y-51808D01*
X71097Y-51808D01*
X71059Y-51822D01*
X71040Y-51837D01*
X71020Y-51865D01*
X71020Y-51937D01*
X71040Y-51980D01*
X71211Y-52208D02*
X71230Y-52251D01*
X71249Y-52265D01*
X71287Y-52280D01*
X71344Y-52280D01*
X71382Y-52265D01*
X71401Y-52251D01*
X71420Y-52222D01*
X71420Y-52108D01*
X71020Y-52108D01*
X71020Y-52208D01*
X71040Y-52237D01*
X71059Y-52251D01*
X71097Y-52265D01*
X71135Y-52265D01*
X71173Y-52251D01*
X71192Y-52237D01*
X71211Y-52208D01*
X71211Y-52108D01*
X83572Y-40870D02*
X83630Y-40870D01*
X83658Y-40890D01*
X83672Y-40909D01*
X83701Y-40966D01*
X83715Y-41042D01*
X83715Y-41194D01*
X83701Y-41232D01*
X83687Y-41251D01*
X83658Y-41270D01*
X83601Y-41270D01*
X83572Y-41251D01*
X83558Y-41232D01*
X83544Y-41194D01*
X83544Y-41099D01*
X83558Y-41061D01*
X83572Y-41042D01*
X83601Y-41023D01*
X83658Y-41023D01*
X83687Y-41042D01*
X83701Y-41061D01*
X83715Y-41099D01*
X83415Y-41118D02*
X83187Y-41118D01*
X82887Y-41270D02*
X83058Y-41270D01*
X82972Y-41270D02*
X82972Y-40870D01*
X83001Y-40928D01*
X83030Y-40966D01*
X83058Y-40985D01*
X82615Y-40870D02*
X82758Y-40870D01*
X82772Y-41061D01*
X82758Y-41042D01*
X82730Y-41023D01*
X82658Y-41023D01*
X82630Y-41042D01*
X82615Y-41061D01*
X82601Y-41099D01*
X82601Y-41194D01*
X82615Y-41232D01*
X82630Y-41251D01*
X82658Y-41270D01*
X82730Y-41270D01*
X82758Y-41251D01*
X82772Y-41232D01*
X82515Y-40870D02*
X82415Y-41270D01*
X82315Y-40870D01*
X75030Y-36228D02*
X75030Y-36085D01*
X75221Y-36071D01*
X75202Y-36085D01*
X75183Y-36114D01*
X75183Y-36185D01*
X75202Y-36214D01*
X75221Y-36228D01*
X75259Y-36242D01*
X75354Y-36242D01*
X75392Y-36228D01*
X75411Y-36214D01*
X75430Y-36185D01*
X75430Y-36114D01*
X75411Y-36085D01*
X75392Y-36071D01*
X75030Y-36328D02*
X75430Y-36428D01*
X75030Y-36528D01*
X75030Y-36857D02*
X75354Y-36857D01*
X75392Y-36871D01*
X75411Y-36885D01*
X75430Y-36914D01*
X75430Y-36971D01*
X75411Y-37000D01*
X75392Y-37014D01*
X75354Y-37028D01*
X75030Y-37028D01*
X75411Y-37157D02*
X75430Y-37200D01*
X75430Y-37271D01*
X75411Y-37300D01*
X75392Y-37314D01*
X75354Y-37328D01*
X75316Y-37328D01*
X75278Y-37314D01*
X75259Y-37300D01*
X75240Y-37271D01*
X75221Y-37214D01*
X75202Y-37185D01*
X75183Y-37171D01*
X75145Y-37157D01*
X75107Y-37157D01*
X75069Y-37171D01*
X75050Y-37185D01*
X75030Y-37214D01*
X75030Y-37285D01*
X75050Y-37328D01*
X75221Y-37557D02*
X75240Y-37600D01*
X75259Y-37614D01*
X75297Y-37628D01*
X75354Y-37628D01*
X75392Y-37614D01*
X75411Y-37600D01*
X75430Y-37571D01*
X75430Y-37457D01*
X75030Y-37457D01*
X75030Y-37557D01*
X75050Y-37585D01*
X75069Y-37600D01*
X75107Y-37614D01*
X75145Y-37614D01*
X75183Y-37600D01*
X75202Y-37585D01*
X75221Y-37557D01*
X75221Y-37457D01*
X72690Y-43441D02*
X72290Y-43441D01*
X72481Y-43441D02*
X72481Y-43612D01*
X72690Y-43612D02*
X72290Y-43612D01*
X72690Y-43798D02*
X72671Y-43770D01*
X72652Y-43755D01*
X72614Y-43741D01*
X72500Y-43741D01*
X72462Y-43755D01*
X72443Y-43770D01*
X72424Y-43798D01*
X72424Y-43841D01*
X72443Y-43870D01*
X72462Y-43884D01*
X72500Y-43898D01*
X72614Y-43898D01*
X72652Y-43884D01*
X72671Y-43870D01*
X72690Y-43841D01*
X72690Y-43798D01*
X72671Y-44012D02*
X72690Y-44041D01*
X72690Y-44098D01*
X72671Y-44127D01*
X72633Y-44141D01*
X72614Y-44141D01*
X72576Y-44127D01*
X72557Y-44098D01*
X72557Y-44055D01*
X72538Y-44027D01*
X72500Y-44012D01*
X72481Y-44012D01*
X72443Y-44027D01*
X72424Y-44055D01*
X72424Y-44098D01*
X72443Y-44127D01*
X72424Y-44227D02*
X72424Y-44341D01*
X72290Y-44270D02*
X72633Y-44270D01*
X72671Y-44284D01*
X72690Y-44312D01*
X72690Y-44341D01*
X72290Y-44670D02*
X72614Y-44670D01*
X72652Y-44684D01*
X72671Y-44698D01*
X72690Y-44727D01*
X72690Y-44784D01*
X72671Y-44812D01*
X72652Y-44827D01*
X72614Y-44841D01*
X72290Y-44841D01*
X72671Y-44970D02*
X72690Y-45012D01*
X72690Y-45084D01*
X72671Y-45112D01*
X72652Y-45127D01*
X72614Y-45141D01*
X72576Y-45141D01*
X72538Y-45127D01*
X72519Y-45112D01*
X72500Y-45084D01*
X72481Y-45027D01*
X72462Y-44998D01*
X72443Y-44984D01*
X72405Y-44970D01*
X72367Y-44970D01*
X72329Y-44984D01*
X72310Y-44998D01*
X72290Y-45027D01*
X72290Y-45098D01*
X72310Y-45141D01*
X72481Y-45370D02*
X72500Y-45412D01*
X72519Y-45427D01*
X72557Y-45441D01*
X72614Y-45441D01*
X72652Y-45427D01*
X72671Y-45412D01*
X72690Y-45384D01*
X72690Y-45270D01*
X72290Y-45270D01*
X72290Y-45370D01*
X72310Y-45398D01*
X72329Y-45412D01*
X72367Y-45427D01*
X72405Y-45427D01*
X72443Y-45412D01*
X72462Y-45398D01*
X72481Y-45370D01*
X72481Y-45270D01*
X72538Y-45570D02*
X72538Y-45798D01*
X72481Y-46041D02*
X72500Y-46084D01*
X72519Y-46098D01*
X72557Y-46112D01*
X72614Y-46112D01*
X72652Y-46098D01*
X72671Y-46084D01*
X72690Y-46055D01*
X72690Y-45941D01*
X72290Y-45941D01*
X72290Y-46041D01*
X72310Y-46070D01*
X72329Y-46084D01*
X72367Y-46098D01*
X72405Y-46098D01*
X72443Y-46084D01*
X72462Y-46070D01*
X72481Y-46041D01*
X72481Y-45941D01*
G54D12*
X81851Y-44330D02*
X81051Y-44330D01*
X81051Y-44472D01*
X81090Y-44558D01*
X81166Y-44615D01*
X81242Y-44644D01*
X81394Y-44672D01*
X81509Y-44672D01*
X81661Y-44644D01*
X81737Y-44615D01*
X81813Y-44558D01*
X81851Y-44472D01*
X81851Y-44330D01*
X81813Y-45158D02*
X81851Y-45101D01*
X81851Y-44987D01*
X81813Y-44930D01*
X81737Y-44901D01*
X81432Y-44901D01*
X81356Y-44930D01*
X81318Y-44987D01*
X81318Y-45101D01*
X81356Y-45158D01*
X81432Y-45187D01*
X81509Y-45187D01*
X81585Y-44901D01*
X81318Y-45387D02*
X81851Y-45530D01*
X81318Y-45672D01*
X81851Y-45901D02*
X81318Y-45901D01*
X81051Y-45901D02*
X81090Y-45872D01*
X81128Y-45901D01*
X81090Y-45930D01*
X81051Y-45901D01*
X81128Y-45901D01*
X81813Y-46444D02*
X81851Y-46387D01*
X81851Y-46272D01*
X81813Y-46215D01*
X81775Y-46187D01*
X81699Y-46158D01*
X81470Y-46158D01*
X81394Y-46187D01*
X81356Y-46215D01*
X81318Y-46272D01*
X81318Y-46387D01*
X81356Y-46444D01*
X81813Y-46930D02*
X81851Y-46872D01*
X81851Y-46758D01*
X81813Y-46701D01*
X81737Y-46672D01*
X81432Y-46672D01*
X81356Y-46701D01*
X81318Y-46758D01*
X81318Y-46872D01*
X81356Y-46930D01*
X81432Y-46958D01*
X81509Y-46958D01*
X81585Y-46672D01*
X79875Y-39391D02*
X79875Y-38591D01*
X79647Y-38591D01*
X79590Y-38630D01*
X79561Y-38668D01*
X79532Y-38744D01*
X79532Y-38858D01*
X79561Y-38934D01*
X79590Y-38972D01*
X79647Y-39010D01*
X79875Y-39010D01*
X79190Y-39391D02*
X79247Y-39353D01*
X79275Y-39315D01*
X79304Y-39239D01*
X79304Y-39010D01*
X79275Y-38934D01*
X79247Y-38896D01*
X79190Y-38858D01*
X79104Y-38858D01*
X79047Y-38896D01*
X79018Y-38934D01*
X78990Y-39010D01*
X78990Y-39239D01*
X79018Y-39315D01*
X79047Y-39353D01*
X79104Y-39391D01*
X79190Y-39391D01*
X78790Y-38858D02*
X78675Y-39391D01*
X78561Y-39010D01*
X78447Y-39391D01*
X78332Y-38858D01*
X77875Y-39353D02*
X77932Y-39391D01*
X78047Y-39391D01*
X78104Y-39353D01*
X78132Y-39277D01*
X78132Y-38972D01*
X78104Y-38896D01*
X78047Y-38858D01*
X77932Y-38858D01*
X77875Y-38896D01*
X77847Y-38972D01*
X77847Y-39049D01*
X78132Y-39125D01*
X77590Y-39391D02*
X77590Y-38858D01*
X77590Y-39010D02*
X77561Y-38934D01*
X77532Y-38896D01*
X77475Y-38858D01*
X77418Y-38858D01*
X76510Y-41257D02*
X76471Y-41200D01*
X76471Y-41114D01*
X76510Y-41028D01*
X76586Y-40971D01*
X76662Y-40942D01*
X76814Y-40914D01*
X76929Y-40914D01*
X77081Y-40942D01*
X77157Y-40971D01*
X77233Y-41028D01*
X77271Y-41114D01*
X77271Y-41171D01*
X77233Y-41257D01*
X77195Y-41285D01*
X76929Y-41285D01*
X76929Y-41171D01*
X77271Y-41800D02*
X76852Y-41800D01*
X76776Y-41771D01*
X76738Y-41714D01*
X76738Y-41600D01*
X76776Y-41542D01*
X77233Y-41800D02*
X77271Y-41742D01*
X77271Y-41600D01*
X77233Y-41542D01*
X77157Y-41514D01*
X77081Y-41514D01*
X77005Y-41542D01*
X76967Y-41600D01*
X76967Y-41742D01*
X76929Y-41800D01*
X77271Y-42171D02*
X77233Y-42114D01*
X77157Y-42085D01*
X76471Y-42085D01*
X76738Y-42342D02*
X77271Y-42485D01*
X76738Y-42628D01*
X77271Y-43114D02*
X76852Y-43114D01*
X76776Y-43085D01*
X76738Y-43028D01*
X76738Y-42914D01*
X76776Y-42857D01*
X77233Y-43114D02*
X77271Y-43057D01*
X77271Y-42914D01*
X77233Y-42857D01*
X77157Y-42828D01*
X77081Y-42828D01*
X77005Y-42857D01*
X76967Y-42914D01*
X76967Y-43057D01*
X76929Y-43114D01*
X76738Y-43400D02*
X77271Y-43400D01*
X76814Y-43400D02*
X76776Y-43428D01*
X76738Y-43485D01*
X76738Y-43571D01*
X76776Y-43628D01*
X76852Y-43657D01*
X77271Y-43657D01*
X76738Y-43857D02*
X76738Y-44085D01*
X76471Y-43942D02*
X77157Y-43942D01*
X77233Y-43971D01*
X77271Y-44028D01*
X77271Y-44085D01*
X77271Y-44742D02*
X76471Y-44742D01*
X76738Y-45028D02*
X77271Y-45028D01*
X76814Y-45028D02*
X76776Y-45057D01*
X76738Y-45114D01*
X76738Y-45200D01*
X76776Y-45257D01*
X76852Y-45285D01*
X77271Y-45285D01*
X77271Y-45828D02*
X76471Y-45828D01*
X77233Y-45828D02*
X77271Y-45771D01*
X77271Y-45657D01*
X77233Y-45600D01*
X77195Y-45571D01*
X77119Y-45542D01*
X76890Y-45542D01*
X76814Y-45571D01*
X76776Y-45600D01*
X76738Y-45657D01*
X76738Y-45771D01*
X76776Y-45828D01*
X76738Y-46371D02*
X77271Y-46371D01*
X76738Y-46114D02*
X77157Y-46114D01*
X77233Y-46142D01*
X77271Y-46200D01*
X77271Y-46285D01*
X77233Y-46342D01*
X77195Y-46371D01*
X77233Y-46628D02*
X77271Y-46685D01*
X77271Y-46800D01*
X77233Y-46857D01*
X77157Y-46885D01*
X77119Y-46885D01*
X77043Y-46857D01*
X77005Y-46800D01*
X77005Y-46714D01*
X76967Y-46657D01*
X76890Y-46628D01*
X76852Y-46628D01*
X76776Y-46657D01*
X76738Y-46714D01*
X76738Y-46800D01*
X76776Y-46857D01*
X76738Y-47057D02*
X76738Y-47285D01*
X76471Y-47142D02*
X77157Y-47142D01*
X77233Y-47171D01*
X77271Y-47228D01*
X77271Y-47285D01*
X77271Y-47485D02*
X76738Y-47485D01*
X76890Y-47485D02*
X76814Y-47514D01*
X76776Y-47542D01*
X76738Y-47600D01*
X76738Y-47657D01*
X77271Y-47857D02*
X76738Y-47857D01*
X76471Y-47857D02*
X76510Y-47828D01*
X76548Y-47857D01*
X76510Y-47885D01*
X76471Y-47857D01*
X76548Y-47857D01*
X77233Y-48371D02*
X77271Y-48314D01*
X77271Y-48200D01*
X77233Y-48142D01*
X77157Y-48114D01*
X76852Y-48114D01*
X76776Y-48142D01*
X76738Y-48200D01*
X76738Y-48314D01*
X76776Y-48371D01*
X76852Y-48400D01*
X76929Y-48400D01*
X77005Y-48114D01*
X77233Y-48628D02*
X77271Y-48685D01*
X77271Y-48800D01*
X77233Y-48857D01*
X77157Y-48885D01*
X77119Y-48885D01*
X77043Y-48857D01*
X77005Y-48800D01*
X77005Y-48714D01*
X76967Y-48657D01*
X76890Y-48628D01*
X76852Y-48628D01*
X76776Y-48657D01*
X76738Y-48714D01*
X76738Y-48800D01*
X76776Y-48857D01*
G54D11*
X70589Y-36452D02*
X70570Y-36467D01*
X70550Y-36495D01*
X70550Y-36567D01*
X70570Y-36595D01*
X70589Y-36610D01*
X70627Y-36624D01*
X70665Y-36624D01*
X70722Y-36610D01*
X70950Y-36438D01*
X70950Y-36624D01*
X70550Y-36810D02*
X70550Y-36838D01*
X70570Y-36867D01*
X70589Y-36881D01*
X70627Y-36895D01*
X70703Y-36910D01*
X70798Y-36910D01*
X70874Y-36895D01*
X70912Y-36881D01*
X70931Y-36867D01*
X70950Y-36838D01*
X70950Y-36810D01*
X70931Y-36781D01*
X70912Y-36767D01*
X70874Y-36752D01*
X70798Y-36738D01*
X70703Y-36738D01*
X70627Y-36752D01*
X70589Y-36767D01*
X70570Y-36781D01*
X70550Y-36810D01*
X70950Y-37195D02*
X70950Y-37024D01*
X70950Y-37110D02*
X70550Y-37110D01*
X70608Y-37081D01*
X70646Y-37052D01*
X70665Y-37024D01*
X70684Y-37452D02*
X70950Y-37452D01*
X70531Y-37381D02*
X70817Y-37310D01*
X70817Y-37495D01*
X70950Y-37838D02*
X70684Y-37838D01*
X70760Y-37838D02*
X70722Y-37852D01*
X70703Y-37867D01*
X70684Y-37895D01*
X70684Y-37924D01*
X70931Y-38138D02*
X70950Y-38110D01*
X70950Y-38052D01*
X70931Y-38024D01*
X70893Y-38010D01*
X70741Y-38010D01*
X70703Y-38024D01*
X70684Y-38052D01*
X70684Y-38110D01*
X70703Y-38138D01*
X70741Y-38152D01*
X70779Y-38152D01*
X70817Y-38010D01*
X70684Y-38252D02*
X70950Y-38324D01*
X70684Y-38395D01*
X70589Y-38495D02*
X70570Y-38510D01*
X70550Y-38538D01*
X70550Y-38610D01*
X70570Y-38638D01*
X70589Y-38652D01*
X70627Y-38667D01*
X70665Y-38667D01*
X70722Y-38652D01*
X70950Y-38481D01*
X70950Y-38667D01*
G54D12*
X74981Y-41698D02*
X75629Y-41698D01*
X75705Y-41727D01*
X75743Y-41755D01*
X75781Y-41812D01*
X75781Y-41927D01*
X75743Y-41984D01*
X75705Y-42012D01*
X75629Y-42041D01*
X74981Y-42041D01*
X75743Y-42298D02*
X75781Y-42384D01*
X75781Y-42527D01*
X75743Y-42584D01*
X75705Y-42612D01*
X75629Y-42641D01*
X75553Y-42641D01*
X75477Y-42612D01*
X75439Y-42584D01*
X75400Y-42527D01*
X75362Y-42412D01*
X75324Y-42355D01*
X75286Y-42327D01*
X75210Y-42298D01*
X75134Y-42298D01*
X75058Y-42327D01*
X75020Y-42355D01*
X74981Y-42412D01*
X74981Y-42555D01*
X75020Y-42641D01*
X75362Y-43098D02*
X75400Y-43184D01*
X75439Y-43212D01*
X75515Y-43241D01*
X75629Y-43241D01*
X75705Y-43212D01*
X75743Y-43184D01*
X75781Y-43127D01*
X75781Y-42898D01*
X74981Y-42898D01*
X74981Y-43098D01*
X75020Y-43155D01*
X75058Y-43184D01*
X75134Y-43212D01*
X75210Y-43212D01*
X75286Y-43184D01*
X75324Y-43155D01*
X75362Y-43098D01*
X75362Y-42898D01*
X75781Y-43955D02*
X74981Y-43955D01*
X75743Y-44212D02*
X75781Y-44298D01*
X75781Y-44441D01*
X75743Y-44498D01*
X75705Y-44527D01*
X75629Y-44555D01*
X75553Y-44555D01*
X75477Y-44527D01*
X75439Y-44498D01*
X75400Y-44441D01*
X75362Y-44327D01*
X75324Y-44270D01*
X75286Y-44241D01*
X75210Y-44212D01*
X75134Y-44212D01*
X75058Y-44241D01*
X75020Y-44270D01*
X74981Y-44327D01*
X74981Y-44470D01*
X75020Y-44555D01*
X74981Y-44927D02*
X74981Y-45041D01*
X75020Y-45098D01*
X75096Y-45155D01*
X75248Y-45184D01*
X75515Y-45184D01*
X75667Y-45155D01*
X75743Y-45098D01*
X75781Y-45041D01*
X75781Y-44927D01*
X75743Y-44870D01*
X75667Y-44812D01*
X75515Y-44784D01*
X75248Y-44784D01*
X75096Y-44812D01*
X75020Y-44870D01*
X74981Y-44927D01*
X75781Y-45727D02*
X75781Y-45441D01*
X74981Y-45441D01*
X75553Y-45898D02*
X75553Y-46184D01*
X75781Y-45841D02*
X74981Y-46041D01*
X75781Y-46241D01*
X74981Y-46355D02*
X74981Y-46698D01*
X75781Y-46527D02*
X74981Y-46527D01*
X74981Y-47012D02*
X74981Y-47127D01*
X75020Y-47184D01*
X75096Y-47241D01*
X75248Y-47270D01*
X75515Y-47270D01*
X75667Y-47241D01*
X75743Y-47184D01*
X75781Y-47127D01*
X75781Y-47012D01*
X75743Y-46955D01*
X75667Y-46898D01*
X75515Y-46870D01*
X75248Y-46870D01*
X75096Y-46898D01*
X75020Y-46955D01*
X74981Y-47012D01*
X75781Y-47870D02*
X75400Y-47670D01*
X75781Y-47527D02*
X74981Y-47527D01*
X74981Y-47755D01*
X75020Y-47812D01*
X75058Y-47841D01*
X75134Y-47870D01*
X75248Y-47870D01*
X75324Y-47841D01*
X75362Y-47812D01*
X75400Y-47755D01*
X75400Y-47527D01*
G54D13*
X81205Y-40050D02*
X80615Y-40050D01*
X71665Y-40770D02*
X71075Y-40770D01*
G54D14*
G36*
X73644Y-38224D02*
X73638Y-38212D01*
X73622Y-38187D01*
X73598Y-38150D01*
X73569Y-38107D01*
X73539Y-38063D01*
X73515Y-38028D01*
X73499Y-38003D01*
X73494Y-37992D01*
X73496Y-37987D01*
X73506Y-37966D01*
X73521Y-37936D01*
X73530Y-37919D01*
X73542Y-37891D01*
X73544Y-37878D01*
X73541Y-37875D01*
X73520Y-37865D01*
X73484Y-37850D01*
X73436Y-37829D01*
X73381Y-37805D01*
X73321Y-37780D01*
X73260Y-37754D01*
X73201Y-37730D01*
X73149Y-37709D01*
X73106Y-37692D01*
X73077Y-37680D01*
X73064Y-37676D01*
X73061Y-37677D01*
X73048Y-37691D01*
X73030Y-37715D01*
X72988Y-37767D01*
X72924Y-37818D01*
X72851Y-37849D01*
X72771Y-37860D01*
X72696Y-37851D01*
X72624Y-37821D01*
X72560Y-37771D01*
X72512Y-37711D01*
X72481Y-37640D01*
X72472Y-37560D01*
X72480Y-37484D01*
X72509Y-37411D01*
X72558Y-37346D01*
X72590Y-37319D01*
X72655Y-37281D01*
X72725Y-37260D01*
X72743Y-37257D01*
X72820Y-37261D01*
X72893Y-37283D01*
X72959Y-37324D01*
X73013Y-37380D01*
X73019Y-37387D01*
X73038Y-37414D01*
X73052Y-37431D01*
X73063Y-37445D01*
X73299Y-37347D01*
X73336Y-37331D01*
X73401Y-37304D01*
X73456Y-37281D01*
X73500Y-37262D01*
X73530Y-37249D01*
X73542Y-37243D01*
X73542Y-37242D01*
X73544Y-37234D01*
X73537Y-37216D01*
X73521Y-37183D01*
X73510Y-37161D01*
X73498Y-37136D01*
X73494Y-37125D01*
X73499Y-37115D01*
X73514Y-37091D01*
X73538Y-37056D01*
X73567Y-37014D01*
X73594Y-36974D01*
X73618Y-36937D01*
X73635Y-36910D01*
X73642Y-36897D01*
X73642Y-36895D01*
X73636Y-36883D01*
X73618Y-36862D01*
X73588Y-36830D01*
X73543Y-36784D01*
X73536Y-36777D01*
X73498Y-36740D01*
X73466Y-36710D01*
X73444Y-36689D01*
X73433Y-36682D01*
X73433Y-36682D01*
X73420Y-36689D01*
X73394Y-36706D01*
X73356Y-36730D01*
X73312Y-36760D01*
X73199Y-36838D01*
X73092Y-36795D01*
X73059Y-36782D01*
X73019Y-36765D01*
X72991Y-36753D01*
X72978Y-36747D01*
X72974Y-36735D01*
X72967Y-36706D01*
X72958Y-36663D01*
X72949Y-36612D01*
X72940Y-36564D01*
X72932Y-36521D01*
X72926Y-36489D01*
X72923Y-36475D01*
X72921Y-36471D01*
X72914Y-36469D01*
X72899Y-36467D01*
X72873Y-36466D01*
X72831Y-36465D01*
X72771Y-36465D01*
X72764Y-36465D01*
X72706Y-36466D01*
X72661Y-36467D01*
X72631Y-36468D01*
X72619Y-36470D01*
X72619Y-36470D01*
X72616Y-36484D01*
X72609Y-36515D01*
X72601Y-36558D01*
X72591Y-36610D01*
X72590Y-36614D01*
X72580Y-36665D01*
X72571Y-36709D01*
X72564Y-36739D01*
X72560Y-36752D01*
X72556Y-36755D01*
X72536Y-36765D01*
X72504Y-36780D01*
X72465Y-36797D01*
X72424Y-36814D01*
X72388Y-36829D01*
X72360Y-36839D01*
X72348Y-36842D01*
X72348Y-36841D01*
X72335Y-36834D01*
X72308Y-36816D01*
X72271Y-36791D01*
X72227Y-36760D01*
X72224Y-36758D01*
X72180Y-36728D01*
X72143Y-36704D01*
X72116Y-36688D01*
X72104Y-36682D01*
X72104Y-36682D01*
X72091Y-36692D01*
X72066Y-36714D01*
X72032Y-36746D01*
X71994Y-36785D01*
X71982Y-36797D01*
X71940Y-36839D01*
X71913Y-36869D01*
X71898Y-36887D01*
X71895Y-36896D01*
X71895Y-36897D01*
X71903Y-36910D01*
X71921Y-36937D01*
X71947Y-36975D01*
X71977Y-37019D01*
X71979Y-37022D01*
X72009Y-37066D01*
X72034Y-37103D01*
X72051Y-37129D01*
X72058Y-37140D01*
X72058Y-37142D01*
X72052Y-37160D01*
X72041Y-37191D01*
X72027Y-37229D01*
X72010Y-37270D01*
X71995Y-37306D01*
X71982Y-37334D01*
X71975Y-37347D01*
X71974Y-37347D01*
X71959Y-37352D01*
X71926Y-37360D01*
X71881Y-37369D01*
X71827Y-37379D01*
X71818Y-37381D01*
X71766Y-37391D01*
X71723Y-37399D01*
X71693Y-37405D01*
X71681Y-37408D01*
X71679Y-37416D01*
X71677Y-37441D01*
X71676Y-37480D01*
X71676Y-37527D01*
X71676Y-37576D01*
X71677Y-37625D01*
X71679Y-37666D01*
X71681Y-37696D01*
X71683Y-37708D01*
X71684Y-37708D01*
X71700Y-37713D01*
X71733Y-37720D01*
X71778Y-37729D01*
X71832Y-37740D01*
X71842Y-37742D01*
X71894Y-37751D01*
X71936Y-37760D01*
X71966Y-37766D01*
X71977Y-37770D01*
X71980Y-37774D01*
X71989Y-37796D01*
X72004Y-37831D01*
X72021Y-37874D01*
X72062Y-37974D01*
X71977Y-38097D01*
X71970Y-38109D01*
X71940Y-38153D01*
X71915Y-38189D01*
X71899Y-38214D01*
X71893Y-38225D01*
X71894Y-38226D01*
X71904Y-38238D01*
X71927Y-38262D01*
X71960Y-38296D01*
X71998Y-38334D01*
X72027Y-38363D01*
X72061Y-38397D01*
X72084Y-38418D01*
X72099Y-38430D01*
X72108Y-38434D01*
X72114Y-38433D01*
X72127Y-38425D01*
X72154Y-38407D01*
X72191Y-38382D01*
X72235Y-38352D01*
X72271Y-38327D01*
X72312Y-38301D01*
X72342Y-38283D01*
X72356Y-38277D01*
X72362Y-38279D01*
X72386Y-38287D01*
X72423Y-38302D01*
X72466Y-38320D01*
X72563Y-38363D01*
X72576Y-38427D01*
X72583Y-38466D01*
X72593Y-38520D01*
X72603Y-38571D01*
X72619Y-38652D01*
X72915Y-38655D01*
X72921Y-38643D01*
X72924Y-38631D01*
X72931Y-38601D01*
X72939Y-38558D01*
X72949Y-38508D01*
X72957Y-38465D01*
X72965Y-38421D01*
X72971Y-38390D01*
X72974Y-38376D01*
X72978Y-38373D01*
X72999Y-38362D01*
X73033Y-38347D01*
X73073Y-38330D01*
X73114Y-38312D01*
X73153Y-38297D01*
X73182Y-38286D01*
X73197Y-38282D01*
X73208Y-38288D01*
X73234Y-38305D01*
X73270Y-38329D01*
X73313Y-38358D01*
X73356Y-38387D01*
X73393Y-38412D01*
X73419Y-38429D01*
X73431Y-38437D01*
X73440Y-38433D01*
X73460Y-38416D01*
X73494Y-38383D01*
X73542Y-38335D01*
X73549Y-38327D01*
X73586Y-38289D01*
X73616Y-38256D01*
X73636Y-38234D01*
X73644Y-38224D01*
X73644Y-38224D01*
G37*
G54D15*
X81121Y-41175D02*
X81121Y-40875D01*
X81050Y-40875D01*
X81007Y-40890D01*
X80978Y-40918D01*
X80964Y-40947D01*
X80950Y-41004D01*
X80950Y-41047D01*
X80964Y-41104D01*
X80978Y-41132D01*
X81007Y-41161D01*
X81050Y-41175D01*
X81121Y-41175D01*
X80835Y-40904D02*
X80821Y-40890D01*
X80792Y-40875D01*
X80721Y-40875D01*
X80692Y-40890D01*
X80678Y-40904D01*
X80664Y-40932D01*
X80664Y-40961D01*
X80678Y-41004D01*
X80850Y-41175D01*
X80664Y-41175D01*
X71611Y-41895D02*
X71611Y-41595D01*
X71540Y-41595D01*
X71497Y-41610D01*
X71468Y-41638D01*
X71454Y-41667D01*
X71440Y-41724D01*
X71440Y-41767D01*
X71454Y-41824D01*
X71468Y-41852D01*
X71497Y-41881D01*
X71540Y-41895D01*
X71611Y-41895D01*
X71154Y-41895D02*
X71325Y-41895D01*
X71240Y-41895D02*
X71240Y-41595D01*
X71268Y-41638D01*
X71297Y-41667D01*
X71325Y-41681D01*
M02*
