%FSLAX34Y34*%
G04 Gerber Fmt 3.4, Leading zero omitted, Abs format*
G04 (created by PCBNEW (2013-11-28 BZR 4510)-product) date Thu 15 May 2014 02:09:21 PM EDT*
%MOIN*%
G01*
G70*
G90*
G04 APERTURE LIST*
%ADD10C,0.005906*%
%ADD11C,0.006000*%
%ADD12C,0.012000*%
%ADD13C,0.004000*%
%ADD14C,0.000100*%
%ADD15C,0.003500*%
G04 APERTURE END LIST*
G54D10*
G54D11*
X75308Y-36400D02*
X75408Y-36210D01*
X75480Y-36400D02*
X75480Y-36000D01*
X75365Y-36000D01*
X75337Y-36020D01*
X75322Y-36039D01*
X75308Y-36077D01*
X75308Y-36134D01*
X75322Y-36172D01*
X75337Y-36191D01*
X75365Y-36210D01*
X75480Y-36210D01*
X75065Y-36381D02*
X75094Y-36400D01*
X75151Y-36400D01*
X75180Y-36381D01*
X75194Y-36343D01*
X75194Y-36191D01*
X75180Y-36153D01*
X75151Y-36134D01*
X75094Y-36134D01*
X75065Y-36153D01*
X75051Y-36191D01*
X75051Y-36229D01*
X75194Y-36267D01*
X74794Y-36134D02*
X74794Y-36458D01*
X74808Y-36496D01*
X74822Y-36515D01*
X74851Y-36534D01*
X74894Y-36534D01*
X74922Y-36515D01*
X74794Y-36381D02*
X74822Y-36400D01*
X74880Y-36400D01*
X74908Y-36381D01*
X74922Y-36362D01*
X74937Y-36324D01*
X74937Y-36210D01*
X74922Y-36172D01*
X74908Y-36153D01*
X74880Y-36134D01*
X74822Y-36134D01*
X74794Y-36153D01*
X74522Y-36134D02*
X74522Y-36400D01*
X74651Y-36134D02*
X74651Y-36343D01*
X74637Y-36381D01*
X74608Y-36400D01*
X74565Y-36400D01*
X74537Y-36381D01*
X74522Y-36362D01*
X74337Y-36400D02*
X74365Y-36381D01*
X74379Y-36343D01*
X74379Y-36000D01*
X74094Y-36400D02*
X74094Y-36191D01*
X74108Y-36153D01*
X74137Y-36134D01*
X74194Y-36134D01*
X74222Y-36153D01*
X74094Y-36381D02*
X74122Y-36400D01*
X74194Y-36400D01*
X74222Y-36381D01*
X74237Y-36343D01*
X74237Y-36305D01*
X74222Y-36267D01*
X74194Y-36248D01*
X74122Y-36248D01*
X74094Y-36229D01*
X73994Y-36134D02*
X73879Y-36134D01*
X73951Y-36000D02*
X73951Y-36343D01*
X73937Y-36381D01*
X73908Y-36400D01*
X73879Y-36400D01*
X73737Y-36400D02*
X73765Y-36381D01*
X73779Y-36362D01*
X73794Y-36324D01*
X73794Y-36210D01*
X73779Y-36172D01*
X73765Y-36153D01*
X73737Y-36134D01*
X73694Y-36134D01*
X73665Y-36153D01*
X73651Y-36172D01*
X73637Y-36210D01*
X73637Y-36324D01*
X73651Y-36362D01*
X73665Y-36381D01*
X73694Y-36400D01*
X73737Y-36400D01*
X73508Y-36400D02*
X73508Y-36134D01*
X73508Y-36210D02*
X73494Y-36172D01*
X73479Y-36153D01*
X73451Y-36134D01*
X73422Y-36134D01*
X72994Y-36191D02*
X72951Y-36210D01*
X72937Y-36229D01*
X72922Y-36267D01*
X72922Y-36324D01*
X72937Y-36362D01*
X72951Y-36381D01*
X72979Y-36400D01*
X73094Y-36400D01*
X73094Y-36000D01*
X72994Y-36000D01*
X72965Y-36020D01*
X72951Y-36039D01*
X72937Y-36077D01*
X72937Y-36115D01*
X72951Y-36153D01*
X72965Y-36172D01*
X72994Y-36191D01*
X73094Y-36191D01*
X72822Y-36134D02*
X72751Y-36400D01*
X72679Y-36134D02*
X72751Y-36400D01*
X72779Y-36496D01*
X72794Y-36515D01*
X72822Y-36534D01*
X72565Y-36134D02*
X72565Y-36534D01*
X72565Y-36153D02*
X72537Y-36134D01*
X72479Y-36134D01*
X72451Y-36153D01*
X72437Y-36172D01*
X72422Y-36210D01*
X72422Y-36324D01*
X72437Y-36362D01*
X72451Y-36381D01*
X72479Y-36400D01*
X72537Y-36400D01*
X72565Y-36381D01*
X72165Y-36400D02*
X72165Y-36191D01*
X72179Y-36153D01*
X72208Y-36134D01*
X72265Y-36134D01*
X72294Y-36153D01*
X72165Y-36381D02*
X72194Y-36400D01*
X72265Y-36400D01*
X72294Y-36381D01*
X72308Y-36343D01*
X72308Y-36305D01*
X72294Y-36267D01*
X72265Y-36248D01*
X72194Y-36248D01*
X72165Y-36229D01*
X72037Y-36381D02*
X72008Y-36400D01*
X71951Y-36400D01*
X71922Y-36381D01*
X71908Y-36343D01*
X71908Y-36324D01*
X71922Y-36286D01*
X71951Y-36267D01*
X71994Y-36267D01*
X72022Y-36248D01*
X72037Y-36210D01*
X72037Y-36191D01*
X72022Y-36153D01*
X71994Y-36134D01*
X71951Y-36134D01*
X71922Y-36153D01*
X71794Y-36381D02*
X71765Y-36400D01*
X71708Y-36400D01*
X71679Y-36381D01*
X71665Y-36343D01*
X71665Y-36324D01*
X71679Y-36286D01*
X71708Y-36267D01*
X71751Y-36267D01*
X71779Y-36248D01*
X71794Y-36210D01*
X71794Y-36191D01*
X71779Y-36153D01*
X71751Y-36134D01*
X71708Y-36134D01*
X71679Y-36153D01*
X77506Y-50030D02*
X77106Y-50030D01*
X77106Y-50101D01*
X77126Y-50144D01*
X77164Y-50172D01*
X77202Y-50187D01*
X77278Y-50201D01*
X77335Y-50201D01*
X77411Y-50187D01*
X77449Y-50172D01*
X77487Y-50144D01*
X77506Y-50101D01*
X77506Y-50030D01*
X77506Y-50330D02*
X77240Y-50330D01*
X77106Y-50330D02*
X77126Y-50315D01*
X77145Y-50330D01*
X77126Y-50344D01*
X77106Y-50330D01*
X77145Y-50330D01*
X77487Y-50458D02*
X77506Y-50487D01*
X77506Y-50544D01*
X77487Y-50572D01*
X77449Y-50587D01*
X77430Y-50587D01*
X77392Y-50572D01*
X77373Y-50544D01*
X77373Y-50501D01*
X77354Y-50472D01*
X77316Y-50458D01*
X77297Y-50458D01*
X77259Y-50472D01*
X77240Y-50501D01*
X77240Y-50544D01*
X77259Y-50572D01*
X77487Y-50844D02*
X77506Y-50815D01*
X77506Y-50758D01*
X77487Y-50729D01*
X77468Y-50715D01*
X77430Y-50701D01*
X77316Y-50701D01*
X77278Y-50715D01*
X77259Y-50729D01*
X77240Y-50758D01*
X77240Y-50815D01*
X77259Y-50844D01*
X77506Y-51015D02*
X77487Y-50987D01*
X77468Y-50972D01*
X77430Y-50958D01*
X77316Y-50958D01*
X77278Y-50972D01*
X77259Y-50987D01*
X77240Y-51015D01*
X77240Y-51058D01*
X77259Y-51087D01*
X77278Y-51101D01*
X77316Y-51115D01*
X77430Y-51115D01*
X77468Y-51101D01*
X77487Y-51087D01*
X77506Y-51058D01*
X77506Y-51015D01*
X77240Y-51244D02*
X77506Y-51244D01*
X77278Y-51244D02*
X77259Y-51258D01*
X77240Y-51287D01*
X77240Y-51330D01*
X77259Y-51358D01*
X77297Y-51372D01*
X77506Y-51372D01*
X77240Y-51515D02*
X77506Y-51515D01*
X77278Y-51515D02*
X77259Y-51530D01*
X77240Y-51558D01*
X77240Y-51601D01*
X77259Y-51630D01*
X77297Y-51644D01*
X77506Y-51644D01*
X77487Y-51901D02*
X77506Y-51872D01*
X77506Y-51815D01*
X77487Y-51787D01*
X77449Y-51772D01*
X77297Y-51772D01*
X77259Y-51787D01*
X77240Y-51815D01*
X77240Y-51872D01*
X77259Y-51901D01*
X77297Y-51915D01*
X77335Y-51915D01*
X77373Y-51772D01*
X77487Y-52172D02*
X77506Y-52144D01*
X77506Y-52087D01*
X77487Y-52058D01*
X77468Y-52044D01*
X77430Y-52030D01*
X77316Y-52030D01*
X77278Y-52044D01*
X77259Y-52058D01*
X77240Y-52087D01*
X77240Y-52144D01*
X77259Y-52172D01*
X77240Y-52258D02*
X77240Y-52372D01*
X77106Y-52301D02*
X77449Y-52301D01*
X77487Y-52315D01*
X77506Y-52344D01*
X77506Y-52372D01*
X71420Y-48794D02*
X71020Y-48794D01*
X71211Y-48794D02*
X71211Y-48965D01*
X71420Y-48965D02*
X71020Y-48965D01*
X71420Y-49151D02*
X71401Y-49122D01*
X71382Y-49108D01*
X71344Y-49094D01*
X71230Y-49094D01*
X71192Y-49108D01*
X71173Y-49122D01*
X71154Y-49151D01*
X71154Y-49194D01*
X71173Y-49222D01*
X71192Y-49237D01*
X71230Y-49251D01*
X71344Y-49251D01*
X71382Y-49237D01*
X71401Y-49222D01*
X71420Y-49194D01*
X71420Y-49151D01*
X71401Y-49365D02*
X71420Y-49394D01*
X71420Y-49451D01*
X71401Y-49480D01*
X71363Y-49494D01*
X71344Y-49494D01*
X71306Y-49480D01*
X71287Y-49451D01*
X71287Y-49408D01*
X71268Y-49380D01*
X71230Y-49365D01*
X71211Y-49365D01*
X71173Y-49380D01*
X71154Y-49408D01*
X71154Y-49451D01*
X71173Y-49480D01*
X71154Y-49580D02*
X71154Y-49694D01*
X71020Y-49622D02*
X71363Y-49622D01*
X71401Y-49637D01*
X71420Y-49665D01*
X71420Y-49694D01*
X71420Y-50022D02*
X71154Y-50022D01*
X71192Y-50022D02*
X71173Y-50037D01*
X71154Y-50065D01*
X71154Y-50108D01*
X71173Y-50137D01*
X71211Y-50151D01*
X71420Y-50151D01*
X71211Y-50151D02*
X71173Y-50165D01*
X71154Y-50194D01*
X71154Y-50237D01*
X71173Y-50265D01*
X71211Y-50280D01*
X71420Y-50280D01*
X71420Y-50422D02*
X71154Y-50422D01*
X71020Y-50422D02*
X71040Y-50408D01*
X71059Y-50422D01*
X71040Y-50437D01*
X71020Y-50422D01*
X71059Y-50422D01*
X71401Y-50694D02*
X71420Y-50665D01*
X71420Y-50608D01*
X71401Y-50580D01*
X71382Y-50565D01*
X71344Y-50551D01*
X71230Y-50551D01*
X71192Y-50565D01*
X71173Y-50580D01*
X71154Y-50608D01*
X71154Y-50665D01*
X71173Y-50694D01*
X71420Y-50822D02*
X71154Y-50822D01*
X71230Y-50822D02*
X71192Y-50837D01*
X71173Y-50851D01*
X71154Y-50880D01*
X71154Y-50908D01*
X71420Y-51051D02*
X71401Y-51022D01*
X71382Y-51008D01*
X71344Y-50994D01*
X71230Y-50994D01*
X71192Y-51008D01*
X71173Y-51022D01*
X71154Y-51051D01*
X71154Y-51094D01*
X71173Y-51122D01*
X71192Y-51137D01*
X71230Y-51151D01*
X71344Y-51151D01*
X71382Y-51137D01*
X71401Y-51122D01*
X71420Y-51094D01*
X71420Y-51051D01*
X71020Y-51508D02*
X71344Y-51508D01*
X71382Y-51522D01*
X71401Y-51537D01*
X71420Y-51565D01*
X71420Y-51622D01*
X71401Y-51651D01*
X71382Y-51665D01*
X71344Y-51680D01*
X71020Y-51680D01*
X71401Y-51808D02*
X71420Y-51851D01*
X71420Y-51922D01*
X71401Y-51951D01*
X71382Y-51965D01*
X71344Y-51980D01*
X71306Y-51980D01*
X71268Y-51965D01*
X71249Y-51951D01*
X71230Y-51922D01*
X71211Y-51865D01*
X71192Y-51837D01*
X71173Y-51822D01*
X71135Y-51808D01*
X71097Y-51808D01*
X71059Y-51822D01*
X71040Y-51837D01*
X71020Y-51865D01*
X71020Y-51937D01*
X71040Y-51980D01*
X71211Y-52208D02*
X71230Y-52251D01*
X71249Y-52265D01*
X71287Y-52280D01*
X71344Y-52280D01*
X71382Y-52265D01*
X71401Y-52251D01*
X71420Y-52222D01*
X71420Y-52108D01*
X71020Y-52108D01*
X71020Y-52208D01*
X71040Y-52237D01*
X71059Y-52251D01*
X71097Y-52265D01*
X71135Y-52265D01*
X71173Y-52251D01*
X71192Y-52237D01*
X71211Y-52208D01*
X71211Y-52108D01*
X83572Y-40870D02*
X83630Y-40870D01*
X83658Y-40890D01*
X83672Y-40909D01*
X83701Y-40966D01*
X83715Y-41042D01*
X83715Y-41194D01*
X83701Y-41232D01*
X83687Y-41251D01*
X83658Y-41270D01*
X83601Y-41270D01*
X83572Y-41251D01*
X83558Y-41232D01*
X83544Y-41194D01*
X83544Y-41099D01*
X83558Y-41061D01*
X83572Y-41042D01*
X83601Y-41023D01*
X83658Y-41023D01*
X83687Y-41042D01*
X83701Y-41061D01*
X83715Y-41099D01*
X83415Y-41118D02*
X83187Y-41118D01*
X82887Y-41270D02*
X83058Y-41270D01*
X82972Y-41270D02*
X82972Y-40870D01*
X83001Y-40928D01*
X83030Y-40966D01*
X83058Y-40985D01*
X82615Y-40870D02*
X82758Y-40870D01*
X82772Y-41061D01*
X82758Y-41042D01*
X82730Y-41023D01*
X82658Y-41023D01*
X82630Y-41042D01*
X82615Y-41061D01*
X82601Y-41099D01*
X82601Y-41194D01*
X82615Y-41232D01*
X82630Y-41251D01*
X82658Y-41270D01*
X82730Y-41270D01*
X82758Y-41251D01*
X82772Y-41232D01*
X82515Y-40870D02*
X82415Y-41270D01*
X82315Y-40870D01*
X78699Y-38014D02*
X78842Y-38014D01*
X78856Y-38205D01*
X78842Y-38186D01*
X78813Y-38167D01*
X78742Y-38167D01*
X78713Y-38186D01*
X78699Y-38205D01*
X78685Y-38243D01*
X78685Y-38338D01*
X78699Y-38376D01*
X78713Y-38395D01*
X78742Y-38414D01*
X78813Y-38414D01*
X78842Y-38395D01*
X78856Y-38376D01*
X78599Y-38014D02*
X78499Y-38414D01*
X78399Y-38014D01*
X78070Y-38014D02*
X78070Y-38338D01*
X78056Y-38376D01*
X78042Y-38395D01*
X78013Y-38414D01*
X77956Y-38414D01*
X77928Y-38395D01*
X77913Y-38376D01*
X77899Y-38338D01*
X77899Y-38014D01*
X77770Y-38395D02*
X77728Y-38414D01*
X77656Y-38414D01*
X77628Y-38395D01*
X77613Y-38376D01*
X77599Y-38338D01*
X77599Y-38300D01*
X77613Y-38262D01*
X77628Y-38243D01*
X77656Y-38224D01*
X77713Y-38205D01*
X77742Y-38186D01*
X77756Y-38167D01*
X77770Y-38129D01*
X77770Y-38091D01*
X77756Y-38053D01*
X77742Y-38034D01*
X77713Y-38014D01*
X77642Y-38014D01*
X77599Y-38034D01*
X77370Y-38205D02*
X77328Y-38224D01*
X77313Y-38243D01*
X77299Y-38281D01*
X77299Y-38338D01*
X77313Y-38376D01*
X77328Y-38395D01*
X77356Y-38414D01*
X77470Y-38414D01*
X77470Y-38014D01*
X77370Y-38014D01*
X77342Y-38034D01*
X77328Y-38053D01*
X77313Y-38091D01*
X77313Y-38129D01*
X77328Y-38167D01*
X77342Y-38186D01*
X77370Y-38205D01*
X77470Y-38205D01*
X72690Y-43441D02*
X72290Y-43441D01*
X72481Y-43441D02*
X72481Y-43612D01*
X72690Y-43612D02*
X72290Y-43612D01*
X72690Y-43798D02*
X72671Y-43770D01*
X72652Y-43755D01*
X72614Y-43741D01*
X72500Y-43741D01*
X72462Y-43755D01*
X72443Y-43770D01*
X72424Y-43798D01*
X72424Y-43841D01*
X72443Y-43870D01*
X72462Y-43884D01*
X72500Y-43898D01*
X72614Y-43898D01*
X72652Y-43884D01*
X72671Y-43870D01*
X72690Y-43841D01*
X72690Y-43798D01*
X72671Y-44012D02*
X72690Y-44041D01*
X72690Y-44098D01*
X72671Y-44127D01*
X72633Y-44141D01*
X72614Y-44141D01*
X72576Y-44127D01*
X72557Y-44098D01*
X72557Y-44055D01*
X72538Y-44027D01*
X72500Y-44012D01*
X72481Y-44012D01*
X72443Y-44027D01*
X72424Y-44055D01*
X72424Y-44098D01*
X72443Y-44127D01*
X72424Y-44227D02*
X72424Y-44341D01*
X72290Y-44270D02*
X72633Y-44270D01*
X72671Y-44284D01*
X72690Y-44312D01*
X72690Y-44341D01*
X72290Y-44670D02*
X72614Y-44670D01*
X72652Y-44684D01*
X72671Y-44698D01*
X72690Y-44727D01*
X72690Y-44784D01*
X72671Y-44812D01*
X72652Y-44827D01*
X72614Y-44841D01*
X72290Y-44841D01*
X72671Y-44970D02*
X72690Y-45012D01*
X72690Y-45084D01*
X72671Y-45112D01*
X72652Y-45127D01*
X72614Y-45141D01*
X72576Y-45141D01*
X72538Y-45127D01*
X72519Y-45112D01*
X72500Y-45084D01*
X72481Y-45027D01*
X72462Y-44998D01*
X72443Y-44984D01*
X72405Y-44970D01*
X72367Y-44970D01*
X72329Y-44984D01*
X72310Y-44998D01*
X72290Y-45027D01*
X72290Y-45098D01*
X72310Y-45141D01*
X72481Y-45370D02*
X72500Y-45412D01*
X72519Y-45427D01*
X72557Y-45441D01*
X72614Y-45441D01*
X72652Y-45427D01*
X72671Y-45412D01*
X72690Y-45384D01*
X72690Y-45270D01*
X72290Y-45270D01*
X72290Y-45370D01*
X72310Y-45398D01*
X72329Y-45412D01*
X72367Y-45427D01*
X72405Y-45427D01*
X72443Y-45412D01*
X72462Y-45398D01*
X72481Y-45370D01*
X72481Y-45270D01*
X72538Y-45570D02*
X72538Y-45798D01*
X72481Y-46041D02*
X72500Y-46084D01*
X72519Y-46098D01*
X72557Y-46112D01*
X72614Y-46112D01*
X72652Y-46098D01*
X72671Y-46084D01*
X72690Y-46055D01*
X72690Y-45941D01*
X72290Y-45941D01*
X72290Y-46041D01*
X72310Y-46070D01*
X72329Y-46084D01*
X72367Y-46098D01*
X72405Y-46098D01*
X72443Y-46084D01*
X72462Y-46070D01*
X72481Y-46041D01*
X72481Y-45941D01*
G54D12*
X81851Y-44330D02*
X81051Y-44330D01*
X81051Y-44472D01*
X81090Y-44558D01*
X81166Y-44615D01*
X81242Y-44644D01*
X81394Y-44672D01*
X81509Y-44672D01*
X81661Y-44644D01*
X81737Y-44615D01*
X81813Y-44558D01*
X81851Y-44472D01*
X81851Y-44330D01*
X81813Y-45158D02*
X81851Y-45101D01*
X81851Y-44987D01*
X81813Y-44930D01*
X81737Y-44901D01*
X81432Y-44901D01*
X81356Y-44930D01*
X81318Y-44987D01*
X81318Y-45101D01*
X81356Y-45158D01*
X81432Y-45187D01*
X81509Y-45187D01*
X81585Y-44901D01*
X81318Y-45387D02*
X81851Y-45530D01*
X81318Y-45672D01*
X81851Y-45901D02*
X81318Y-45901D01*
X81051Y-45901D02*
X81090Y-45872D01*
X81128Y-45901D01*
X81090Y-45930D01*
X81051Y-45901D01*
X81128Y-45901D01*
X81813Y-46444D02*
X81851Y-46387D01*
X81851Y-46272D01*
X81813Y-46215D01*
X81775Y-46187D01*
X81699Y-46158D01*
X81470Y-46158D01*
X81394Y-46187D01*
X81356Y-46215D01*
X81318Y-46272D01*
X81318Y-46387D01*
X81356Y-46444D01*
X81813Y-46930D02*
X81851Y-46872D01*
X81851Y-46758D01*
X81813Y-46701D01*
X81737Y-46672D01*
X81432Y-46672D01*
X81356Y-46701D01*
X81318Y-46758D01*
X81318Y-46872D01*
X81356Y-46930D01*
X81432Y-46958D01*
X81509Y-46958D01*
X81585Y-46672D01*
X79803Y-38568D02*
X79003Y-38568D01*
X79003Y-38796D01*
X79042Y-38854D01*
X79080Y-38882D01*
X79156Y-38911D01*
X79270Y-38911D01*
X79346Y-38882D01*
X79384Y-38854D01*
X79422Y-38796D01*
X79422Y-38568D01*
X79803Y-39254D02*
X79765Y-39196D01*
X79727Y-39168D01*
X79651Y-39139D01*
X79422Y-39139D01*
X79346Y-39168D01*
X79308Y-39196D01*
X79270Y-39254D01*
X79270Y-39339D01*
X79308Y-39396D01*
X79346Y-39425D01*
X79422Y-39454D01*
X79651Y-39454D01*
X79727Y-39425D01*
X79765Y-39396D01*
X79803Y-39339D01*
X79803Y-39254D01*
X79270Y-39654D02*
X79803Y-39768D01*
X79422Y-39882D01*
X79803Y-39996D01*
X79270Y-40111D01*
X79765Y-40568D02*
X79803Y-40511D01*
X79803Y-40396D01*
X79765Y-40339D01*
X79689Y-40311D01*
X79384Y-40311D01*
X79308Y-40339D01*
X79270Y-40396D01*
X79270Y-40511D01*
X79308Y-40568D01*
X79384Y-40596D01*
X79461Y-40596D01*
X79537Y-40311D01*
X79803Y-40854D02*
X79270Y-40854D01*
X79422Y-40854D02*
X79346Y-40882D01*
X79308Y-40911D01*
X79270Y-40968D01*
X79270Y-41025D01*
X76510Y-41257D02*
X76471Y-41200D01*
X76471Y-41114D01*
X76510Y-41028D01*
X76586Y-40971D01*
X76662Y-40942D01*
X76814Y-40914D01*
X76929Y-40914D01*
X77081Y-40942D01*
X77157Y-40971D01*
X77233Y-41028D01*
X77271Y-41114D01*
X77271Y-41171D01*
X77233Y-41257D01*
X77195Y-41285D01*
X76929Y-41285D01*
X76929Y-41171D01*
X77271Y-41800D02*
X76852Y-41800D01*
X76776Y-41771D01*
X76738Y-41714D01*
X76738Y-41600D01*
X76776Y-41542D01*
X77233Y-41800D02*
X77271Y-41742D01*
X77271Y-41600D01*
X77233Y-41542D01*
X77157Y-41514D01*
X77081Y-41514D01*
X77005Y-41542D01*
X76967Y-41600D01*
X76967Y-41742D01*
X76929Y-41800D01*
X77271Y-42171D02*
X77233Y-42114D01*
X77157Y-42085D01*
X76471Y-42085D01*
X76738Y-42342D02*
X77271Y-42485D01*
X76738Y-42628D01*
X77271Y-43114D02*
X76852Y-43114D01*
X76776Y-43085D01*
X76738Y-43028D01*
X76738Y-42914D01*
X76776Y-42857D01*
X77233Y-43114D02*
X77271Y-43057D01*
X77271Y-42914D01*
X77233Y-42857D01*
X77157Y-42828D01*
X77081Y-42828D01*
X77005Y-42857D01*
X76967Y-42914D01*
X76967Y-43057D01*
X76929Y-43114D01*
X76738Y-43400D02*
X77271Y-43400D01*
X76814Y-43400D02*
X76776Y-43428D01*
X76738Y-43485D01*
X76738Y-43571D01*
X76776Y-43628D01*
X76852Y-43657D01*
X77271Y-43657D01*
X76738Y-43857D02*
X76738Y-44085D01*
X76471Y-43942D02*
X77157Y-43942D01*
X77233Y-43971D01*
X77271Y-44028D01*
X77271Y-44085D01*
X77271Y-44742D02*
X76471Y-44742D01*
X76738Y-45028D02*
X77271Y-45028D01*
X76814Y-45028D02*
X76776Y-45057D01*
X76738Y-45114D01*
X76738Y-45200D01*
X76776Y-45257D01*
X76852Y-45285D01*
X77271Y-45285D01*
X77271Y-45828D02*
X76471Y-45828D01*
X77233Y-45828D02*
X77271Y-45771D01*
X77271Y-45657D01*
X77233Y-45600D01*
X77195Y-45571D01*
X77119Y-45542D01*
X76890Y-45542D01*
X76814Y-45571D01*
X76776Y-45600D01*
X76738Y-45657D01*
X76738Y-45771D01*
X76776Y-45828D01*
X76738Y-46371D02*
X77271Y-46371D01*
X76738Y-46114D02*
X77157Y-46114D01*
X77233Y-46142D01*
X77271Y-46200D01*
X77271Y-46285D01*
X77233Y-46342D01*
X77195Y-46371D01*
X77233Y-46628D02*
X77271Y-46685D01*
X77271Y-46800D01*
X77233Y-46857D01*
X77157Y-46885D01*
X77119Y-46885D01*
X77043Y-46857D01*
X77005Y-46800D01*
X77005Y-46714D01*
X76967Y-46657D01*
X76890Y-46628D01*
X76852Y-46628D01*
X76776Y-46657D01*
X76738Y-46714D01*
X76738Y-46800D01*
X76776Y-46857D01*
X76738Y-47057D02*
X76738Y-47285D01*
X76471Y-47142D02*
X77157Y-47142D01*
X77233Y-47171D01*
X77271Y-47228D01*
X77271Y-47285D01*
X77271Y-47485D02*
X76738Y-47485D01*
X76890Y-47485D02*
X76814Y-47514D01*
X76776Y-47542D01*
X76738Y-47600D01*
X76738Y-47657D01*
X77271Y-47857D02*
X76738Y-47857D01*
X76471Y-47857D02*
X76510Y-47828D01*
X76548Y-47857D01*
X76510Y-47885D01*
X76471Y-47857D01*
X76548Y-47857D01*
X77233Y-48371D02*
X77271Y-48314D01*
X77271Y-48200D01*
X77233Y-48142D01*
X77157Y-48114D01*
X76852Y-48114D01*
X76776Y-48142D01*
X76738Y-48200D01*
X76738Y-48314D01*
X76776Y-48371D01*
X76852Y-48400D01*
X76929Y-48400D01*
X77005Y-48114D01*
X77233Y-48628D02*
X77271Y-48685D01*
X77271Y-48800D01*
X77233Y-48857D01*
X77157Y-48885D01*
X77119Y-48885D01*
X77043Y-48857D01*
X77005Y-48800D01*
X77005Y-48714D01*
X76967Y-48657D01*
X76890Y-48628D01*
X76852Y-48628D01*
X76776Y-48657D01*
X76738Y-48714D01*
X76738Y-48800D01*
X76776Y-48857D01*
G54D11*
X68481Y-37904D02*
X68462Y-37918D01*
X68442Y-37947D01*
X68442Y-38018D01*
X68462Y-38047D01*
X68481Y-38061D01*
X68519Y-38076D01*
X68557Y-38076D01*
X68614Y-38061D01*
X68842Y-37890D01*
X68842Y-38076D01*
X68442Y-38261D02*
X68442Y-38290D01*
X68462Y-38318D01*
X68481Y-38333D01*
X68519Y-38347D01*
X68595Y-38361D01*
X68690Y-38361D01*
X68766Y-38347D01*
X68804Y-38333D01*
X68823Y-38318D01*
X68842Y-38290D01*
X68842Y-38261D01*
X68823Y-38233D01*
X68804Y-38218D01*
X68766Y-38204D01*
X68690Y-38190D01*
X68595Y-38190D01*
X68519Y-38204D01*
X68481Y-38218D01*
X68462Y-38233D01*
X68442Y-38261D01*
X68842Y-38647D02*
X68842Y-38476D01*
X68842Y-38561D02*
X68442Y-38561D01*
X68500Y-38533D01*
X68538Y-38504D01*
X68557Y-38476D01*
X68576Y-38904D02*
X68842Y-38904D01*
X68423Y-38833D02*
X68709Y-38761D01*
X68709Y-38947D01*
X68842Y-39290D02*
X68576Y-39290D01*
X68652Y-39290D02*
X68614Y-39304D01*
X68595Y-39318D01*
X68576Y-39347D01*
X68576Y-39376D01*
X68823Y-39590D02*
X68842Y-39561D01*
X68842Y-39504D01*
X68823Y-39476D01*
X68785Y-39461D01*
X68633Y-39461D01*
X68595Y-39476D01*
X68576Y-39504D01*
X68576Y-39561D01*
X68595Y-39590D01*
X68633Y-39604D01*
X68671Y-39604D01*
X68709Y-39461D01*
X68576Y-39704D02*
X68842Y-39776D01*
X68576Y-39847D01*
X68481Y-39947D02*
X68462Y-39961D01*
X68442Y-39990D01*
X68442Y-40061D01*
X68462Y-40090D01*
X68481Y-40104D01*
X68519Y-40118D01*
X68557Y-40118D01*
X68614Y-40104D01*
X68842Y-39933D01*
X68842Y-40118D01*
X68804Y-40247D02*
X68823Y-40261D01*
X68842Y-40247D01*
X68823Y-40233D01*
X68804Y-40247D01*
X68842Y-40247D01*
X68842Y-40547D02*
X68842Y-40375D01*
X68842Y-40461D02*
X68442Y-40461D01*
X68500Y-40433D01*
X68538Y-40404D01*
X68557Y-40375D01*
G54D12*
X74981Y-41698D02*
X75629Y-41698D01*
X75705Y-41727D01*
X75743Y-41755D01*
X75781Y-41812D01*
X75781Y-41927D01*
X75743Y-41984D01*
X75705Y-42012D01*
X75629Y-42041D01*
X74981Y-42041D01*
X75743Y-42298D02*
X75781Y-42384D01*
X75781Y-42527D01*
X75743Y-42584D01*
X75705Y-42612D01*
X75629Y-42641D01*
X75553Y-42641D01*
X75477Y-42612D01*
X75439Y-42584D01*
X75400Y-42527D01*
X75362Y-42412D01*
X75324Y-42355D01*
X75286Y-42327D01*
X75210Y-42298D01*
X75134Y-42298D01*
X75058Y-42327D01*
X75020Y-42355D01*
X74981Y-42412D01*
X74981Y-42555D01*
X75020Y-42641D01*
X75362Y-43098D02*
X75400Y-43184D01*
X75439Y-43212D01*
X75515Y-43241D01*
X75629Y-43241D01*
X75705Y-43212D01*
X75743Y-43184D01*
X75781Y-43127D01*
X75781Y-42898D01*
X74981Y-42898D01*
X74981Y-43098D01*
X75020Y-43155D01*
X75058Y-43184D01*
X75134Y-43212D01*
X75210Y-43212D01*
X75286Y-43184D01*
X75324Y-43155D01*
X75362Y-43098D01*
X75362Y-42898D01*
X75781Y-43955D02*
X74981Y-43955D01*
X75743Y-44212D02*
X75781Y-44298D01*
X75781Y-44441D01*
X75743Y-44498D01*
X75705Y-44527D01*
X75629Y-44555D01*
X75553Y-44555D01*
X75477Y-44527D01*
X75439Y-44498D01*
X75400Y-44441D01*
X75362Y-44327D01*
X75324Y-44270D01*
X75286Y-44241D01*
X75210Y-44212D01*
X75134Y-44212D01*
X75058Y-44241D01*
X75020Y-44270D01*
X74981Y-44327D01*
X74981Y-44470D01*
X75020Y-44555D01*
X74981Y-44927D02*
X74981Y-45041D01*
X75020Y-45098D01*
X75096Y-45155D01*
X75248Y-45184D01*
X75515Y-45184D01*
X75667Y-45155D01*
X75743Y-45098D01*
X75781Y-45041D01*
X75781Y-44927D01*
X75743Y-44870D01*
X75667Y-44812D01*
X75515Y-44784D01*
X75248Y-44784D01*
X75096Y-44812D01*
X75020Y-44870D01*
X74981Y-44927D01*
X75781Y-45727D02*
X75781Y-45441D01*
X74981Y-45441D01*
X75553Y-45898D02*
X75553Y-46184D01*
X75781Y-45841D02*
X74981Y-46041D01*
X75781Y-46241D01*
X74981Y-46355D02*
X74981Y-46698D01*
X75781Y-46527D02*
X74981Y-46527D01*
X74981Y-47012D02*
X74981Y-47127D01*
X75020Y-47184D01*
X75096Y-47241D01*
X75248Y-47270D01*
X75515Y-47270D01*
X75667Y-47241D01*
X75743Y-47184D01*
X75781Y-47127D01*
X75781Y-47012D01*
X75743Y-46955D01*
X75667Y-46898D01*
X75515Y-46870D01*
X75248Y-46870D01*
X75096Y-46898D01*
X75020Y-46955D01*
X74981Y-47012D01*
X75781Y-47870D02*
X75400Y-47670D01*
X75781Y-47527D02*
X74981Y-47527D01*
X74981Y-47755D01*
X75020Y-47812D01*
X75058Y-47841D01*
X75134Y-47870D01*
X75248Y-47870D01*
X75324Y-47841D01*
X75362Y-47812D01*
X75400Y-47755D01*
X75400Y-47527D01*
G54D13*
X72795Y-40640D02*
X72205Y-40640D01*
X81225Y-39930D02*
X80635Y-39930D01*
G54D14*
G36*
X71576Y-39734D02*
X71570Y-39722D01*
X71554Y-39697D01*
X71530Y-39660D01*
X71501Y-39617D01*
X71471Y-39573D01*
X71447Y-39538D01*
X71431Y-39513D01*
X71426Y-39502D01*
X71428Y-39497D01*
X71438Y-39476D01*
X71453Y-39446D01*
X71462Y-39429D01*
X71474Y-39401D01*
X71476Y-39388D01*
X71473Y-39385D01*
X71452Y-39375D01*
X71416Y-39360D01*
X71368Y-39339D01*
X71313Y-39315D01*
X71253Y-39290D01*
X71192Y-39264D01*
X71133Y-39240D01*
X71081Y-39219D01*
X71038Y-39202D01*
X71009Y-39190D01*
X70996Y-39186D01*
X70993Y-39187D01*
X70980Y-39201D01*
X70962Y-39225D01*
X70920Y-39277D01*
X70856Y-39328D01*
X70783Y-39359D01*
X70703Y-39370D01*
X70628Y-39361D01*
X70556Y-39331D01*
X70492Y-39281D01*
X70444Y-39221D01*
X70413Y-39150D01*
X70404Y-39070D01*
X70412Y-38994D01*
X70441Y-38921D01*
X70490Y-38856D01*
X70522Y-38829D01*
X70587Y-38791D01*
X70657Y-38770D01*
X70675Y-38767D01*
X70752Y-38771D01*
X70825Y-38793D01*
X70891Y-38834D01*
X70945Y-38890D01*
X70951Y-38897D01*
X70970Y-38924D01*
X70984Y-38941D01*
X70995Y-38955D01*
X71231Y-38857D01*
X71268Y-38841D01*
X71333Y-38814D01*
X71388Y-38791D01*
X71432Y-38772D01*
X71462Y-38759D01*
X71474Y-38753D01*
X71474Y-38752D01*
X71476Y-38744D01*
X71469Y-38726D01*
X71453Y-38693D01*
X71442Y-38671D01*
X71430Y-38646D01*
X71426Y-38635D01*
X71431Y-38625D01*
X71446Y-38601D01*
X71470Y-38566D01*
X71499Y-38524D01*
X71526Y-38484D01*
X71550Y-38447D01*
X71567Y-38420D01*
X71574Y-38407D01*
X71574Y-38405D01*
X71568Y-38393D01*
X71550Y-38372D01*
X71520Y-38340D01*
X71475Y-38294D01*
X71468Y-38287D01*
X71430Y-38250D01*
X71398Y-38220D01*
X71376Y-38199D01*
X71365Y-38192D01*
X71365Y-38192D01*
X71352Y-38199D01*
X71326Y-38216D01*
X71288Y-38240D01*
X71244Y-38270D01*
X71131Y-38348D01*
X71024Y-38305D01*
X70991Y-38292D01*
X70951Y-38275D01*
X70923Y-38263D01*
X70910Y-38257D01*
X70906Y-38245D01*
X70899Y-38216D01*
X70890Y-38173D01*
X70881Y-38122D01*
X70872Y-38074D01*
X70864Y-38031D01*
X70858Y-37999D01*
X70855Y-37985D01*
X70853Y-37981D01*
X70846Y-37979D01*
X70831Y-37977D01*
X70805Y-37976D01*
X70763Y-37975D01*
X70703Y-37975D01*
X70696Y-37975D01*
X70638Y-37976D01*
X70593Y-37977D01*
X70563Y-37978D01*
X70551Y-37980D01*
X70551Y-37980D01*
X70548Y-37994D01*
X70541Y-38025D01*
X70533Y-38068D01*
X70523Y-38120D01*
X70522Y-38124D01*
X70512Y-38175D01*
X70503Y-38219D01*
X70496Y-38249D01*
X70492Y-38262D01*
X70488Y-38265D01*
X70468Y-38275D01*
X70436Y-38290D01*
X70397Y-38307D01*
X70356Y-38324D01*
X70320Y-38339D01*
X70292Y-38349D01*
X70280Y-38352D01*
X70280Y-38351D01*
X70267Y-38344D01*
X70240Y-38326D01*
X70203Y-38301D01*
X70159Y-38270D01*
X70156Y-38268D01*
X70112Y-38238D01*
X70075Y-38214D01*
X70048Y-38198D01*
X70036Y-38192D01*
X70036Y-38192D01*
X70023Y-38202D01*
X69998Y-38224D01*
X69964Y-38256D01*
X69926Y-38295D01*
X69914Y-38307D01*
X69872Y-38349D01*
X69845Y-38379D01*
X69830Y-38397D01*
X69827Y-38406D01*
X69827Y-38407D01*
X69835Y-38420D01*
X69853Y-38447D01*
X69879Y-38485D01*
X69909Y-38529D01*
X69911Y-38532D01*
X69941Y-38576D01*
X69966Y-38613D01*
X69983Y-38639D01*
X69990Y-38650D01*
X69990Y-38652D01*
X69984Y-38670D01*
X69973Y-38701D01*
X69959Y-38739D01*
X69942Y-38780D01*
X69927Y-38816D01*
X69914Y-38844D01*
X69907Y-38857D01*
X69906Y-38857D01*
X69891Y-38862D01*
X69858Y-38870D01*
X69813Y-38879D01*
X69759Y-38889D01*
X69750Y-38891D01*
X69698Y-38901D01*
X69655Y-38909D01*
X69625Y-38915D01*
X69613Y-38918D01*
X69611Y-38926D01*
X69609Y-38951D01*
X69608Y-38990D01*
X69608Y-39037D01*
X69608Y-39086D01*
X69609Y-39135D01*
X69611Y-39176D01*
X69613Y-39206D01*
X69615Y-39218D01*
X69616Y-39218D01*
X69632Y-39223D01*
X69665Y-39230D01*
X69710Y-39239D01*
X69764Y-39250D01*
X69774Y-39252D01*
X69826Y-39261D01*
X69868Y-39270D01*
X69898Y-39276D01*
X69909Y-39280D01*
X69912Y-39284D01*
X69921Y-39306D01*
X69936Y-39341D01*
X69953Y-39384D01*
X69994Y-39484D01*
X69909Y-39607D01*
X69902Y-39619D01*
X69872Y-39663D01*
X69847Y-39699D01*
X69831Y-39724D01*
X69825Y-39735D01*
X69826Y-39736D01*
X69836Y-39748D01*
X69859Y-39772D01*
X69892Y-39806D01*
X69930Y-39844D01*
X69959Y-39873D01*
X69993Y-39907D01*
X70016Y-39928D01*
X70031Y-39940D01*
X70040Y-39944D01*
X70046Y-39943D01*
X70059Y-39935D01*
X70086Y-39917D01*
X70123Y-39892D01*
X70167Y-39862D01*
X70203Y-39837D01*
X70244Y-39811D01*
X70274Y-39793D01*
X70288Y-39787D01*
X70294Y-39789D01*
X70318Y-39797D01*
X70355Y-39812D01*
X70398Y-39830D01*
X70495Y-39873D01*
X70508Y-39937D01*
X70515Y-39976D01*
X70525Y-40030D01*
X70535Y-40081D01*
X70551Y-40162D01*
X70847Y-40165D01*
X70853Y-40153D01*
X70856Y-40141D01*
X70863Y-40111D01*
X70871Y-40068D01*
X70881Y-40018D01*
X70889Y-39975D01*
X70897Y-39931D01*
X70903Y-39900D01*
X70906Y-39886D01*
X70910Y-39883D01*
X70931Y-39872D01*
X70965Y-39857D01*
X71005Y-39840D01*
X71046Y-39822D01*
X71085Y-39807D01*
X71114Y-39796D01*
X71129Y-39792D01*
X71140Y-39798D01*
X71166Y-39815D01*
X71202Y-39839D01*
X71245Y-39868D01*
X71288Y-39897D01*
X71325Y-39922D01*
X71351Y-39939D01*
X71363Y-39947D01*
X71372Y-39943D01*
X71392Y-39926D01*
X71426Y-39893D01*
X71474Y-39845D01*
X71481Y-39837D01*
X71518Y-39799D01*
X71548Y-39766D01*
X71568Y-39744D01*
X71576Y-39734D01*
X71576Y-39734D01*
G37*
G54D15*
X72721Y-41915D02*
X72721Y-41615D01*
X72650Y-41615D01*
X72607Y-41630D01*
X72578Y-41658D01*
X72564Y-41687D01*
X72550Y-41744D01*
X72550Y-41787D01*
X72564Y-41844D01*
X72578Y-41872D01*
X72607Y-41901D01*
X72650Y-41915D01*
X72721Y-41915D01*
X72264Y-41915D02*
X72435Y-41915D01*
X72350Y-41915D02*
X72350Y-41615D01*
X72378Y-41658D01*
X72407Y-41687D01*
X72435Y-41701D01*
X81121Y-41175D02*
X81121Y-40875D01*
X81050Y-40875D01*
X81007Y-40890D01*
X80978Y-40918D01*
X80964Y-40947D01*
X80950Y-41004D01*
X80950Y-41047D01*
X80964Y-41104D01*
X80978Y-41132D01*
X81007Y-41161D01*
X81050Y-41175D01*
X81121Y-41175D01*
X80835Y-40904D02*
X80821Y-40890D01*
X80792Y-40875D01*
X80721Y-40875D01*
X80692Y-40890D01*
X80678Y-40904D01*
X80664Y-40932D01*
X80664Y-40961D01*
X80678Y-41004D01*
X80850Y-41175D01*
X80664Y-41175D01*
M02*
